<svg xmlns="http://www.w3.org/2000/svg" width="24" height="24" viewBox="0 0 24 24" fill="none">
    <path d="M10.0293 10.9139L10.0878 16.3773L21.3399 18.4846L22.0813 12.9887L10.0293 10.9139Z" fill="#BCBBBB"/>
    <path fill-rule="evenodd" clip-rule="evenodd" d="M21.4305 18.6082L9.98334 16.4619L9.9248 10.7903L22.198 12.8977L21.4305 18.6082ZM10.198 16.2928L21.2549 18.3611L21.9703 13.0798L10.1459 11.044L10.198 16.2928Z" fill="#605F60"/>
    <path d="M2.90039 13.0472L3.26462 18.9009L14.7833 21.7367L14.7638 15.3627L2.90039 13.0472Z" fill="#A0444B"/>
    <g opacity="0.7">
        <path d="M12.9045 21.2749L12.7549 17.0408L5.13867 15.3107L5.23623 19.3692L12.9045 21.2749Z" fill="#D86318"/>
    </g>
    <path d="M9.92535 10.9074L9.97088 15.07L2.81641 13.4375L9.92535 10.9074Z" fill="#BCBBBB"/>
    <path fill-rule="evenodd" clip-rule="evenodd" d="M10.0752 15.2066L2.43945 13.457L10.0297 10.7578L10.0752 15.2066ZM3.19392 13.418L9.86059 14.9399L9.82157 11.0635L3.19392 13.418Z" fill="#605F60"/>
    <path d="M23.6163 11.7204L9.68457 8.97571L9.95774 10.0489L22.2114 12.4489L23.6033 11.87L23.6163 11.7204Z" fill="#FFFDFD"/>
    <path fill-rule="evenodd" clip-rule="evenodd" d="M22.2181 12.5594L22.1921 12.5529L9.87337 10.1399L9.53516 8.83911L23.7335 11.6359L23.7075 11.9416L22.2181 12.5594ZM10.0425 9.95781L22.1986 12.3383L23.4864 11.805L9.82134 9.11228L10.0425 9.95781Z" fill="#605F60"/>
    <path d="M9.96383 9.93829L9.9248 10.9074L22.6012 13.2749L22.6337 12.4619L9.96383 9.93829Z" fill="#FFFDFD"/>
    <path fill-rule="evenodd" clip-rule="evenodd" d="M22.7055 13.3985L9.81445 10.9985L9.85998 9.81473L22.7445 12.3773L22.7055 13.3985ZM10.0356 10.8229L22.5039 13.1448L22.5234 12.5464L10.0616 10.0684L10.0356 10.8229Z" fill="#605F60"/>
    <path d="M0.285801 12.0391L0.279297 11.9936L9.69718 8.97571L9.95734 10.0489L3.22564 12.4749L0.285801 12.0391Z" fill="#FFFDFD"/>
    <path fill-rule="evenodd" clip-rule="evenodd" d="M3.23886 12.5789L0.188457 12.1367L0.168945 11.9155L9.77545 8.83911L10.0811 10.1139L3.23886 12.5789ZM0.65675 11.9871L3.21935 12.3643L9.84049 9.97732L9.63236 9.11228L0.65675 11.9871Z" fill="#605F60"/>
    <path d="M9.96371 9.93832L9.92469 10.9074L2.84826 13.7887L2.80273 12.4034L9.96371 9.93832Z" fill="#FFFDFD"/>
    <path fill-rule="evenodd" clip-rule="evenodd" d="M2.74442 13.9448L2.69238 12.3318L10.0745 9.78873L10.029 10.9855L2.74442 13.9448ZM2.90702 12.4814L2.94604 13.6326L9.82084 10.8359L9.84685 10.0944L2.90702 12.4814Z" fill="#605F60"/>
    <path d="M15.3626 21.8668L21.3399 18.4846L22.0813 12.9887L15.3496 15.4342L15.3626 21.8668Z" fill="#8A3235"/>
    <path d="M1.26855 12.7155L1.76286 19.1611L3.55148 19.6033L3.33034 13.0082L1.26855 12.7155Z" fill="#C9F4F4"/>
    <path d="M3.55122 19.6034L4.46179 19.2001L4.37073 12.8326L3.33008 13.0083L3.55122 19.6034Z" fill="#8B93D6"/>
    <path d="M12.7021 15.1741L12.9233 21.8017L15.2387 22.3936L15.3493 15.4343L12.7021 15.1741Z" fill="#C9F4F4"/>
    <path d="M15.2393 22.3936L17.0864 21.3985L17.3336 14.9269L15.3433 15.5448L15.2393 22.3936Z" fill="#9196DE"/>
    <path d="M21.0601 13.3725L20.6309 19.0115L21.2097 19.1676L21.6455 13.2359L21.0601 13.3725Z" fill="#D9FFFF"/>
    <path d="M21.21 19.1676L22.2961 18.5172L22.9335 12.9692L21.6522 13.1318L21.21 19.1676Z" fill="#9196DE"/>
    <path d="M0.286018 12.0392L0.168945 12.0261L3.83073 11.9286L17.0275 14.4327L15.3039 15.1156L0.286018 12.0392Z" fill="#FFFDFD"/>
    <path fill-rule="evenodd" clip-rule="evenodd" d="M15.3172 15.2261L15.2847 15.2196L0.273323 12.1432L0.15625 12.1367L0.162754 11.9221L3.84405 11.818L3.85056 11.8245L17.405 14.3936L15.3172 15.2261ZM1.14487 12.1107L15.2977 15.005L16.6441 14.4717L3.82454 12.0326L1.14487 12.1107Z" fill="#605F60"/>
    <path d="M15.2969 14.0164L15.3034 15.1156L23.7196 11.831L23.6416 11.87L20.5261 12.0652L15.2969 14.0164Z" fill="#FFFDFD"/>
    <path fill-rule="evenodd" clip-rule="evenodd" d="M15.1995 15.2717L15.1865 13.9383L20.5003 11.9546L23.5898 11.766L23.6808 11.727L23.7719 11.9221L23.6743 11.9741H23.6353L15.1995 15.2717ZM15.4012 14.0879L15.4142 14.9595L22.9459 12.0196L20.5459 12.1692L15.4012 14.0879Z" fill="#605F60"/>
    <path d="M22.758 9.76922L8.59863 7.23264L8.89782 8.2993L21.3466 10.5172L22.7515 9.91881L22.758 9.76922Z" fill="#FFFDFD"/>
    <path fill-rule="evenodd" clip-rule="evenodd" d="M21.3591 10.6277L8.8128 8.39035L8.45508 7.09604L22.8746 9.67815L22.8551 9.99035L21.3591 10.6277ZM8.98191 8.20823L21.3331 10.4066L22.6339 9.85376L8.74776 7.36921L8.98191 8.20823Z" fill="#605F60"/>
    <path d="M0 10.5757L0.17561 12.1757L15.3431 15.3432L15.3821 13.431L0 10.5757Z" fill="#C9F4F4"/>
    <path d="M15.3428 15.3434L23.8046 11.8247L23.9346 10.0881L23.8501 10.0166L15.3818 13.4312L15.3428 15.3434Z" fill="#9196DE"/>
    <path d="M21.3398 9.26842L15.148 12.3253L15.161 12.4164L4.24715 10.5172L9.74959 8.4359L9.46992 7.36923L0.0130079 10.5497L0 10.5692L0.0260159 10.6018L15.226 13.405L15.3431 13.457L15.3821 13.431L23.8504 10.0814V10.0164L21.3398 9.26842Z" fill="#E4F9F7"/>
    <path d="M2.47133 6.74481L14.3933 7.88302L14.4323 12.3383L2.44531 10.1855L2.47133 6.74481Z" fill="#A0444B"/>
    <path d="M2.56934 6.62125L7.32381 3.08954L17.301 4.16271L14.4718 8.25377L2.56934 6.62125Z" fill="#B5616A"/>
    <path d="M7.32324 3.08981L10.8094 2.42639L19.0631 3.19387L17.3005 4.16298L7.32324 3.08981Z" fill="#F2933D"/>
    <path d="M10.9658 2.46516L10.0748 1.97086L7.57721 2.40663L3.31055 6.74484L3.43412 10.8034L4.3512 10.5692L4.33168 6.92695L7.8829 3.01801L10.9658 2.46516Z" fill="#A3ADE5"/>
    <path d="M3.43444 10.8034L3.31086 6.74484L0.962891 6.23102L1.19053 10.3936L3.43444 10.8034Z" fill="#C9F4F4"/>
    <path d="M3.31084 6.74481L0.956367 6.33506L0.943359 6.22449L5.11246 2.15294L7.2523 1.6001L9.95799 1.90579L10.0751 1.97083L7.46694 2.51067L3.31084 6.74481Z" fill="white"/>
    <path d="M19.0052 4.65053L21.2231 4.31232L22.9467 7.06354L22.2963 9.99037L16.6963 12.0522L16.7483 7.86354L19.0052 4.65053Z" fill="#8A3235"/>
    <g opacity="0.8">
        <path d="M17.6328 20.605L17.7824 16.644L20.5596 15.3302L20.3125 18.9985L17.6328 20.605Z" fill="#B2483E"/>
    </g>
    <path d="M3.37598 14.3936L4.39711 14.5562L3.4085 15.1351L3.37598 14.3936Z" fill="#766EB7"/>
    <path d="M1.36621 13.9448L1.44426 14.6863L3.35645 15.096L3.2719 14.283L1.36621 13.9448Z" fill="#B9C0F9"/>
    <path d="M12.7607 16.3188L12.7412 17.47L15.2388 18.0359L15.2908 16.657L12.7607 16.3188Z" fill="#B9C0F9"/>
    <path d="M0.181641 12.0391L0.331234 13.6391L15.3361 17.0277L15.3036 15.1155L0.181641 12.0391Z" fill="#C9F4F4"/>
    <path d="M15.3819 15.3302L0.0712891 12.1692L15.4274 15.122L15.3819 15.3302Z" fill="#605BA5"/>
    <path d="M15.2393 18.0359L17.249 17.1448L17.301 15.779L15.2978 16.4164L15.2393 18.0359Z" fill="#766EB7"/>
    <path d="M22.8942 13.3139L22.7511 14.5757L21.5283 15.148L21.6194 14.0098L22.8942 13.3139Z" fill="#766EB7"/>
    <path d="M21.6325 13.6521L21.5089 15.1676L20.9561 14.8099L20.9951 13.7432L21.6325 13.6521Z" fill="#B9C0F9"/>
    <path d="M15.2324 17.0277L15.3365 17.0342L23.6617 13.3139L23.8243 11.831L15.304 15.1155L15.2324 17.0277Z" fill="#9196DE"/>
    <path d="M23.9023 11.87L15.4795 15.1741L23.8177 11.6749L23.9023 11.87Z" fill="#605BA5"/>
    <path d="M5.11248 2.15295L7.46696 2.51068L3.31086 6.74482L3.36289 8.55946L2.88159 6.74482L1.34013 6.40661L1.02793 7.94808L0.962891 6.231L5.11248 2.15295Z" fill="#E4F9F7"/>
    <g opacity="0.8">
        <path d="M15.85 4.05213L8.33131 3.16757L7.44676 4.19521L10.2825 4.46188C10.2825 4.46188 8.21424 4.68302 7.21912 4.44237L6.19148 5.63261C6.19148 5.63261 7.36871 6.02286 8.20774 6.05538C8.20774 6.05538 9.76871 6.47164 10.8029 6.66025C10.8029 6.66025 7.79148 6.37408 5.95083 5.86676L4.92969 6.91391L12.7411 8.06513L15.85 4.05213Z" fill="#F1862A"/>
    </g>
    <path d="M12.7417 8.06516L4.93028 6.91394L4.87824 8.20175C4.87824 8.20175 5.6132 8.52695 6.69288 8.69605C6.69288 8.69605 5.58719 8.64402 4.86523 8.57898L4.89125 10.6082L12.9238 12.1042L12.7417 8.06516Z" fill="#D86318"/>
    <g opacity="0.7">
        <path d="M8.38379 3.12856L11.87 2.46515L20.1236 3.23913L18.361 4.20174L8.38379 3.12856Z" fill="#F9C18F"/>
    </g>
    <path d="M12.3125 7.81825L15.8637 3.31093L18.2247 2.71255L21.0995 3.01174L21.054 3.14182L19.2653 3.55158L15.532 8.26703L12.3125 7.81825Z" fill="#E4F9F7"/>
    <path d="M15.8633 3.31065L19.0438 3.64887L21.2226 3.03748L18.2243 2.60822L15.8633 3.31065Z" fill="white"/>
    <path fill-rule="evenodd" clip-rule="evenodd" d="M23.5768 6.15946L23.1606 9.9123L15.2451 12.9042L15.3167 8.25377L19.05 3.53832L21.2224 3.03751L23.5768 6.15946ZM22.185 7.26515L20.7801 4.7806L19.6354 5.11881L17.3004 8.4684L17.2093 10.953L21.7882 9.28141L22.185 7.26515Z" fill="#9196DE"/>
    <path d="M21.0203 4.72205L22.4187 6.73831L22.113 9.18383L21.5927 9.05375L21.8789 6.82286L20.5 4.85863L21.0203 4.72205Z" fill="#565699"/>
    <g opacity="0.8">
        <path d="M19.9797 5.50255L20.474 5.37897L21.5732 6.92043L21.3065 9.19685L17.8203 10.3806L17.8919 8.59848L19.9797 5.50255Z" fill="#B2483E"/>
    </g>
    <path d="M21.5927 9.05377L22.113 9.18385L17.209 10.953L17.222 10.5887L21.5927 9.05377Z" fill="#D9FFFF"/>
    <path d="M12.3122 7.81799L12.3057 12.3643L15.2455 12.9042L15.317 8.25377L12.3122 7.81799Z" fill="#C9F4F4"/>
    <path d="M12.3125 10.7643V7.81799L12.7483 7.85051L12.3125 10.7643Z" fill="white"/>
    <path d="M14.9463 8.20172L15.317 8.25375L15.265 11.7139L14.9463 8.20172Z" fill="white"/>
    <path d="M12.5264 7.83098C12.754 7.84399 12.9817 7.8635 13.2028 7.88301C13.4304 7.90253 13.6581 7.92204 13.8857 7.94806C14.1069 7.97407 14.3302 8.00009 14.5556 8.0261C14.7833 8.05862 15.0044 8.08464 15.2321 8.11066L15.102 8.16269C15.4012 7.77245 15.7069 7.3822 16.0191 6.99846C16.3312 6.61472 16.6434 6.23098 16.9621 5.85375C17.2787 5.47651 17.6017 5.10361 17.9312 4.73505L18.1784 4.45537L18.4256 4.1822C18.5947 4.00009 18.7659 3.82014 18.9394 3.64236C18.8006 3.85049 18.6597 4.05429 18.5166 4.25375L18.302 4.55944L18.0808 4.85862C17.7903 5.25754 17.4933 5.64995 17.1898 6.03586C16.8841 6.43261 16.5784 6.81635 16.2662 7.20009C15.954 7.58383 15.6353 7.96106 15.3166 8.3383L15.2646 8.40334L15.1865 8.39033C14.9654 8.35131 14.7443 8.30578 14.5231 8.26025C14.2976 8.22123 14.0743 8.17787 13.8532 8.13017C13.6321 8.08464 13.4109 8.03261 13.1898 7.98708C12.9686 7.93505 12.7475 7.88301 12.5264 7.83098Z" fill="white"/>
    <path d="M5.00191 2.36108C4.93254 2.45214 4.86099 2.54103 4.78728 2.62775C4.71357 2.71881 4.63986 2.8077 4.56614 2.89442C4.42305 3.06352 4.27346 3.23913 4.12387 3.40824C3.82034 3.74645 3.51248 4.08033 3.20029 4.40986C2.56939 5.06677 1.92549 5.70417 1.25557 6.31556L1.19704 6.13344C1.48322 6.21149 1.76289 6.28954 2.04907 6.37409C2.33091 6.45648 2.61059 6.5432 2.88809 6.63425C2.59758 6.59523 2.30706 6.55187 2.01655 6.50417C1.72387 6.45214 1.43769 6.40011 1.15151 6.34808L0.962891 6.30905L1.09948 6.15946C1.70435 5.48303 2.32874 4.82612 2.97915 4.19523C3.30435 3.87436 3.63389 3.56 3.96777 3.25214C4.13687 3.10255 4.30598 2.94645 4.47509 2.80336C4.56181 2.72531 4.64853 2.64943 4.73525 2.57572C4.82197 2.50201 4.91086 2.43046 5.00191 2.36108Z" fill="white"/>
    <path d="M17.21 10.9529L18.3417 10.5367L17.8213 10.3806L17.223 10.5887L17.21 10.9529Z" fill="#B1BBF2"/>
    <path d="M6.66699 11.5968L6.70602 7.76595L7.35642 7.41473L9.93854 7.8375L9.8865 11.5773L8.91089 12.0912L6.66699 11.5968Z" fill="#9196DE"/>
    <path d="M6.5625 11.5904L6.59502 7.91556L8.9625 8.33182L8.91047 12.0717L6.5625 11.5904Z" fill="#C9F4F4"/>
    <path d="M8.65039 8.21474L9.51543 7.82449Z" fill="#9196DE"/>
    <path d="M9.93782 7.8375L8.96221 8.33181L6.59473 7.91555L7.3557 7.41473L9.93782 7.8375Z" fill="#E4F9F7"/>
</svg>
