<svg width="20" height="15" viewBox="0 0 20 15" fill="none" xmlns="http://www.w3.org/2000/svg">
<mask id="mask0" mask-type="alpha" maskUnits="userSpaceOnUse" x="0" y="0" width="20" height="15">
<rect width="20" height="15" rx="1.5" fill="white"/>
</mask>
<g mask="url(#mask0)">
<path fill-rule="evenodd" clip-rule="evenodd" d="M0 0V15H20V0H0Z" fill="#AF0100"/>
<mask id="mask1" mask-type="alpha" maskUnits="userSpaceOnUse" x="0" y="0" width="20" height="15">
<path fill-rule="evenodd" clip-rule="evenodd" d="M0 0V15H20V0H0Z" fill="white"/>
</mask>
<g mask="url(#mask1)">
<path fill-rule="evenodd" clip-rule="evenodd" d="M0 0V5H20V0H0Z" fill="#3CA5D9"/>
<path fill-rule="evenodd" clip-rule="evenodd" d="M0 10V15H20V10H0Z" fill="#73BE4A"/>
<path fill-rule="evenodd" clip-rule="evenodd" d="M10.7261 9.31667C9.88427 9.12256 9.22547 8.46071 9.23421 7.48951C9.24239 6.58038 9.82882 5.81131 10.7547 5.60232C11.6807 5.39332 12.4952 5.83406 12.4952 5.83406C12.24 5.26661 11.3516 4.86871 10.6229 4.87062C9.26647 4.87418 7.81938 5.90969 7.80516 7.491C7.79041 9.13041 9.35067 10.0624 10.7238 10.0588C11.8247 10.0559 12.3476 9.34745 12.4561 9.04618C12.4561 9.04618 11.568 9.51078 10.7261 9.31667ZM11.2611 8.38794L11.9959 7.87667L12.7306 8.38794L12.4714 7.53118L13.1847 6.9904L12.2898 6.97216L11.9959 6.12667L11.702 6.97216L10.807 6.9904L11.5203 7.53118L11.2611 8.38794Z" fill="#F7FCFF"/>
</g>
</g>
<rect width="20" height="15" fill="url(#paint0_linear)" style="mix-blend-mode:overlay"/>
<defs>
<linearGradient id="paint0_linear" x1="10" y1="0" x2="10" y2="15" gradientUnits="userSpaceOnUse">
<stop stop-color="white" stop-opacity="0.7"/>
<stop offset="1" stop-opacity="0.3"/>
</linearGradient>
</defs>
</svg>
