<svg width="20" height="15" viewBox="0 0 20 15" fill="none" xmlns="http://www.w3.org/2000/svg">
<mask id="mask0" mask-type="alpha" maskUnits="userSpaceOnUse" x="0" y="0" width="20" height="15">
<rect width="20" height="15" rx="1.5" fill="white"/>
</mask>
<g mask="url(#mask0)">
<path fill-rule="evenodd" clip-rule="evenodd" d="M0 0V15H20V0H0Z" fill="#4EC7EE"/>
<mask id="mask1" mask-type="alpha" maskUnits="userSpaceOnUse" x="0" y="0" width="20" height="15">
<path fill-rule="evenodd" clip-rule="evenodd" d="M0 0V15H20V0H0Z" fill="white"/>
</mask>
<g mask="url(#mask1)">
<path d="M2.55621 14.5232C2.51654 14.8169 2.7047 15.0261 3.02034 15.1608C3.44467 15.3418 3.87282 15.1723 4.26665 14.7359L3.75627 14.2753C3.58133 14.4692 3.45491 14.5438 3.35732 14.5426C3.5484 14.4061 3.79321 14.2375 4.09142 14.0373L4.23456 13.8299C4.34951 13.3368 3.99206 13.0696 3.4469 13.0696C3.12581 13.0696 2.86909 13.1332 2.70622 13.2697C2.43863 13.4941 2.48444 13.8522 2.76603 14.0386C2.78837 14.0533 2.81104 14.0666 2.83402 14.0785C2.67605 14.2119 2.57964 14.3496 2.55621 14.5232Z" fill="#FFE402"/>
<path d="M2.85306 14.0597C2.85306 14.0597 2.93105 13.8868 2.89205 13.7969" stroke="#FFE402" stroke-width="0.6875"/>
<path d="M5.35584 14.5232C5.3955 14.8169 5.20735 15.0261 4.8917 15.1608C4.46738 15.3418 4.03923 15.1723 3.6454 14.7359L4.15578 14.2753C4.33072 14.4692 4.45714 14.5438 4.55473 14.5426C4.36365 14.4061 4.11883 14.2375 3.82062 14.0373L3.67749 13.8299C3.56253 13.3368 3.91999 13.0696 4.46514 13.0696C4.78624 13.0696 5.04296 13.1332 5.20583 13.2697C5.47341 13.4941 5.4276 13.8522 5.14601 14.0386C5.12368 14.0533 5.10101 14.0666 5.07803 14.0785C5.236 14.2119 5.33241 14.3496 5.35584 14.5232Z" fill="#FFE402"/>
<path d="M5.37231 13.9183L4.74565 14.201C4.65769 14.0061 4.6314 13.829 4.7046 13.6601L5.33537 13.9336C5.35658 13.8847 5.35629 13.8828 5.37231 13.9183Z" fill="#FFE402"/>
<path d="M2.55621 0.476905C2.51654 0.183155 2.7047 -0.0260746 3.02034 -0.160735C3.44467 -0.341761 3.87282 -0.172247 4.26665 0.264135L3.75627 0.724753C3.58133 0.530906 3.45491 0.456222 3.35732 0.457491C3.5484 0.594004 3.79321 0.762529 4.09142 0.962792L4.23456 1.17012C4.34951 1.66324 3.99206 1.93045 3.4469 1.93045C3.12581 1.93045 2.86909 1.86691 2.70622 1.73035C2.43863 1.50599 2.48444 1.14783 2.76603 0.961495C2.78837 0.946715 2.81104 0.933414 2.83402 0.921563C2.67605 0.788161 2.57964 0.650439 2.55621 0.476905Z" fill="#FFE402"/>
<path d="M5.35584 0.476905C5.3955 0.183155 5.20735 -0.0260746 4.8917 -0.160735C4.46738 -0.341761 4.03923 -0.172247 3.6454 0.264135L4.15578 0.724753C4.33072 0.530906 4.45714 0.456222 4.55473 0.457491C4.36365 0.594004 4.11883 0.762529 3.82062 0.962792L3.67749 1.17012C3.56253 1.66324 3.91999 1.93045 4.46514 1.93045C4.78624 1.93045 5.04296 1.86691 5.20583 1.73035C5.47341 1.50599 5.4276 1.14783 5.14601 0.961495C5.12368 0.946715 5.10101 0.933414 5.07803 0.921563C5.236 0.788161 5.33241 0.650439 5.35584 0.476905Z" fill="#FFE402"/>
<path fill-rule="evenodd" clip-rule="evenodd" d="M3.18362 12.5394C2.78923 12.5507 2.54385 12.6321 2.54385 13.0122C2.54385 13.4315 2.95112 13.5626 3.38443 13.5626C3.77694 13.5626 4.21914 13.319 4.21914 12.8827C4.21914 12.6173 3.88166 12.0817 3.03189 10.9206C3.00244 10.8932 2.98622 10.8792 2.97323 10.8791C3.02476 10.8504 3.11552 10.8168 3.23527 10.8168C3.27685 10.8168 3.33087 10.8379 3.38443 10.8648V11.3202H4.2841V10.9764C4.2841 10.588 3.71 10.1293 3.23527 10.1293C2.82068 10.1293 2.48783 10.3266 2.31924 10.6103C2.15263 10.8907 2.28003 11.1599 2.51931 11.374C2.87536 11.865 3.15181 12.2715 3.32519 12.5386C3.26149 12.5381 3.22651 12.5381 3.18362 12.5394ZM3.22588 12.8564C3.2134 12.8536 3.2014 12.8506 3.19019 12.8473C3.19854 12.8561 3.23135 12.8952 3.23135 13.0122C3.23135 13.076 3.22828 13.1208 3.22416 13.1524C3.10817 13.05 3.07574 12.8717 3.16062 12.7344L3.16272 12.7309L3.14978 12.7052C3.1515 12.7044 3.15322 12.7035 3.15491 12.7026C3.17489 12.6923 3.19132 12.6838 3.16272 12.7309L3.22588 12.8564ZM3.19019 12.8473L3.17826 12.8437C3.17955 12.8441 3.18123 12.8449 3.1832 12.8461L3.19019 12.8473ZM3.53164 12.8827C3.53164 12.871 3.52765 12.864 3.52075 12.8603L3.52475 12.8646C3.52932 12.874 3.53164 12.8801 3.53164 12.8827Z" fill="#FFE402"/>
<path fill-rule="evenodd" clip-rule="evenodd" d="M4.72846 12.5394C5.12285 12.5507 5.36823 12.6321 5.36823 13.0122C5.36823 13.4315 4.96095 13.5626 4.52765 13.5626C4.13513 13.5626 3.69294 13.319 3.69294 12.8827C3.69294 12.6173 4.03042 12.0817 4.88019 10.9206C4.90964 10.8932 4.92586 10.8792 4.93885 10.8791C4.88731 10.8504 4.79656 10.8168 4.67681 10.8168C4.63523 10.8168 4.5812 10.8379 4.52765 10.8648V11.3202H3.62798V10.9764C3.62798 10.588 4.20208 10.1293 4.67681 10.1293C5.0914 10.1293 5.42425 10.3266 5.59284 10.6103C5.75945 10.8907 5.63204 11.1599 5.39277 11.374C5.03672 11.865 4.76027 12.2715 4.58689 12.5386C4.65059 12.5381 4.68556 12.5381 4.72846 12.5394ZM4.6862 12.8564C4.69868 12.8536 4.71068 12.8506 4.72189 12.8473C4.71354 12.8561 4.68073 12.8952 4.68073 13.0122C4.68073 13.076 4.6838 13.1208 4.68792 13.1524C4.80391 13.05 4.83634 12.8717 4.75146 12.7344L4.74936 12.7309L4.7623 12.7052C4.76058 12.7044 4.75886 12.7035 4.75717 12.7026C4.73719 12.6923 4.72076 12.6838 4.74936 12.7309L4.6862 12.8564ZM4.72189 12.8473L4.73381 12.8437C4.73253 12.8441 4.73085 12.8449 4.72888 12.8461L4.72189 12.8473ZM4.38044 12.8827C4.38044 12.871 4.38443 12.864 4.39133 12.8603L4.38733 12.8646C4.38276 12.874 4.38044 12.8801 4.38044 12.8827Z" fill="#FFE402"/>
<path fill-rule="evenodd" clip-rule="evenodd" d="M3.18362 8.34674C2.78923 8.33539 2.54385 8.25403 2.54385 7.87386C2.54385 7.45464 2.95112 7.32349 3.38443 7.32349C3.77694 7.32349 4.21914 7.5671 4.21914 8.00339C4.21914 8.26881 3.88166 8.80441 3.03189 9.96547C3.00244 9.9929 2.98622 10.0069 2.97323 10.007C3.02476 10.0357 3.11552 10.0693 3.23527 10.0693C3.27685 10.0693 3.33087 10.0482 3.38443 10.0213V9.56594H4.2841V9.90969C4.2841 10.2981 3.71 10.7568 3.23527 10.7568C2.82068 10.7568 2.48783 10.5595 2.31924 10.2758C2.15263 9.99541 2.28003 9.72624 2.51931 9.51214C2.87536 9.02108 3.15181 8.6146 3.32519 8.34752C3.26149 8.34806 3.22651 8.34797 3.18362 8.34674ZM3.22588 8.02974C3.2134 8.03252 3.2014 8.03555 3.19019 8.03881C3.19854 8.03005 3.23135 7.99094 3.23135 7.87386C3.23135 7.81012 3.22828 7.76527 3.22416 7.73374C3.10817 7.83607 3.07574 8.01445 3.16062 8.15176L3.16272 8.15518L3.14978 8.18089C3.1515 8.18176 3.15322 8.18264 3.15491 8.18351C3.17489 8.1938 3.19132 8.20226 3.16272 8.15518L3.22588 8.02974ZM3.19019 8.03881L3.17826 8.04245C3.17955 8.04204 3.18123 8.04125 3.1832 8.03997L3.19019 8.03881ZM3.53164 8.00339C3.53164 8.01513 3.52765 8.0221 3.52075 8.02584L3.52475 8.02146C3.52932 8.01206 3.53164 8.00599 3.53164 8.00339Z" fill="#FFE402"/>
<path fill-rule="evenodd" clip-rule="evenodd" d="M4.72846 8.34674C5.12285 8.33539 5.36823 8.25403 5.36823 7.87386C5.36823 7.45464 4.96095 7.32349 4.52765 7.32349C4.13513 7.32349 3.69294 7.5671 3.69294 8.00339C3.69294 8.26881 4.03042 8.80441 4.88019 9.96547C4.90964 9.9929 4.92586 10.0069 4.93885 10.007C4.88731 10.0357 4.79656 10.0693 4.67681 10.0693C4.63523 10.0693 4.5812 10.0482 4.52765 10.0213V9.56594H3.62798V9.90969C3.62798 10.2981 4.20208 10.7568 4.67681 10.7568C5.0914 10.7568 5.42425 10.5595 5.59284 10.2758C5.75945 9.99541 5.63204 9.72624 5.39277 9.51214C5.03672 9.02108 4.76027 8.6146 4.58689 8.34752C4.65059 8.34806 4.68556 8.34797 4.72846 8.34674ZM4.6862 8.02974C4.69868 8.03252 4.71068 8.03555 4.72189 8.03881C4.71354 8.03005 4.68073 7.99094 4.68073 7.87386C4.68073 7.81012 4.6838 7.76527 4.68792 7.73374C4.80391 7.83607 4.83634 8.01445 4.75146 8.15176L4.74936 8.15518L4.7623 8.18089C4.76058 8.18176 4.75886 8.18264 4.75717 8.18351C4.73719 8.1938 4.72076 8.20226 4.74936 8.15518L4.6862 8.02974ZM4.72189 8.03881L4.73381 8.04245C4.73253 8.04204 4.73085 8.04125 4.72888 8.03997L4.72189 8.03881ZM4.38044 8.00339C4.38044 8.01513 4.38443 8.0221 4.39133 8.02584L4.38733 8.02146C4.38276 8.01206 4.38044 8.00599 4.38044 8.00339Z" fill="#FFE402"/>
<path fill-rule="evenodd" clip-rule="evenodd" d="M3.18362 6.65332C2.78923 6.66467 2.54385 6.74603 2.54385 7.1262C2.54385 7.54542 2.95112 7.67657 3.38443 7.67657C3.77694 7.67657 4.21914 7.43296 4.21914 6.99667C4.21914 6.73125 3.88166 6.19565 3.03189 5.0346C3.00244 5.00716 2.98622 4.99319 2.97323 4.99309C3.02476 4.9644 3.11552 4.9308 3.23527 4.9308C3.27685 4.9308 3.33087 4.95183 3.38443 4.97876V5.43412H4.2841V5.09037C4.2841 4.702 3.71 4.2433 3.23527 4.2433C2.82068 4.2433 2.48783 4.44052 2.31924 4.72425C2.15263 5.00465 2.28003 5.27382 2.51931 5.48792C2.87536 5.97898 3.15181 6.38546 3.32519 6.65254C3.26149 6.65201 3.22651 6.65209 3.18362 6.65332ZM3.22588 6.97032C3.2134 6.96754 3.2014 6.96451 3.19019 6.96125C3.19854 6.97001 3.23135 7.00912 3.23135 7.1262C3.23135 7.18995 3.22828 7.23479 3.22416 7.26632C3.10817 7.16399 3.07574 6.98562 3.16062 6.84831L3.16272 6.84488L3.14978 6.81917C3.1515 6.8183 3.15322 6.81742 3.15491 6.81655C3.17489 6.80626 3.19132 6.7978 3.16272 6.84488L3.22588 6.97032ZM3.19019 6.96125L3.17826 6.95761C3.17955 6.95802 3.18123 6.95881 3.1832 6.96009L3.19019 6.96125ZM3.53164 6.99667C3.53164 6.98494 3.52765 6.97796 3.52075 6.97422L3.52475 6.9786C3.52932 6.988 3.53164 6.99407 3.53164 6.99667Z" fill="#FFE402"/>
<path fill-rule="evenodd" clip-rule="evenodd" d="M4.72846 6.65332C5.12285 6.66467 5.36823 6.74603 5.36823 7.1262C5.36823 7.54542 4.96095 7.67657 4.52765 7.67657C4.13513 7.67657 3.69294 7.43296 3.69294 6.99667C3.69294 6.73125 4.03042 6.19565 4.88019 5.0346C4.90964 5.00716 4.92586 4.99319 4.93885 4.99309C4.88731 4.9644 4.79656 4.9308 4.67681 4.9308C4.63523 4.9308 4.5812 4.95183 4.52765 4.97876V5.43412H3.62798V5.09037C3.62798 4.702 4.20208 4.2433 4.67681 4.2433C5.0914 4.2433 5.42425 4.44052 5.59284 4.72425C5.75945 5.00465 5.63204 5.27382 5.39277 5.48792C5.03672 5.97898 4.76027 6.38546 4.58689 6.65254C4.65059 6.65201 4.68556 6.65209 4.72846 6.65332ZM4.6862 6.97032C4.69868 6.96754 4.71068 6.96451 4.72189 6.96125C4.71354 6.97001 4.68073 7.00912 4.68073 7.1262C4.68073 7.18995 4.6838 7.23479 4.68792 7.26632C4.80391 7.16399 4.83634 6.98562 4.75146 6.84831L4.74936 6.84488L4.7623 6.81917C4.76058 6.8183 4.75886 6.81742 4.75717 6.81655C4.73719 6.80626 4.72076 6.7978 4.74936 6.84488L4.6862 6.97032ZM4.72189 6.96125L4.73381 6.95761C4.73253 6.95802 4.73085 6.95881 4.72888 6.96009L4.72189 6.96125ZM4.38044 6.99667C4.38044 6.98494 4.38443 6.97796 4.39133 6.97422L4.38733 6.9786C4.38276 6.988 4.38044 6.99407 4.38044 6.99667Z" fill="#FFE402"/>
<path fill-rule="evenodd" clip-rule="evenodd" d="M3.18362 2.46063C2.78923 2.44928 2.54385 2.36792 2.54385 1.98775C2.54385 1.56853 2.95112 1.43738 3.38443 1.43738C3.77694 1.43738 4.21914 1.68099 4.21914 2.11728C4.21914 2.3827 3.88166 2.9183 3.03189 4.07936C3.00244 4.10679 2.98622 4.12077 2.97323 4.12086C3.02476 4.14955 3.11552 4.18316 3.23527 4.18316C3.27685 4.18316 3.33087 4.16213 3.38443 4.13519V3.67984H4.2841V4.02359C4.2841 4.41195 3.71 4.87066 3.23527 4.87066C2.82068 4.87066 2.48783 4.67343 2.31924 4.3897C2.15263 4.1093 2.28003 3.84013 2.51931 3.62604C2.87536 3.13497 3.15181 2.72849 3.32519 2.46142C3.26149 2.46195 3.22651 2.46186 3.18362 2.46063ZM3.22588 2.14364C3.2134 2.14641 3.2014 2.14945 3.19019 2.1527C3.19854 2.14395 3.23135 2.10483 3.23135 1.98775C3.23135 1.92401 3.22828 1.87916 3.22416 1.84763C3.10817 1.94996 3.07574 2.12834 3.16062 2.26565L3.16272 2.26907L3.14978 2.29478C3.1515 2.29565 3.15322 2.29653 3.15491 2.29741C3.17489 2.30769 3.19132 2.31615 3.16272 2.26907L3.22588 2.14364ZM3.19019 2.1527L3.17826 2.15635C3.17955 2.15593 3.18123 2.15514 3.1832 2.15387L3.19019 2.1527ZM3.53164 2.11728C3.53164 2.12902 3.52765 2.136 3.52075 2.13973L3.52475 2.13535C3.52932 2.12595 3.53164 2.11988 3.53164 2.11728Z" fill="#FFE402"/>
<path fill-rule="evenodd" clip-rule="evenodd" d="M4.72846 2.46063C5.12285 2.44928 5.36823 2.36792 5.36823 1.98775C5.36823 1.56853 4.96095 1.43738 4.52765 1.43738C4.13513 1.43738 3.69294 1.68099 3.69294 2.11728C3.69294 2.3827 4.03042 2.9183 4.88019 4.07936C4.90964 4.10679 4.92586 4.12077 4.93885 4.12086C4.88731 4.14955 4.79656 4.18316 4.67681 4.18316C4.63523 4.18316 4.5812 4.16213 4.52765 4.13519V3.67984H3.62798V4.02359C3.62798 4.41195 4.20208 4.87066 4.67681 4.87066C5.0914 4.87066 5.42425 4.67343 5.59284 4.3897C5.75945 4.1093 5.63204 3.84013 5.39277 3.62604C5.03672 3.13497 4.76027 2.72849 4.58689 2.46142C4.65059 2.46195 4.68556 2.46186 4.72846 2.46063ZM4.6862 2.14364C4.69868 2.14641 4.71068 2.14945 4.72189 2.1527C4.71354 2.14395 4.68073 2.10483 4.68073 1.98775C4.68073 1.92401 4.6838 1.87916 4.68792 1.84763C4.80391 1.94996 4.83634 2.12834 4.75146 2.26565L4.74936 2.26907L4.7623 2.29478C4.76058 2.29565 4.75886 2.29653 4.75717 2.29741C4.73719 2.30769 4.72076 2.31615 4.74936 2.26907L4.6862 2.14364ZM4.72189 2.1527L4.73381 2.15635C4.73253 2.15593 4.73085 2.15514 4.72888 2.15387L4.72189 2.1527ZM4.38044 2.11728C4.38044 2.12902 4.38443 2.136 4.39133 2.13973L4.38733 2.13535C4.38276 2.12595 4.38044 2.11988 4.38044 2.11728Z" fill="#FFE402"/>
<path fill-rule="evenodd" clip-rule="evenodd" d="M11.8667 1.74054L12.1226 2.69536C12.1226 2.69536 12.1256 2.91229 11.8805 2.91229C11.6355 2.91229 11.6231 2.69536 11.6231 2.69536L11.8667 1.74054ZM14.0314 5.38753C14.0314 6.63017 13.0828 7.63753 11.9127 7.63753C10.7425 7.63753 9.79395 6.63017 9.79395 5.38753C9.79395 4.14489 10.7425 3.13753 11.9127 3.13753C13.0828 3.13753 14.0314 4.14489 14.0314 5.38753ZM12.8633 2.8879L12.8977 1.89998L12.3856 2.74187C12.3856 2.74187 12.334 2.95293 12.5683 3.02458C12.8027 3.09623 12.8633 2.8879 12.8633 2.8879ZM13.8379 2.3678L13.5161 3.30248C13.5161 3.30248 13.3973 3.48401 13.1941 3.34697C12.991 3.20993 13.102 3.02318 13.102 3.02318L13.8379 2.3678ZM14.023 3.90229L14.6039 3.10253L13.7086 3.51412C13.7086 3.51412 13.5478 3.66024 13.702 3.8507C13.8563 4.04115 14.023 3.90229 14.023 3.90229ZM15.1318 4.04853L14.3322 4.62962C14.3322 4.62962 14.1307 4.71017 14.0429 4.48138C13.9551 4.25258 14.1532 4.16331 14.1532 4.16331L15.1318 4.04853ZM14.4299 5.42645L15.3645 5.10457L14.395 4.92819C14.395 4.92819 14.1795 4.95565 14.1966 5.20012C14.2137 5.44459 14.4299 5.42645 14.4299 5.42645ZM15.2878 6.18499L14.2999 6.21955C14.2999 6.21955 14.0878 6.17368 14.143 5.93489C14.1981 5.69611 14.4122 5.73286 14.4122 5.73286L15.2878 6.18499ZM13.9536 6.93826L14.9085 7.19405L14.2034 6.50569C14.2034 6.50569 14.0093 6.40793 13.8868 6.62016C13.7643 6.8324 13.9536 6.93826 13.9536 6.93826ZM14.2602 8.04232L13.4219 7.51854C13.4219 7.51854 13.2717 7.36194 13.4509 7.1948C13.6302 7.02767 13.7872 7.17789 13.7872 7.17789L14.2602 8.04232ZM12.7518 7.90863L13.4004 8.65464L13.2007 7.68967C13.2007 7.68967 13.0945 7.50012 12.8743 7.60755C12.654 7.71498 12.7518 7.90863 12.7518 7.90863ZM12.4052 8.97674L12.0031 8.07371C12.0031 8.07371 11.9662 7.85992 12.2082 7.82158C12.4503 7.78324 12.4964 7.99557 12.4964 7.99557L12.4052 8.97674ZM11.2494 7.99557L11.3527 8.97867L11.7427 8.07371C11.7427 8.07371 11.7644 7.85752 11.5224 7.81918C11.2803 7.78085 11.2494 7.99557 11.2494 7.99557ZM10.3565 8.66006L10.545 7.68969C10.545 7.68969 10.6374 7.4934 10.8577 7.60083C11.078 7.70826 10.994 7.90865 10.994 7.90865L10.3565 8.66006ZM9.9586 7.17791L9.49457 8.05075L10.3239 7.51856C10.3239 7.51856 10.4628 7.35148 10.2836 7.18435C10.1043 7.01721 9.9586 7.17791 9.9586 7.17791ZM8.84342 7.20475L9.54236 6.50572C9.54236 6.50572 9.72872 6.39465 9.85126 6.60689C9.97379 6.81912 9.7921 6.93829 9.7921 6.93829L8.84342 7.20475ZM9.33348 5.7329L8.4607 6.19703L9.44584 6.21958C9.44584 6.21958 9.65443 6.15874 9.5993 5.91996C9.54418 5.68117 9.33348 5.7329 9.33348 5.7329ZM8.38034 5.1169L9.35069 4.92822C9.35069 4.92822 9.5673 4.94035 9.5502 5.18482C9.53311 5.42929 9.31584 5.42649 9.31584 5.42649L8.38034 5.1169ZM9.59256 4.16334L8.60945 4.06007L9.41356 4.62965C9.41356 4.62965 9.62051 4.69585 9.70833 4.46706C9.79616 4.23827 9.59256 4.16334 9.59256 4.16334ZM9.134 3.11214L10.0371 3.51415C10.0371 3.51415 10.2076 3.64833 10.0533 3.83878C9.89911 4.02924 9.72275 3.90232 9.72275 3.90232L9.134 3.11214ZM10.6437 3.0232L9.89759 2.37472L10.2296 3.3025C10.2296 3.3025 10.3611 3.47544 10.5643 3.3384C10.7675 3.20135 10.6437 3.0232 10.6437 3.0232ZM10.8362 1.9036L11.3601 2.74188C11.3601 2.74188 11.4264 2.94845 11.192 3.0201C10.9577 3.09175 10.8824 2.88791 10.8824 2.88791L10.8362 1.9036Z" fill="#FFE402"/>
<path fill-rule="evenodd" clip-rule="evenodd" d="M7.63809 6.66996C7.62955 6.63712 7.62173 6.60508 7.61464 6.57382L7.65838 6.66186L7.63809 6.66996ZM7.69808 6.87627C7.67517 6.80429 7.65517 6.73555 7.63809 6.66996L7.37026 6.7769L7.40994 6.87627H7.38106L7.36987 6.88183C7.35383 6.8002 7.34576 6.72284 7.34576 6.64943V6.0325L7.61464 6.57382C7.58057 6.42343 7.56346 6.29113 7.56346 6.17582V5.4067L7.87462 6.18602L7.57915 6.2785L7.69524 6.64943H7.68951L7.65838 6.66186L7.76855 6.88366L7.8748 7.22315C7.7754 7.04066 7.72481 6.91953 7.72481 6.87627H7.69808ZM8.04001 7.7429C7.89147 7.41313 7.77735 7.12533 7.69808 6.87627H7.40994L7.70274 7.60959L7.5943 7.49391C7.48078 7.26651 7.40558 7.0636 7.36987 6.88183L7.13153 7.00022L7.08407 6.94959V7.02379L7.07319 7.02919L7.08407 7.05109V7.135C7.05282 7.03744 7.03731 6.95192 7.03731 6.87627V5.41154L7.34576 6.0325V4.86147L7.56346 5.4067V3.92664L8.43269 6.70395L8.37157 6.72385C8.29095 6.48294 8.25096 6.29863 8.25096 6.17582H7.90721L7.87462 6.18602L8.12184 6.8052L8.06217 6.82464C8.04282 6.75599 8.03326 6.69739 8.03326 6.64943H7.69524L7.76855 6.88366L8.15243 7.65648L8.13652 7.66253C8.02815 7.49227 7.94074 7.34421 7.8748 7.22315L8.02552 7.70472L8.13652 7.66253L8.15198 7.68675L8.04001 7.7429ZM8.15919 7.69799L8.04017 7.74324L8.04001 7.7429L7.89559 7.81534L7.70274 7.60959L7.7946 7.83968C7.7835 7.83049 7.77677 7.82414 7.77366 7.82107C7.70596 7.7067 7.64613 7.59775 7.5943 7.49391L7.13153 7.00022L7.08407 7.02379V7.05109L7.46549 7.81895H7.42782L7.42527 7.82134C7.25564 7.54119 7.14242 7.31712 7.08407 7.135V7.63716L5.71866 6.66443L7.45757 8.73393C8.01328 9.39529 8.698 9.90346 9.50803 10.2566L7.93341 10.2232L9.53381 10.6748L8.70587 11.2841L10.1359 10.8448L10.5259 10.9548C11.0506 11.1029 11.3428 11.2515 11.3619 11.2967L11.4356 11.4708L11.6221 11.5018C12.0307 11.5697 12.7846 11.4638 13.7558 11.2486C14.0859 11.1754 14.4171 11.0939 14.6734 11.0248C14.7808 10.9958 14.8648 10.9716 14.9122 10.9561L14.9303 10.95C14.9364 10.9478 14.9425 10.9454 14.9565 10.9401L14.9566 10.94L14.9679 10.9354C14.9758 10.9319 14.9834 10.9277 15.0094 10.9136L15.0094 10.9136C15.0408 10.9093 15.0638 10.9061 15.0792 10.8936C15.122 10.8589 15.1063 10.7522 15.0472 10.35L15.0472 10.3499L15.0472 10.3499C14.7764 10.2774 14.7387 10.2673 14.7285 10.2797C14.7269 10.2818 14.726 10.2844 14.7249 10.2874C14.632 10.3066 14.4871 10.3045 14.2941 10.2796C15.9102 9.4849 16.9718 8.68866 17.4804 7.86937L18.4108 6.37081L17.8471 6.78198L18.0502 6.12914L17.247 6.64535C17.3504 6.50819 17.4303 6.37166 17.4868 6.23521L18.0918 4.77289L17.1371 5.66357L17.655 3.95656L16.4261 5.6028L11.3951 9.30509L11.3167 9.2869C10.0782 8.99976 9.20849 8.1249 8.69092 6.61983L8.43269 6.70395L8.43604 6.71466L8.37515 6.73449L8.37157 6.72385L8.12184 6.8052L8.12601 6.81565L8.06526 6.83543L8.06217 6.82464L8.03731 6.83274C8.12092 7.10439 8.21216 7.35895 8.31102 7.59619L8.15243 7.65648L8.16438 7.68053L8.15198 7.68675L8.15919 7.69799ZM8.17085 7.69356L8.15919 7.69799L8.18377 7.73611L7.93723 7.85976L7.89559 7.81534L7.81495 7.85578C7.80698 7.84972 7.80023 7.84434 7.7946 7.83968L7.80336 7.8616L7.81495 7.85578C7.82903 7.86648 7.84693 7.87928 7.8692 7.89388L7.82953 7.91378C7.81034 7.88248 7.79172 7.85158 7.77366 7.82107L7.77157 7.81895H7.46549L7.53463 7.95814L7.48971 7.92613C7.46739 7.89036 7.44591 7.85543 7.42527 7.82134L7.38958 7.8548L7.08407 7.63716V7.81895C7.08407 8.14433 7.31302 8.39029 7.70629 8.59239L7.5213 8.79276L9.57815 10.2581L9.50803 10.2566C9.57539 10.286 9.64361 10.3142 9.7127 10.3415L9.89125 10.4118L9.53381 10.6748L10.1359 10.8448L10.6159 10.6973L12.3243 11.3703L11.7733 10.9778C11.8405 10.9772 11.9058 10.9764 11.9693 10.9753C11.9424 10.9259 11.9082 10.8793 11.8666 10.8348C11.8159 10.8334 11.7719 10.8297 11.7349 10.8236L11.716 10.937L11.1404 10.5269C11.3607 10.4509 11.5747 10.3713 11.7822 10.288C12.6348 10.2788 13.1458 10.2331 13.2217 10.1769L13.3533 10.0793L13.5119 10.12C13.6647 10.1592 13.8055 10.1919 13.9336 10.2181L14.0426 10.4012C14.1279 10.3607 14.2117 10.3202 14.2941 10.2796C14.2737 10.277 14.2527 10.2741 14.2312 10.271L17.391 7.96577L17.1266 7.7204C17.4611 7.54814 17.6791 7.32214 17.7696 7.03111L17.8471 6.78198L17.5066 7.03043L17.4414 6.929L17.1132 6.82689C17.0828 6.92441 16.984 7.02198 16.8088 7.11155C16.9845 6.95486 17.1306 6.79971 17.247 6.64535L16.7507 6.96424L17.4036 6.35514L16.9963 6.0727C17.0317 5.99251 17.0613 5.91339 17.085 5.8353L17.1371 5.66357L16.907 5.87821L16.5649 5.70531L16.7231 5.38429L16.4261 5.6028L15.7229 6.54494L15.4835 6.34446C14.8411 7.64784 13.6851 8.68268 12.0037 9.44619L11.3951 9.30509L11.2213 9.43302L11.239 9.27802C10.0927 9.27802 9.24759 8.42796 8.69439 6.63051L8.43604 6.71466L8.68164 7.49938L8.43625 7.59266L8.42097 7.55439L8.667 7.46086C8.5409 7.18094 8.44374 6.93786 8.37515 6.73449L8.12601 6.81565L8.42097 7.55439L8.39989 7.5624L8.41567 7.55449C8.23283 7.2562 8.1172 7.01322 8.06526 6.83543L8.04078 6.84341C8.13103 7.10583 8.2319 7.35271 8.34335 7.5839L8.31102 7.59619L8.31477 7.6051L8.16438 7.68053L8.17085 7.69356ZM8.32699 7.6342L8.17085 7.69356L8.19035 7.73281L8.18377 7.73611L8.20736 7.77237L7.97823 7.90349L7.93723 7.85976L7.8692 7.89388C7.88661 7.90529 7.90669 7.9178 7.92971 7.93126L7.6897 8.06861L7.53463 7.95814L7.61168 8.11325L7.6897 8.06861L7.72589 8.0944L7.63173 8.14828C7.5811 8.07077 7.53377 7.99678 7.48971 7.92613L7.38958 7.8548L7.17703 8.05404L7.61805 8.52452L7.86884 8.28944L7.90373 8.22109L9.02411 9.01926L9.4384 9.46123C8.87439 9.16475 8.39028 8.77526 7.98393 8.29166L7.70629 8.59239L7.71255 8.5956L9.46604 9.49072L9.4384 9.46123C9.6067 9.54969 9.78212 9.62988 9.9647 9.70181L9.66191 10.2599L9.57815 10.2581L9.63925 10.3016L9.66191 10.2599L10.0855 10.2688L9.89125 10.4118L10.6159 10.6973L10.6413 10.6895C10.8112 10.6373 10.9775 10.5831 11.1404 10.5269L11.0156 10.438L11.2183 10.2888C11.42 10.2902 11.6082 10.2898 11.7822 10.288C12.0363 10.186 12.2807 10.0785 12.5156 9.96552H13.7833L13.9336 10.2181C13.9624 10.224 13.9906 10.2296 14.0182 10.2348L14.0977 10.3684L14.2312 10.271C14.1652 10.2614 14.0941 10.2493 14.0182 10.2348L13.8579 9.96552H14.2436L13.7961 9.86176L13.7476 9.7802C15.0773 9.14847 16.0176 8.52804 16.5676 7.93202C16.7798 7.87296 16.9665 7.80283 17.1266 7.7204L17.0117 7.61377L17.6272 7.21819L17.5066 7.03043L16.469 7.78742L16.3392 7.48454C16.5141 7.35901 16.6706 7.2348 16.8088 7.11155C16.7106 7.16174 16.5885 7.20941 16.441 7.25316L16.7507 6.96424L15.8101 7.56871C16.3964 7.02761 16.7929 6.53248 16.9963 6.0727L16.9548 6.04394L17.0315 5.94112L16.907 5.87821L16.116 6.61615L16.5649 5.70531L16.4271 5.63569C16.343 5.91284 16.1342 6.2392 15.7986 6.6084L15.7229 6.54494L15.299 7.11281L15.4047 7.20809L12.2772 9.5096L12.0037 9.44619C11.7423 9.56489 11.4682 9.67704 11.1813 9.78262L11.2213 9.43302L10.6952 9.82019C9.68631 9.45946 8.90969 8.72793 8.37167 7.64186L8.44184 7.60667L8.43625 7.59266L8.36144 7.6211L8.34603 7.58942L8.39989 7.5624L8.34335 7.5839L8.34603 7.58942L8.31477 7.6051L8.32699 7.6342ZM8.33754 7.65898L8.19035 7.73281L8.2274 7.80741L8.0066 7.93376L7.97823 7.90349L7.92971 7.93126C7.94241 7.93869 7.95601 7.94641 7.97055 7.95439L7.72589 8.0944L7.90373 8.22109L8.02513 7.98327C8.00562 7.97331 7.98745 7.96367 7.97055 7.95439L8.0066 7.93376L9.02411 9.01926L10.4262 10.0181L10.0855 10.2688L10.5636 10.279L10.7441 10.6378L11.0156 10.438L10.7989 10.2837C10.9445 10.2862 11.0844 10.2879 11.2183 10.2888L11.6576 9.96552H12.5156C12.7001 9.87678 12.8787 9.78464 13.0514 9.68911L13.7096 9.8417L13.7833 9.96552H13.8579L13.7961 9.86176L13.7096 9.8417L13.6925 9.81299L16.1177 8.04372L16.423 7.9696C16.4724 7.95761 16.5206 7.94508 16.5676 7.93202C16.5914 7.90617 16.6145 7.88036 16.6369 7.8546L17.0117 7.61377L16.8963 7.50677C16.825 7.62168 16.7385 7.73766 16.6369 7.8546L16.5278 7.92474L16.469 7.78742L16.1177 8.04372L14.8725 8.34593C15.0119 8.20727 15.1438 8.0643 15.2681 7.91701L15.6666 7.66092L15.8026 7.83945C15.9973 7.71979 16.1762 7.60159 16.3392 7.48454L16.2975 7.38706L16.441 7.25316C16.3847 7.26987 16.3247 7.28601 16.2609 7.3015L16.2975 7.38706L15.8571 7.7979L15.7245 7.62373L15.807 7.57071L15.8075 7.57114L15.8101 7.56871L15.807 7.57071L15.6446 7.42437C15.6567 7.40681 15.6687 7.38919 15.6807 7.37152L15.8499 7.52406L16.9548 6.04394L16.8515 5.97236C16.7398 6.24246 16.4448 6.55811 15.9654 6.90631C16.0123 6.82146 16.0572 6.73548 16.1001 6.64836L16.116 6.61615L15.9703 6.75212L15.7986 6.6084C15.6661 6.75428 15.5137 6.90686 15.3414 7.06574L15.4568 7.16974L15.4047 7.20809L15.4438 7.24331L15.3881 7.29519L15.5686 7.53221C15.4739 7.66359 15.3737 7.79186 15.2681 7.91701L14.4356 8.45197L14.8725 8.34593C14.3651 8.85068 13.7577 9.29834 13.0514 9.68911L12.2772 9.5096L11.6576 9.96552H11.239C11.0766 9.96552 10.9191 9.95286 10.7667 9.92767C10.809 9.91363 10.8509 9.89946 10.8927 9.88516C10.9806 9.91165 11.0702 9.93548 11.1614 9.95663L11.1813 9.78262C11.0865 9.81752 10.9903 9.8517 10.8927 9.88516C10.8259 9.86504 10.7601 9.84338 10.6952 9.82019L10.5954 9.89359C9.62723 9.66757 8.87349 8.91125 8.33754 7.65898ZM8.33754 7.65898L8.37167 7.64186L8.36144 7.6211L8.32699 7.6342L8.33754 7.65898ZM10.4441 10.0309L10.4262 10.0181L10.5954 9.89359C10.6518 9.90675 10.7089 9.91812 10.7667 9.92767C10.6608 9.9629 10.5533 9.9973 10.4441 10.0309ZM15.6103 7.47372L15.6446 7.42437L15.4501 7.24907L15.5062 7.2143L15.6807 7.37152C15.7825 7.22042 15.8775 7.06535 15.9654 6.90631C15.8276 7.00639 15.6745 7.10915 15.5062 7.2143L15.4903 7.19992L15.7685 6.94036L15.9955 6.77327L15.9703 6.75212L15.7685 6.94036L15.4568 7.16974L15.4903 7.19992L15.4438 7.24331L15.4501 7.24907L15.4427 7.25365L15.6103 7.47372ZM15.6103 7.47372L15.7245 7.62373L15.6666 7.66092L15.5686 7.53221C15.5826 7.51278 15.5965 7.49328 15.6103 7.47372ZM10.4441 10.0309L10.7989 10.2837C10.7423 10.2827 10.6848 10.2816 10.6265 10.2803L10.5636 10.279L10.4394 10.0323L10.4441 10.0309ZM11.716 10.937L11.7092 10.9782L11.7733 10.9778L11.716 10.937ZM13.6312 10.729L13.5311 10.594C13.4808 10.605 13.4311 10.6156 13.3821 10.6259L13.341 10.7859C13.3811 10.7962 13.4206 10.8061 13.4594 10.8157C13.5306 10.7902 13.5877 10.7614 13.6312 10.729Z" fill="#FFE402"/>
</g>
</g>
<rect width="20" height="15" fill="url(#paint0_linear)" style="mix-blend-mode:overlay"/>
<defs>
<linearGradient id="paint0_linear" x1="10" y1="0" x2="10" y2="15" gradientUnits="userSpaceOnUse">
<stop stop-color="white" stop-opacity="0.7"/>
<stop offset="1" stop-opacity="0.3"/>
</linearGradient>
</defs>
</svg>
