<svg width="60" height="32" viewBox="0 0 60 32" fill="none" xmlns="http://www.w3.org/2000/svg">
<g clip-path="url(#clip0_742_2896)">
<path d="M41.6256 19.0239C39.9559 25.7203 33.1728 29.7957 26.4749 28.1258C19.7797 26.4562 15.704 19.6735 17.3744 12.9775C19.0433 6.28028 25.8264 2.20454 32.5224 3.87406C39.2199 5.54357 43.2953 12.3271 41.6256 19.0239Z" fill="#50AF95"/>
<path fill-rule="evenodd" clip-rule="evenodd" d="M30.9559 17.2917C30.8663 17.2984 30.4032 17.3262 29.3702 17.3262C28.5486 17.3262 27.9653 17.3014 27.7607 17.2917C24.5856 17.1515 22.2157 16.5967 22.2157 15.9325C22.2157 15.2683 24.5856 14.7143 27.7607 14.5719V16.7392C27.9683 16.7542 28.5628 16.7894 29.3844 16.7894C30.3703 16.7894 30.8641 16.7482 30.9529 16.7399V14.5734C34.1213 14.7151 36.486 15.2698 36.486 15.9325C36.486 16.5952 34.122 17.15 30.9529 17.2909L30.9559 17.2917ZM30.9559 14.3492V12.4098H35.3776V9.45239H23.339V12.4098H27.7599V14.3485C24.1666 14.5142 21.4643 15.2286 21.4643 16.0847C21.4643 16.9408 24.1666 17.6545 27.7599 17.821V24.0357H30.9552V17.8187C34.5403 17.653 37.2381 16.9394 37.2381 16.084C37.2381 15.2286 34.5425 14.5149 30.9552 14.3485L30.9559 14.3492Z" fill="white"/>
</g>
<defs>
<clipPath id="clip0_742_2896">
<rect width="25" height="25" fill="white" transform="translate(17 3.5)"/>
</clipPath>
</defs>
</svg>
