<svg width="60" height="32" viewBox="0 0 60 32" fill="none" xmlns="http://www.w3.org/2000/svg">
<g clip-path="url(#clip0_742_2911)">
<path d="M41.6256 19.0239C39.9559 25.7203 33.1728 29.7957 26.4749 28.1258C19.7797 26.4562 15.704 19.6735 17.3744 12.9775C19.0433 6.28028 25.8264 2.20454 32.5224 3.87406C39.2199 5.54357 43.2953 12.3271 41.6256 19.0239Z" fill="#F7931A"/>
<path d="M35.0117 14.2192C35.2605 12.5559 33.994 11.6618 32.2622 11.0653L32.824 8.8122L31.4523 8.47041L30.9054 10.6641C30.5448 10.5743 30.1745 10.4895 29.8065 10.4056L30.3573 8.19738L28.9865 7.85556L28.4243 10.1079C28.1258 10.0399 27.8329 9.97273 27.5485 9.90205L27.55 9.89499L25.6584 9.42273L25.2935 10.8876C25.2935 10.8876 26.3112 11.1208 26.2897 11.1352C26.8453 11.2739 26.9457 11.6415 26.9288 11.9329L26.289 14.4996C26.3272 14.5094 26.3769 14.5235 26.4316 14.5454C26.3858 14.534 26.337 14.5215 26.2866 14.5094L25.3896 18.1051C25.3217 18.2738 25.1494 18.527 24.7611 18.4309C24.7747 18.4508 23.7641 18.182 23.7641 18.182L23.0832 19.7519L24.8681 20.1968C25.2002 20.2801 25.5256 20.3672 25.8459 20.4492L25.2783 22.7281L26.6484 23.0699L27.2105 20.8152C27.5848 20.9168 27.9481 21.0105 28.3036 21.0988L27.7434 23.3429L29.115 23.6847L29.6827 21.4101C32.0215 21.8527 33.7803 21.6742 34.5206 19.559C35.1171 17.8559 34.4909 16.8734 33.2603 16.2328C34.1565 16.0262 34.8316 15.4368 35.0117 14.2192ZM31.8778 18.6133C31.4539 20.3164 28.586 19.3957 27.6563 19.1648L28.4095 16.1457C29.3393 16.3777 32.3208 16.8371 31.8778 18.6133ZM32.302 14.1946C31.9153 15.7438 29.5283 14.9567 28.754 14.7637L29.4369 12.0255C30.2112 12.2184 32.7048 12.5786 32.302 14.1946Z" fill="white"/>
</g>
<defs>
<clipPath id="clip0_742_2911">
<rect width="25" height="25" fill="white" transform="translate(17 3.5)"/>
</clipPath>
</defs>
</svg>
