<svg width="60" height="32" viewBox="0 0 60 32" fill="none" xmlns="http://www.w3.org/2000/svg">
<g clip-path="url(#clip0_1022_4019)">
<path d="M28.019 12.1602V12.8059C27.4001 12.2927 26.6029 11.9939 25.7078 11.9939C23.5595 11.9939 21.8342 13.8147 21.8342 16.1816C21.8342 17.2748 22.2244 18.2675 22.8434 18.9951C23.5434 19.8232 24.6497 20.3525 25.8218 20.3525C26.6198 20.3525 27.368 20.1043 28.019 19.5421V20.1879H30.0533V12.1602H28.019ZM27.9371 17.3744C27.5301 17.9695 26.83 18.367 26.0329 18.367C24.8447 18.367 23.9496 17.4402 23.9496 16.1825C23.9496 15.0243 24.7468 13.981 25.9838 13.981C26.798 13.981 27.4971 14.3777 27.9371 14.9745V17.3744ZM38.8795 18.5494C37.9515 19.8072 36.7802 20.3533 35.299 20.3533C32.8577 20.3533 31.0675 18.5004 31.0675 16.1825C31.0675 13.8484 32.9067 11.9939 35.3151 11.9939C36.6823 11.9939 37.9025 12.6396 38.6355 13.6003L37.1383 14.9399C36.7152 14.3777 36.0802 13.981 35.3159 13.981C34.0957 13.981 33.1846 14.9568 33.1846 16.1833C33.1846 17.4402 34.0796 18.367 35.3649 18.367C36.2279 18.367 36.9111 17.8378 37.2531 17.3085L38.8795 18.5494ZM45.1732 20.1887C44.8963 20.2875 44.2612 20.3533 43.855 20.3533C42.585 20.3533 41.6578 19.9228 41.1207 19.1952C40.7145 18.649 40.5355 17.9366 40.5355 16.7945V13.981H39.2148V12.1602H40.5355V9.92575H42.6508V12.1602H45.1741V13.981H42.6508V17.0435C42.6508 17.5398 42.7328 17.8378 42.9118 18.053C43.1229 18.3013 43.465 18.4498 43.9859 18.4498C44.295 18.4498 44.702 18.4 44.849 18.367L45.1732 20.1887ZM46.6384 12.1602H48.7537V20.1887H46.6384V12.1602ZM58.3982 12.1602L54.7688 20.1887H53.3045L49.6742 12.1602H51.8715L54.0367 17.0595L56.201 12.1602H58.3982Z" fill="white"/>
<path d="M19.5291 14.1464C19.5291 14.219 19.4708 14.2772 19.3983 14.2772C19.3256 14.2772 19.2673 14.219 19.2673 14.1464C19.2673 14.0747 19.3256 14.0156 19.3983 14.0156C19.4708 14.0164 19.5291 14.0747 19.5291 14.1464Z" fill="white"/>
<path d="M19.0875 11.0443C19.0157 11.0443 18.9565 11.1025 18.9565 11.1751C18.9565 11.2469 19.0148 11.306 19.0875 11.306C19.1592 11.306 19.2183 11.2477 19.2183 11.1751C19.2183 11.1025 19.1592 11.0443 19.0875 11.0443Z" fill="white"/>
<path d="M7.64752 9.14155C7.64752 9.0698 7.58926 9.01071 7.51664 9.01071C7.44401 9.01071 7.38574 9.06896 7.38574 9.14155C7.38574 9.2133 7.44401 9.27239 7.51664 9.27239C7.58841 9.27239 7.64752 9.21415 7.64752 9.14155Z" fill="white"/>
<path d="M14.2039 10.0591C14.2756 10.0591 14.3348 10.0009 14.3348 9.92827C14.3348 9.85651 14.2765 9.79742 14.2039 9.79742C14.1321 9.79742 14.073 9.85651 14.073 9.92827C14.073 10.0009 14.1313 10.0591 14.2039 10.0591Z" fill="white"/>
<path d="M9.00548 10.0255C9.00548 9.95371 8.94635 9.89462 8.87457 9.89462C8.80278 9.89462 8.74365 9.95287 8.74365 10.0255C8.74365 10.0972 8.80192 10.1563 8.87457 10.1563C8.94635 10.1563 9.00548 10.0972 9.00548 10.0255Z" fill="white"/>
<path d="M18.9066 12.1914C18.9793 12.1914 19.0375 12.1331 19.0375 12.0605C19.0375 11.9888 18.9793 11.9297 18.9066 11.9297C18.834 11.9297 18.7749 11.9879 18.7749 12.0605C18.7749 12.1331 18.834 12.1914 18.9066 12.1914Z" fill="white"/>
<path d="M16.4028 13.1755C16.4028 13.8761 16.9712 14.4451 17.6721 14.4451C18.3738 14.4451 18.9421 13.877 18.9421 13.1755C18.9421 12.474 18.3729 11.9059 17.6721 11.9059C16.9703 11.9068 16.4028 12.4749 16.4028 13.1755Z" fill="white"/>
<path d="M17.0481 11.2907C17.0481 11.5794 17.282 11.8132 17.5708 11.8132C17.8605 11.8132 18.0944 11.5785 18.0944 11.2907C18.0944 11.002 17.8605 10.7673 17.5708 10.7673C17.282 10.7673 17.0481 11.002 17.0481 11.2907Z" fill="white"/>
<path d="M16.9181 11.8437C16.9181 11.7711 16.8598 11.7128 16.7872 11.7128C16.7154 11.7128 16.6562 11.7711 16.6562 11.8437C16.6562 11.9154 16.7145 11.9745 16.7872 11.9745C16.8598 11.9745 16.9181 11.9154 16.9181 11.8437Z" fill="white"/>
<path d="M16.8141 10.2922C16.8192 10.4365 16.9408 10.5488 17.0851 10.5446C17.2296 10.5395 17.3427 10.4188 17.3377 10.2744C17.3326 10.1301 17.2119 10.017 17.0666 10.022C16.9222 10.0271 16.809 10.1478 16.8141 10.2922Z" fill="white"/>
<path d="M16.8139 9.57711C16.8866 9.57711 16.9457 9.51887 16.9457 9.44627C16.9457 9.37452 16.8875 9.31543 16.8139 9.31543C16.7414 9.31543 16.6831 9.37367 16.6831 9.44627C16.6831 9.51887 16.7414 9.57711 16.8139 9.57711Z" fill="white"/>
<path d="M16.3699 11.2501C16.3699 11.3944 16.4872 11.5117 16.6308 11.5117C16.7752 11.5117 16.8926 11.3944 16.8926 11.2501C16.8926 11.1057 16.7743 10.9892 16.6308 10.9892C16.4864 10.9892 16.3699 11.1057 16.3699 11.2501Z" fill="white"/>
<path d="M14.3635 10.4973C14.3635 11.0747 14.8322 11.5431 15.4098 11.5431C15.9874 11.5431 16.4561 11.0747 16.4561 10.4973C16.4561 9.91988 15.9874 9.45139 15.4098 9.45139C14.8322 9.45139 14.3635 9.91988 14.3635 10.4973Z" fill="white"/>
<path d="M15.126 8.99477C15.1978 8.99477 15.2569 8.93653 15.2569 8.86394C15.2569 8.79218 15.1986 8.73309 15.126 8.73309C15.0543 8.73309 14.9951 8.79134 14.9951 8.86394C14.9951 8.93568 15.0534 8.99477 15.126 8.99477Z" fill="white"/>
<path d="M14.5281 9.61012C14.6725 9.60505 14.7848 9.48435 14.7797 9.34C14.7747 9.19565 14.6539 9.08254 14.5095 9.08845C14.3651 9.09351 14.2519 9.21422 14.257 9.35857C14.2621 9.50292 14.3829 9.61518 14.5281 9.61012Z" fill="white"/>
<path d="M12.9888 8.9407C12.9888 9.22939 13.2227 9.46322 13.5115 9.46322C13.8012 9.46322 14.0351 9.22855 14.0351 8.9407C14.0351 8.652 13.8012 8.41818 13.5115 8.41818C13.2227 8.41818 12.9888 8.652 12.9888 8.9407Z" fill="white"/>
<path d="M13.0665 7.63396C13.1382 7.63396 13.1973 7.57572 13.1973 7.50312C13.1973 7.43137 13.139 7.37228 13.0665 7.37228C12.9947 7.37228 12.9355 7.43053 12.9355 7.50312C12.9355 7.57488 12.9938 7.63396 13.0665 7.63396Z" fill="white"/>
<path d="M13.0276 9.87255C13.1145 9.87255 13.1847 9.80249 13.1847 9.71554C13.1847 9.6286 13.1145 9.55853 13.0276 9.55853C12.9397 9.55853 12.8696 9.6286 12.8696 9.71554C12.8696 9.80164 12.9397 9.87255 13.0276 9.87255Z" fill="white"/>
<path d="M17.1805 17.2554C17.1087 17.2554 17.0496 17.3136 17.0496 17.3862C17.0496 17.4579 17.1078 17.517 17.1805 17.517C17.2523 17.517 17.3114 17.4588 17.3114 17.3862C17.3114 17.3136 17.2531 17.2554 17.1805 17.2554Z" fill="white"/>
<path d="M10.1404 9.82188C10.1404 10.5436 10.7256 11.1294 11.4485 11.1294C12.1705 11.1294 12.7565 10.5445 12.7565 9.82188C12.7565 9.10015 12.1713 8.51517 11.4485 8.51517C10.7256 8.51432 10.1404 9.10015 10.1404 9.82188Z" fill="white"/>
<path d="M12.2456 8.47879C12.3908 8.47373 12.503 8.35302 12.498 8.20867C12.4929 8.06432 12.3722 7.95121 12.2278 7.95628C12.0825 7.96134 11.9702 8.08206 11.9753 8.2264C11.9803 8.37159 12.102 8.48386 12.2456 8.47879Z" fill="white"/>
<path d="M11.6985 7.63396C11.7711 7.63396 11.8303 7.57572 11.8303 7.50312C11.8303 7.43137 11.7719 7.37228 11.6985 7.37228C11.6267 7.37228 11.5676 7.43053 11.5676 7.50312C11.5676 7.57488 11.6267 7.63396 11.6985 7.63396Z" fill="white"/>
<path d="M10.4106 8.81475C10.4824 8.81475 10.5415 8.75651 10.5415 8.68391C10.5415 8.61216 10.4833 8.55307 10.4106 8.55307C10.3388 8.55307 10.2798 8.61131 10.2798 8.68391C10.2798 8.75566 10.3381 8.81475 10.4106 8.81475Z" fill="white"/>
<path d="M10.0982 10.7361C10.17 10.7361 10.2291 10.6779 10.2291 10.6053C10.2291 10.5335 10.1709 10.4744 10.0982 10.4744C10.0256 10.4744 9.96729 10.5327 9.96729 10.6053C9.96729 10.677 10.0256 10.7361 10.0982 10.7361Z" fill="white"/>
<path d="M9.66994 9.4395C9.95874 9.4395 10.1927 9.20568 10.1927 8.91698C10.1927 8.6283 9.95874 8.39447 9.66994 8.39447C9.38115 8.39447 9.14722 8.6283 9.14722 8.91698C9.14642 9.20568 9.38115 9.4395 9.66994 9.4395Z" fill="white"/>
<path d="M8.9024 8.99053C8.97498 8.99053 9.03324 8.93229 9.03324 8.85969C9.03324 8.78709 8.97498 8.72885 8.9024 8.72885C8.83062 8.72885 8.77148 8.78709 8.77148 8.85969C8.77148 8.93229 8.83062 8.99053 8.9024 8.99053Z" fill="white"/>
<path d="M8.83727 9.60333C8.98163 9.60333 9.09903 9.48684 9.09903 9.34249C9.09903 9.19814 8.98163 9.08081 8.83727 9.08081C8.69284 9.08081 8.57544 9.19814 8.57544 9.34249C8.57544 9.48599 8.69284 9.60333 8.83727 9.60333Z" fill="white"/>
<path d="M10.2939 11.3903C10.4459 11.3903 10.5692 11.267 10.5692 11.1143C10.5692 10.9623 10.4459 10.8382 10.2939 10.8382C10.1419 10.8382 10.0178 10.9615 10.0178 11.1143C10.0178 11.2662 10.1419 11.3903 10.2939 11.3903Z" fill="white"/>
<path d="M9.97922 9.86168C9.97922 9.70973 9.85597 9.58649 9.70307 9.58649C9.55025 9.58649 9.427 9.70973 9.427 9.86168C9.427 10.0136 9.55025 10.1377 9.70307 10.1377C9.8551 10.1377 9.97922 10.0136 9.97922 9.86168Z" fill="white"/>
<path d="M10.6016 11.4512C10.6016 11.566 10.6952 11.6597 10.811 11.6597C10.9258 11.6597 11.0195 11.566 11.0195 11.4512C11.0195 11.3355 10.9258 11.2419 10.811 11.2419C10.6952 11.2419 10.6016 11.3355 10.6016 11.4512Z" fill="white"/>
<path d="M8.02673 8.8453C8.3155 8.8453 8.54943 8.61063 8.54943 8.32278C8.54943 8.03409 8.31471 7.80026 8.02673 7.80026C7.73793 7.80026 7.50317 8.03409 7.50317 8.32278C7.50317 8.61063 7.73793 8.8453 8.02673 8.8453Z" fill="white"/>
<path d="M7.30292 7.82572C7.44732 7.82066 7.56048 7.6991 7.55541 7.55476C7.55035 7.41041 7.42874 7.29814 7.28434 7.3032C7.13994 7.30827 7.02678 7.42898 7.03269 7.57333C7.03776 7.71767 7.15852 7.83079 7.30292 7.82572Z" fill="white"/>
<path d="M6.87992 7.26168C6.95254 7.26168 7.0108 7.20344 7.0108 7.13084C7.0108 7.05909 6.95254 7 6.87992 7C6.8073 7 6.74902 7.05825 6.74902 7.13084C6.74902 7.20344 6.8073 7.26168 6.87992 7.26168Z" fill="white"/>
<path d="M6.5057 9.81697C6.93974 9.81697 7.29104 9.46581 7.29104 9.03277C7.29104 8.59972 6.93974 8.24857 6.5057 8.24857C6.07249 8.24857 5.72119 8.59972 5.72119 9.03277C5.72119 9.46581 6.07249 9.81697 6.5057 9.81697Z" fill="white"/>
<path d="M5.93412 8.08631C6.00674 8.08631 6.065 8.02807 6.065 7.95631C6.065 7.88456 6.00674 7.82547 5.93412 7.82547C5.86233 7.82547 5.80322 7.88372 5.80322 7.95631C5.80322 8.02807 5.8615 8.08631 5.93412 8.08631Z" fill="white"/>
<path d="M5.48149 9.11294C5.55326 9.11294 5.61238 9.05469 5.61238 8.9821C5.61238 8.91035 5.55411 8.85126 5.48149 8.85126C5.40887 8.85126 5.35059 8.9095 5.35059 8.9821C5.34975 9.05469 5.40887 9.11294 5.48149 9.11294Z" fill="white"/>
<path d="M3.47437 10.3057C3.47437 11.0114 4.0469 11.5828 4.75202 11.5828C5.45799 11.5828 6.03052 11.0114 6.03052 10.3057C6.03052 9.59997 5.45799 9.02765 4.75202 9.02765C4.0469 9.02765 3.47437 9.59997 3.47437 10.3057Z" fill="white"/>
<path d="M3.63312 9.18465C3.77752 9.18465 3.89406 9.06732 3.89406 8.92297C3.89406 8.77863 3.77667 8.66129 3.63312 8.66129C3.48872 8.66129 3.37134 8.77863 3.37134 8.92297C3.3705 9.06816 3.48787 9.18465 3.63312 9.18465Z" fill="white"/>
<path d="M3.2419 11.2966C3.3863 11.2966 3.50368 11.1793 3.50368 11.0349C3.50368 10.8906 3.3863 10.7741 3.2419 10.7741C3.0975 10.7741 2.98096 10.8914 2.98096 11.0349C2.98012 11.1793 3.0975 11.2966 3.2419 11.2966Z" fill="white"/>
<path d="M1.87988 11.3811C1.87988 11.6698 2.1138 11.9036 2.4026 11.9036C2.6914 11.9036 2.92532 11.6698 2.92532 11.3811C2.92532 11.0924 2.6914 10.8586 2.4026 10.8586C2.1138 10.8586 1.87988 11.0924 1.87988 11.3811Z" fill="white"/>
<path d="M10.5466 23.2529C10.316 23.2529 10.1294 23.4395 10.1294 23.67C10.1294 23.9004 10.316 24.0869 10.5466 24.0869C10.7762 24.0869 10.9637 23.9004 10.9637 23.67C10.9637 23.4395 10.7762 23.2529 10.5466 23.2529Z" fill="white"/>
<path d="M2.03717 10.4923C2.18157 10.4923 2.29895 10.375 2.29895 10.2306C2.29895 10.0863 2.18157 9.96979 2.03717 9.96979C1.89277 9.96979 1.77539 10.0871 1.77539 10.2306C1.77539 10.375 1.89277 10.4923 2.03717 10.4923Z" fill="white"/>
<path d="M2.11551 9.59237C2.18813 9.59237 2.2464 9.53412 2.2464 9.46153C2.2464 9.38893 2.18813 9.33069 2.11551 9.33069C2.04373 9.33069 1.98462 9.38893 1.98462 9.46153C1.98462 9.53412 2.04288 9.59237 2.11551 9.59237Z" fill="white"/>
<path d="M1.5927 12.3678C1.67546 12.3678 1.74302 12.3003 1.74302 12.2167C1.74302 12.134 1.67546 12.0665 1.5927 12.0665C1.50995 12.0665 1.44239 12.134 1.44239 12.2167C1.44155 12.3011 1.5091 12.3678 1.5927 12.3678Z" fill="white"/>
<path d="M1.52356 14.463C1.52356 14.3186 1.40618 14.2013 1.26178 14.2013C1.11738 14.2013 1 14.3186 1 14.463C1 14.6073 1.11738 14.7238 1.26178 14.7238C1.40703 14.7246 1.52356 14.6073 1.52356 14.463Z" fill="white"/>
<path d="M1.38336 18.0219C1.23896 18.0219 1.12158 18.1393 1.12158 18.2836C1.12158 18.428 1.23896 18.5453 1.38336 18.5453C1.52776 18.5453 1.64514 18.428 1.64514 18.2836C1.6443 18.1384 1.52776 18.0219 1.38336 18.0219Z" fill="white"/>
<path d="M2.51661 18.3595C2.22781 18.3595 1.9939 18.5933 1.9939 18.882C1.9939 19.1707 2.22866 19.4054 2.51661 19.4054C2.80541 19.4054 3.04017 19.1716 3.04017 18.882C3.04017 18.5933 2.80541 18.3595 2.51661 18.3595Z" fill="white"/>
<path d="M2.38578 20.2275C2.31399 20.2275 2.25488 20.2857 2.25488 20.3583C2.25488 20.43 2.31316 20.4892 2.38578 20.4892C2.45755 20.4892 2.51666 20.4309 2.51666 20.3583C2.51666 20.2857 2.4584 20.2275 2.38578 20.2275Z" fill="white"/>
<path d="M3.62623 19.0212C3.33743 19.0212 3.10352 19.2551 3.10352 19.5437C3.10352 19.8325 3.33743 20.0671 3.62623 20.0671C3.91503 20.0671 4.14895 19.8325 4.14895 19.5437C4.14979 19.2551 3.91503 19.0212 3.62623 19.0212Z" fill="white"/>
<path d="M3.78926 20.2967C3.64486 20.2967 3.52832 20.414 3.52832 20.5575C3.52832 20.7019 3.6457 20.8184 3.78926 20.8184C3.93366 20.8184 4.05104 20.701 4.05104 20.5575C4.05104 20.4132 3.93366 20.2967 3.78926 20.2967Z" fill="white"/>
<path d="M3.81616 18.3924C3.81616 18.7824 4.13199 19.0981 4.52212 19.0981C4.91226 19.0981 5.22809 18.7824 5.22809 18.3924C5.22809 18.0024 4.91226 17.6867 4.52212 17.6867C4.13199 17.6867 3.81616 18.0024 3.81616 18.3924Z" fill="white"/>
<path d="M4.77228 11.8613C4.77228 11.7887 4.71401 11.7304 4.64138 11.7304C4.56876 11.7304 4.5105 11.7887 4.5105 11.8613C4.5105 11.933 4.56876 11.9921 4.64138 11.9921C4.71317 11.9921 4.77228 11.9338 4.77228 11.8613Z" fill="white"/>
<path d="M8.2605 10.9075C8.2605 10.9792 8.31876 11.0383 8.39134 11.0383C8.46399 11.0383 8.52226 10.9792 8.52226 10.9075C8.52226 10.8349 8.46399 10.7766 8.39134 10.7766C8.31876 10.7766 8.2605 10.8357 8.2605 10.9075Z" fill="white"/>
<path d="M9.27812 9.75947C9.27812 9.68687 9.21985 9.62863 9.14727 9.62863C9.07549 9.62863 9.01636 9.68687 9.01636 9.75947C9.01636 9.83207 9.07462 9.89031 9.14727 9.89031C9.21898 9.89116 9.27812 9.83207 9.27812 9.75947Z" fill="white"/>
<path d="M9.41577 11.6124C9.41577 11.6842 9.47404 11.7424 9.54669 11.7424C9.61847 11.7424 9.6776 11.6842 9.6776 11.6124C9.6776 11.5407 9.61927 11.4816 9.54669 11.4816C9.47404 11.4824 9.41577 11.5407 9.41577 11.6124Z" fill="white"/>
<path d="M4.47751 17.5474C4.57463 17.5474 4.65316 17.4689 4.65316 17.3718C4.65316 17.2747 4.57378 17.1962 4.47751 17.1962C4.3804 17.1962 4.30103 17.2747 4.30103 17.3718C4.30187 17.4689 4.3804 17.5474 4.47751 17.5474Z" fill="white"/>
<path d="M4.38882 12.1349C4.38882 11.701 4.03753 11.3499 3.60432 11.3499C3.17112 11.3499 2.81982 11.701 2.81982 12.1349C2.81982 12.5679 3.17112 12.9191 3.60432 12.9191C4.03668 12.9191 4.38882 12.5679 4.38882 12.1349Z" fill="white"/>
<path d="M1.30493 15.3281C1.30493 15.6169 1.53884 15.8506 1.82765 15.8506C2.11645 15.8506 2.35036 15.6169 2.35036 15.3281C2.35036 15.0395 2.11645 14.8056 1.82765 14.8056C1.53884 14.8048 1.30493 15.0395 1.30493 15.3281Z" fill="white"/>
<path d="M2.6001 15.2725C2.6001 15.4177 2.71747 15.5342 2.86188 15.5342C3.00628 15.5342 3.12366 15.4177 3.12366 15.2725C3.12366 15.1282 3.00628 15.0117 2.86188 15.0117C2.71747 15.0117 2.6001 15.1291 2.6001 15.2725Z" fill="white"/>
<path d="M3.94293 13.1799C3.94293 13.1082 3.88467 13.0491 3.81204 13.0491C3.74026 13.0491 3.68115 13.1073 3.68115 13.1799C3.68115 13.2525 3.73942 13.3108 3.81204 13.3108C3.88467 13.3108 3.94293 13.2525 3.94293 13.1799Z" fill="white"/>
<path d="M3.46246 15.3855C3.60686 15.3855 3.72425 15.2682 3.72425 15.1247C3.72425 14.9804 3.60686 14.863 3.46246 14.863C3.31806 14.863 3.20068 14.9804 3.20068 15.1247C3.20068 15.2682 3.31806 15.3855 3.46246 15.3855Z" fill="white"/>
<path d="M3.69461 15.6954C3.76724 15.6954 3.8255 15.6372 3.8255 15.5646C3.8255 15.4928 3.76724 15.4337 3.69461 15.4337C3.62199 15.4337 3.56372 15.4928 3.56372 15.5646C3.56372 15.6372 3.62199 15.6954 3.69461 15.6954Z" fill="white"/>
<path d="M3.14062 18.5367C3.14062 18.681 3.258 18.7975 3.40156 18.7975C3.54596 18.7975 3.66334 18.6802 3.66334 18.5367C3.66334 18.3923 3.54596 18.275 3.40156 18.275C3.258 18.275 3.14062 18.3923 3.14062 18.5367Z" fill="white"/>
<path d="M2.95232 18.1856C3.6642 18.1856 4.24096 17.6082 4.24096 16.8966C4.24096 16.185 3.6642 15.6076 2.95232 15.6076C2.2396 15.6076 1.66284 16.185 1.66284 16.8966C1.66284 17.6082 2.24045 18.1856 2.95232 18.1856Z" fill="white"/>
<path d="M2.71681 12.4008C2.71681 12.2564 2.59943 12.1391 2.45503 12.1391C2.31063 12.1391 2.19409 12.2564 2.19409 12.4008C2.19409 12.5451 2.31147 12.6616 2.45503 12.6616C2.60027 12.6616 2.71681 12.5451 2.71681 12.4008Z" fill="white"/>
<path d="M3.73771 13.8914C3.73771 13.314 3.26903 12.8456 2.69143 12.8456C2.11382 12.8456 1.646 13.3149 1.646 13.8914C1.646 14.4688 2.11467 14.9373 2.69228 14.9373C3.26988 14.9373 3.73771 14.4688 3.73771 13.8914Z" fill="white"/>
<path d="M6.7483 20.3584C6.7483 19.6603 6.17576 19.0939 5.4698 19.0939C4.76383 19.0939 4.19214 19.6603 4.19214 20.3584C4.19214 21.0573 4.76468 21.6237 5.4698 21.6237C6.17576 21.6237 6.7483 21.0573 6.7483 20.3584Z" fill="white"/>
<path d="M5.65211 22.1329C5.65211 21.9876 5.53473 21.8712 5.39033 21.8712C5.24592 21.8712 5.12939 21.9885 5.12939 22.1329C5.12939 22.2772 5.24677 22.3937 5.39033 22.3937C5.53473 22.3937 5.65211 22.2772 5.65211 22.1329Z" fill="white"/>
<path d="M5.80423 22.9052C5.73245 22.9052 5.67334 22.9635 5.67334 23.0361C5.67334 23.1078 5.7316 23.1678 5.80423 23.1678C5.87601 23.1678 5.93512 23.1086 5.93512 23.0361C5.93512 22.9643 5.87685 22.9052 5.80423 22.9052Z" fill="white"/>
<path d="M6.2735 21.573C6.12909 21.573 6.01172 21.6903 6.01172 21.8339C6.01172 21.9782 6.12909 22.0947 6.2735 22.0947C6.4179 22.0947 6.53528 21.9774 6.53528 21.8339C6.53443 21.6903 6.4179 21.573 6.2735 21.573Z" fill="white"/>
<path d="M8.19655 21.4362C8.19655 21.0032 7.84525 20.652 7.41121 20.652C6.978 20.652 6.62671 21.0032 6.62671 21.4362C6.62671 21.8701 6.978 22.2213 7.41121 22.2213C7.84525 22.2205 8.19655 21.8693 8.19655 21.4362Z" fill="white"/>
<path d="M7.47683 23.4859C7.40421 23.4859 7.34595 23.5441 7.34595 23.6167C7.34595 23.6885 7.40421 23.7476 7.47683 23.7476C7.54946 23.7476 7.60773 23.6893 7.60773 23.6167C7.60773 23.5441 7.54946 23.4859 7.47683 23.4859Z" fill="white"/>
<path d="M7.8393 22.2475C7.6949 22.2475 7.57837 22.3649 7.57837 22.5083C7.57837 22.6535 7.69575 22.77 7.8393 22.77C7.9837 22.77 8.10108 22.6527 8.10108 22.5083C8.10108 22.364 7.9837 22.2475 7.8393 22.2475Z" fill="white"/>
<path d="M8.43277 23.1727C8.28841 23.1727 8.17188 23.2892 8.17188 23.4344C8.17188 23.5787 8.28928 23.696 8.43277 23.696C8.57721 23.696 8.69461 23.5787 8.69461 23.4344C8.69461 23.2892 8.57807 23.1727 8.43277 23.1727Z" fill="white"/>
<path d="M7.85432 9.30188C7.42112 9.30188 7.06982 9.65304 7.06982 10.0861C7.06982 10.5191 7.42112 10.8703 7.85432 10.8703C8.28752 10.8703 8.63964 10.5191 8.63964 10.0861C8.63885 9.65304 8.28752 9.30188 7.85432 9.30188Z" fill="white"/>
<path d="M9.0207 21.6357C8.58747 21.6357 8.23535 21.9868 8.23535 22.4199C8.23535 22.8521 8.58668 23.2041 9.0207 23.2041C9.45393 23.2041 9.80518 22.8529 9.80518 22.4199C9.80518 21.9868 9.45393 21.6357 9.0207 21.6357Z" fill="white"/>
<path d="M9.62181 23.4386C9.54923 23.4386 9.49097 23.4969 9.49097 23.5695C9.49097 23.6413 9.54923 23.7003 9.62181 23.7003C9.69359 23.7003 9.75273 23.6413 9.75273 23.5695C9.75273 23.4969 9.69359 23.4386 9.62181 23.4386Z" fill="white"/>
<path d="M9.99005 23.1769C9.91826 23.1769 9.85913 23.2351 9.85913 23.3078C9.85913 23.3812 9.9174 23.4394 9.99005 23.4394C10.0618 23.4394 10.1209 23.3812 10.1209 23.3078C10.1209 23.2351 10.0626 23.1769 9.99005 23.1769Z" fill="white"/>
<path d="M10.1515 22.5524C10.007 22.5524 9.88965 22.6698 9.88965 22.8141C9.88965 22.9585 10.007 23.0758 10.1515 23.0758C10.2958 23.0758 10.4124 22.9585 10.4124 22.8141C10.4124 22.6698 10.2958 22.5524 10.1515 22.5524Z" fill="white"/>
<path d="M10.2163 21.9193C10.0719 21.9193 9.95459 22.0366 9.95459 22.1809C9.95459 22.3253 10.0719 22.4418 10.2163 22.4418C10.3608 22.4418 10.4773 22.3244 10.4773 22.1809C10.4773 22.0374 10.3608 21.9193 10.2163 21.9193Z" fill="white"/>
<path d="M10.5627 11.9204C10.5627 11.6899 10.3753 11.5017 10.1447 11.5017C9.91335 11.5017 9.72583 11.6891 9.72583 11.9204C9.72583 12.1517 9.91335 12.3391 10.1447 12.3391C10.3761 12.3382 10.5627 12.1517 10.5627 11.9204Z" fill="white"/>
<path d="M9.88279 10.7986C9.88279 10.4584 9.60665 10.1824 9.26631 10.1824C8.92597 10.1824 8.6499 10.4584 8.6499 10.7986C8.6499 11.1388 8.92597 11.4148 9.26631 11.4148C9.60665 11.4148 9.88279 11.1388 9.88279 10.7986Z" fill="white"/>
<path d="M6.5489 10.0725C6.32005 10.0725 6.13428 10.2582 6.13428 10.4869C6.13428 10.7157 6.31921 10.9014 6.5489 10.9014C6.77775 10.9014 6.96268 10.7157 6.96268 10.4869C6.96353 10.2573 6.77775 10.0725 6.5489 10.0725Z" fill="white"/>
<path d="M11.8792 21.2658C11.8792 21.3528 11.9501 21.4228 12.0362 21.4228C12.1232 21.4228 12.1933 21.3528 12.1933 21.2658C12.1933 21.1781 12.1232 21.1079 12.0362 21.1079C11.9501 21.1079 11.8792 21.1781 11.8792 21.2658Z" fill="white"/>
<path d="M11.6383 21.4904C11.0607 21.4904 10.592 21.959 10.592 22.5363C10.592 23.1137 11.0607 23.5822 11.6383 23.5822C12.2159 23.5822 12.6846 23.1137 12.6846 22.5363C12.6846 21.959 12.2159 21.4904 11.6383 21.4904Z" fill="white"/>
<path d="M13.0978 22.1935C12.9525 22.1935 12.8359 22.3108 12.8359 22.4551C12.8359 22.5995 12.9533 22.7168 13.0978 22.7168C13.2421 22.7168 13.3595 22.5995 13.3595 22.4551C13.3595 22.31 13.2421 22.1935 13.0978 22.1935Z" fill="white"/>
<path d="M14.0038 22.2848C13.7142 22.2848 13.4802 22.5186 13.4802 22.8073C13.4802 23.0969 13.7142 23.3306 14.0038 23.3306C14.2926 23.3306 14.5265 23.0969 14.5265 22.8073C14.5265 22.5186 14.2917 22.2848 14.0038 22.2848Z" fill="white"/>
<path d="M13.6904 23.7239C13.6186 23.7239 13.5596 23.7821 13.5596 23.8547C13.5596 23.9265 13.6178 23.9856 13.6904 23.9856C13.7622 23.9856 13.8221 23.9265 13.8221 23.8547C13.8221 23.7821 13.7622 23.7239 13.6904 23.7239Z" fill="white"/>
<path d="M14.3364 21.1375C14.192 21.1375 14.0754 21.2556 14.0754 21.3991C14.0754 21.5434 14.1928 21.66 14.3364 21.66C14.4808 21.66 14.5973 21.5426 14.5973 21.3991C14.5982 21.2556 14.4808 21.1375 14.3364 21.1375Z" fill="white"/>
<path d="M13.9455 22.05C14.0173 22.05 14.0763 21.991 14.0763 21.9193C14.0763 21.8475 14.0181 21.7884 13.9455 21.7884C13.8729 21.7884 13.8137 21.8475 13.8137 21.9193C13.8146 21.9918 13.8729 22.05 13.9455 22.05Z" fill="white"/>
<path d="M12.6079 10.7056C12.6079 10.7782 12.6662 10.8365 12.7388 10.8365C12.8114 10.8365 12.8705 10.7774 12.8705 10.7056C12.8705 10.6339 12.8123 10.5748 12.7388 10.5748C12.6662 10.5748 12.6079 10.633 12.6079 10.7056Z" fill="white"/>
<path d="M13.4439 20.2249C13.4439 20.1523 13.3856 20.0932 13.313 20.0932C13.2413 20.0932 13.1821 20.1514 13.1821 20.2249C13.1821 20.2967 13.2404 20.3557 13.313 20.3557C13.3856 20.3557 13.4439 20.2967 13.4439 20.2249Z" fill="white"/>
<path d="M13.1153 20.4596C12.6821 20.4596 12.3308 20.8107 12.3308 21.2438C12.3308 21.6759 12.6821 22.0271 13.1153 22.0271C13.5477 22.0271 13.8998 21.6759 13.8998 21.2438C13.8998 20.8107 13.5485 20.4596 13.1153 20.4596Z" fill="white"/>
<path d="M14.1802 11.0349C14.252 11.0349 14.3111 10.9767 14.3111 10.9041C14.3111 10.8323 14.2528 10.7732 14.1802 10.7732C14.1084 10.7732 14.0493 10.8315 14.0493 10.9041C14.0493 10.9767 14.1076 11.0349 14.1802 11.0349Z" fill="white"/>
<path d="M14.4116 19.0441C14.4116 19.1893 14.529 19.3057 14.6726 19.3057C14.8178 19.3057 14.9343 19.1884 14.9343 19.0441C14.9343 18.8997 14.8169 18.7832 14.6726 18.7832C14.5282 18.7832 14.4116 18.8997 14.4116 19.0441Z" fill="white"/>
<path d="M14.3593 19.3505C13.9252 19.3505 13.5747 19.7017 13.5747 20.1356C13.5747 20.5678 13.926 20.9189 14.3593 20.9189C14.7924 20.9189 15.1437 20.5678 15.1437 20.1356C15.1437 19.7017 14.7924 19.3505 14.3593 19.3505Z" fill="white"/>
<path d="M15.5929 20.0327C15.4486 20.0327 15.332 20.1491 15.332 20.2935C15.332 20.4378 15.4494 20.5543 15.5929 20.5543C15.7382 20.5543 15.8548 20.437 15.8548 20.2935C15.8548 20.1491 15.7374 20.0327 15.5929 20.0327Z" fill="white"/>
<path d="M16.2289 21.5249C16.0845 21.53 15.9722 21.6507 15.9772 21.7959C15.9814 21.9402 16.1031 22.0525 16.2474 22.0474C16.3927 22.0432 16.505 21.9216 16.4999 21.7773C16.4949 21.6321 16.3741 21.5199 16.2289 21.5249Z" fill="white"/>
<path d="M16.5001 20.8708C16.4274 20.8708 16.3691 20.9291 16.3691 21.0016C16.3691 21.0734 16.4274 21.1325 16.5001 21.1325C16.5718 21.1325 16.6309 21.0743 16.6309 21.0016C16.6309 20.9299 16.5726 20.8708 16.5001 20.8708Z" fill="white"/>
<path d="M7.10213 20.5306C7.18911 20.5306 7.2592 20.4606 7.2592 20.3736C7.2592 20.2867 7.18911 20.2166 7.10213 20.2166C7.01515 20.2166 6.94507 20.2867 6.94507 20.3736C6.94507 20.4606 7.01515 20.5306 7.10213 20.5306Z" fill="white"/>
<path d="M16.2991 17.3676C15.5771 17.3676 14.9919 17.9525 14.9919 18.6751C14.9919 19.3969 15.5771 19.9818 16.2991 19.9818C17.0211 19.9818 17.6072 19.3969 17.6072 18.6751C17.6072 17.9525 17.0211 17.3676 16.2991 17.3676Z" fill="white"/>
<path d="M17.7008 17.4233C17.5565 17.4233 17.4399 17.5406 17.4399 17.6841C17.4399 17.8285 17.5573 17.9458 17.7008 17.9458C17.8461 17.9458 17.9626 17.8285 17.9626 17.6841C17.9626 17.5406 17.8461 17.4233 17.7008 17.4233Z" fill="white"/>
<path d="M16.9119 14.4841C16.9119 14.3971 16.8418 14.3271 16.7557 14.3271C16.6695 14.3271 16.5986 14.3971 16.5986 14.4841C16.5986 14.5702 16.6688 14.6411 16.7557 14.6411C16.8418 14.6402 16.9119 14.5702 16.9119 14.4841Z" fill="white"/>
<path d="M16.521 17.0182C16.7557 17.0182 16.9449 16.8283 16.9449 16.5944C16.9449 16.3606 16.7557 16.1707 16.521 16.1707C16.2871 16.1707 16.0979 16.3606 16.0979 16.5944C16.0971 16.8283 16.2871 17.0182 16.521 17.0182Z" fill="white"/>
<path d="M16.2298 12.5131C16.158 12.5131 16.0989 12.5713 16.0989 12.6439C16.0989 12.7165 16.1571 12.7748 16.2298 12.7748C16.3016 12.7748 16.3606 12.7165 16.3606 12.6439C16.3606 12.5722 16.3016 12.5131 16.2298 12.5131Z" fill="white"/>
<path d="M15.7898 17.1058C15.7898 17.1784 15.8481 17.2367 15.9206 17.2367C15.9924 17.2367 16.0516 17.1784 16.0516 17.1058C16.0516 17.0332 15.9933 16.975 15.9206 16.975C15.8481 16.9758 15.7898 17.034 15.7898 17.1058Z" fill="white"/>
<path d="M18.09 15.3872C18.09 14.9541 17.7387 14.603 17.3056 14.603C16.8723 14.603 16.521 14.9541 16.521 15.3872C16.521 15.8202 16.8723 16.1714 17.3056 16.1714C17.7387 16.1714 18.09 15.8202 18.09 15.3872Z" fill="white"/>
<path d="M17.8866 16.2315C17.597 16.2315 17.363 16.4661 17.363 16.754C17.363 17.0427 17.597 17.2774 17.8866 17.2774C18.1754 17.2774 18.4093 17.0427 18.4093 16.754C18.4093 16.4661 18.1754 16.2315 17.8866 16.2315Z" fill="white"/>
<path d="M18.557 17.2891C18.4127 17.2942 18.2995 17.4149 18.3046 17.5601C18.3097 17.7044 18.4304 17.8176 18.5756 17.8117C18.7201 17.8066 18.8324 17.6859 18.8273 17.5415C18.8231 17.398 18.7015 17.285 18.557 17.2891Z" fill="white"/>
<path d="M18.7825 18.0479C18.7099 18.0479 18.6516 18.1062 18.6516 18.1788C18.6516 18.2506 18.7099 18.3096 18.7825 18.3096C18.8551 18.3096 18.9134 18.2506 18.9134 18.1788C18.9134 18.1071 18.8551 18.0479 18.7825 18.0479Z" fill="white"/>
<path d="M18.976 14.414C18.8316 14.4191 18.7193 14.5398 18.7235 14.6842C18.7286 14.8285 18.8502 14.9416 18.9946 14.9365C19.139 14.9315 19.2522 14.8108 19.2471 14.6656C19.2412 14.5221 19.1196 14.409 18.976 14.414Z" fill="white"/>
<path d="M16.4442 12.036C16.4442 11.8325 16.2871 11.6671 16.0945 11.6671C15.902 11.6671 15.7466 11.8325 15.7466 12.036C15.7466 12.2403 15.9029 12.4049 16.0945 12.4049C16.2871 12.4057 16.4442 12.2403 16.4442 12.036Z" fill="white"/>
<path d="M15.4231 11.7626C15.4231 11.8352 15.4814 11.8934 15.5539 11.8934C15.6257 11.8934 15.6849 11.8352 15.6849 11.7626C15.6849 11.69 15.6266 11.6317 15.5539 11.6317C15.4814 11.6317 15.4231 11.6908 15.4231 11.7626Z" fill="white"/>
<path d="M14.0401 10.3403C14.0401 10.0516 13.8062 9.81775 13.5166 9.81775C13.2278 9.81775 12.9939 10.0516 12.9939 10.3403C12.9939 10.629 13.2278 10.8628 13.5166 10.8628C13.8062 10.8628 14.0401 10.6281 14.0401 10.3403Z" fill="white"/>
<path d="M5.50096 18.595C5.40384 18.595 5.32446 18.6735 5.32446 18.7706C5.32446 18.8676 5.40384 18.9462 5.50096 18.9462C5.59807 18.9462 5.6766 18.8676 5.6766 18.7706C5.6766 18.6735 5.59722 18.595 5.50096 18.595Z" fill="white"/>
<path d="M7.06902 23.0623C6.87901 23.0623 6.72363 22.9078 6.72363 22.7179C6.72363 22.5263 6.87817 22.3718 7.06902 22.3718C7.25986 22.3718 7.4144 22.5263 7.4144 22.7179C7.4144 22.9078 7.25986 23.0623 7.06902 23.0623Z" fill="white"/>
</g>
<defs>
<clipPath id="clip0_1022_4019">
<rect width="58" height="17" fill="white" transform="translate(1 7)"/>
</clipPath>
</defs>
</svg>
