<svg width="60" height="32" viewBox="0 0 60 32" fill="none" xmlns="http://www.w3.org/2000/svg">
<path fill-rule="evenodd" clip-rule="evenodd" d="M11.0885 11.7525C10.9352 11.8979 10.7375 12.0853 10.6492 12.1689C10.561 12.2525 10.3567 12.4468 10.1952 12.6006C10.0338 12.7544 9.82957 12.9486 9.74135 13.0322C9.65313 13.1158 9.44588 13.3128 9.28078 13.4699C9.1157 13.6271 8.90847 13.8241 8.82029 13.9077C8.73211 13.9913 8.52787 14.1854 8.36642 14.3391C8.07686 14.6147 7.5544 15.1116 7.30487 15.3485C7.09565 15.5472 6.5098 16.1043 6.35864 16.2483C6.18988 16.409 5.95533 16.6315 5.73675 16.838C5.64828 16.9216 5.44393 17.1157 5.28261 17.2694C4.89925 17.6346 4.33927 18.1664 3.40036 19.0571C3.21707 19.2309 3.00267 19.4334 2.92393 19.5069L2.78076 19.6407L3.23756 20.0571L3.69434 20.4736H4.05679H4.41927L4.76436 20.1481C4.95416 19.9692 5.24478 19.6942 5.41018 19.5372C5.57559 19.3801 5.86092 19.1094 6.04425 18.9355C6.22758 18.7617 6.44365 18.5565 6.52441 18.4797C6.60517 18.4029 6.74947 18.2661 6.84508 18.1757C6.94068 18.0853 7.15383 17.8828 7.31874 17.7256C7.48365 17.5685 7.70017 17.3633 7.79989 17.2697C7.8996 17.176 8.19991 16.8915 8.46723 16.6374C9.30006 15.8457 9.71977 15.4479 10.1416 15.0506C10.2446 14.9536 10.482 14.7293 10.6692 14.5521C10.8564 14.375 11.1898 14.061 11.4101 13.8544C11.6303 13.6478 11.8579 13.4327 11.9159 13.3764C11.9929 13.3015 12.0252 13.2776 12.036 13.2875C12.0467 13.2972 12.0501 13.82 12.0483 15.1802C12.047 16.2137 12.0424 17.0625 12.0383 17.0662C12.0341 17.07 11.4496 17.0779 10.7393 17.0837L9.44779 17.0944L8.51339 17.945L7.57899 18.7956H9.81823H12.0575V19.6346V20.4736H12.7684H13.4793L13.8496 20.1361L14.22 19.7986V15.6433V11.488H12.7936H11.3673L11.0885 11.7525ZM16.7829 15.6484V19.8088L17.1533 20.1408L17.5238 20.4727L21.445 20.4732L25.3662 20.4736V20.0077V19.5417L24.9939 19.2052L24.6216 18.8686H22.9671C22.0571 18.8686 20.7899 18.865 20.1512 18.8605L18.9898 18.8525L18.9816 15.5083L18.9734 12.1642L18.6024 11.8261L18.2314 11.488H17.5072H16.7829V15.6484ZM23.6842 11.9836V12.4791L24.0421 12.805L24.4 13.1309L26.3948 13.1514L28.3896 13.172L28.4047 14.2481C28.413 14.84 28.4271 16.3419 28.4361 17.5858L28.4524 19.8474L28.8015 20.1599L29.1505 20.4725L29.5519 20.473L29.9533 20.4736L30.2958 20.1362L30.6383 19.7988L30.6386 16.4824L30.6389 13.166L30.7957 13.1661C30.9651 13.1662 33.4167 13.1344 34.186 13.1221L34.6562 13.1145L35.0237 12.7865L35.3911 12.4584V11.9732V11.488H29.5376H23.6842V11.9836ZM37.7618 11.8298L37.3934 12.1717V15.9853V19.7989L37.7639 20.1363L38.1344 20.4736H42.2557H46.3771V19.9355V19.3973L46.0324 19.0836L45.6878 18.7698L44.2537 18.7575C43.465 18.7508 42.1018 18.7388 41.2244 18.7309L39.6293 18.7166L39.6259 17.7408L39.6224 16.7651H41.4446H43.2668V16.2386V15.7122L43.1033 15.5665C43.0133 15.4863 42.8365 15.3293 42.7102 15.2174L42.4806 15.0142H41.0516H39.6226V14.1265V13.2389H42.6295H45.6364L46.0067 12.9014L46.3771 12.5639V12.026V11.488H42.2537H38.1303L37.7618 11.8298ZM48.9 15.6435V19.7989L49.2705 20.1363L49.641 20.4736H53.5421H57.4432V19.9902V19.5068L57.0726 19.1694L56.7021 18.8321H53.9157H51.1292L51.1298 15.4914L51.1304 12.1507L50.7594 11.8197L50.3884 11.4887L49.6442 11.4883L48.9 11.488V15.6435Z" fill="#EC008C"/>
</svg>
