<svg width="60" height="32" viewBox="0 0 60 32" fill="none" xmlns="http://www.w3.org/2000/svg">
<path d="M22.9037 16.0161L19.9518 18.948L17 16.0161L19.9518 13.0843L22.9037 16.0161ZM30.1049 8.86369L35.1651 13.922L38.117 10.9901L33.0567 5.93185L30.1049 3L27.153 5.93185L22.0603 10.9901L25.0121 13.922L30.1049 8.86369ZM40.2579 13.0843L37.306 16.0161L40.2579 18.948L43.2097 16.0161L40.2579 13.0843ZM30.1049 23.1364L25.0446 18.1103L22.0603 21.0422L27.1206 26.0682L30.0724 29L33.0242 26.0682L38.117 21.0422L35.1651 18.1103L30.1049 23.1364ZM30.1049 18.948L33.0567 16.0161L30.1049 13.0843L27.153 16.0161L30.1049 18.948Z" fill="#F0B90B"/>
</svg>
