<svg width="60" height="32" viewBox="0 0 60 32" fill="none" xmlns="http://www.w3.org/2000/svg">
<g clip-path="url(#clip0_1022_3887)">
<path d="M33.8033 16.6832C33.8033 16.4842 33.9567 14.5664 35.9928 14.5664C37.3426 14.5664 37.8299 15.3595 38.0857 16.6832H33.8033ZM36.0652 12.5071C33.0332 12.5071 31.1691 14.8952 31.1691 17.7564C31.1691 20.2285 32.5345 22.9703 36.0652 22.9703C39.2692 22.9703 40.1799 20.8373 40.5508 19.6448H38.8799C38.4949 19.6448 38.215 19.8025 37.9535 20.1371C37.8441 20.2668 37.2843 20.9317 36.159 20.9317C33.88 20.9317 33.8473 19.0551 33.8033 18.4139H40.7184C40.9131 15.5334 39.4454 12.5071 36.0652 12.5071ZM42.3496 9.03409V20.2241C42.3695 22.1095 42.7033 22.764 44.9666 22.764L44.9652 11.2408C44.9467 9.38641 44.6 9.03409 42.3496 9.03409ZM47.4303 9.03409V20.2241C47.4501 22.1095 47.7858 22.764 50.0476 22.764L50.0445 11.2408C50.0278 9.38641 49.6824 9.03409 47.4303 9.03409ZM28.2891 18.9136C28.2891 18.9136 27.6895 18.8915 27.4593 19.546C27.1325 20.4776 26.5343 20.9317 25.5156 20.9317C23.9314 20.9317 23.329 19.3662 23.329 17.7579C23.329 16.2307 23.9485 14.5664 25.5725 14.5664C26.5855 14.5664 27.1226 15.0367 27.3528 15.647C27.4778 15.9786 27.6639 16.2793 28.245 16.2793H30.0964C29.9557 13.7114 27.8273 12.5071 25.5881 12.5071C22.289 12.5071 20.6976 14.9895 20.6976 17.8758C20.6976 21.1071 22.8587 22.9703 25.5327 22.9703C27.8714 22.9703 29.7823 21.7527 30.1489 18.9136H28.2891ZM9 22.7639H11.8985V18.3431L13.5651 16.5904C13.5651 16.5904 15.1749 19.0713 16.2561 20.7621C17.3416 22.4485 17.8617 22.7639 19.7997 22.7639H21.2049L15.5344 14.4559L20.7033 9.03409H19.2868C17.9157 9.03409 17.0276 9.08568 15.9379 10.2827C14.8424 11.4752 11.8985 14.7271 11.8985 14.7271V11.7037C11.8942 9.71218 11.566 9.02966 9 9.02966V22.7639Z" fill="#A244DA"/>
</g>
<defs>
<clipPath id="clip0_1022_3887">
<rect width="60" height="32" fill="white"/>
</clipPath>
</defs>
</svg>
