<svg width="60" height="32" viewBox="0 0 60 32" fill="none" xmlns="http://www.w3.org/2000/svg">
<g clip-path="url(#clip0_1021_2649)">
<path d="M28.9324 13.7409C27.9445 12.1812 27.3691 10.5632 27.2063 8.88671C25.7695 7.71937 23.4785 7.14623 20.3335 7.16731C20.2559 8.4421 20.4473 9.71896 20.8951 10.915H20.8634C21.1896 11.6849 21.6442 12.3938 22.2079 13.0113C22.2087 13.0233 22.212 13.0349 22.2174 13.0455C22.2229 13.0562 22.2303 13.0656 22.2395 13.0734C22.4385 13.292 22.6583 13.4907 22.8959 13.6668C24.2792 14.7271 25.9182 15.3837 27.8128 15.6367C27.9876 14.9068 28.3777 14.2463 28.9324 13.7409Z" fill="#FF467F"/>
<path d="M22.894 21.1062H22.8624C21.9669 22.4608 21.394 24.3987 21.1436 26.9198C22.5212 27.1282 23.7919 27.0658 24.9556 26.7326C25.9582 26.4322 26.885 25.9205 27.6736 25.2321V25.2004L27.8608 25.0132H27.8948C29.1403 23.695 29.971 22.0551 30.3867 20.0933C29.8172 19.9235 29.2964 19.6204 28.8672 19.2093C26.9572 20.4553 24.9661 21.0876 22.894 21.1062Z" fill="#FF467F"/>
<path d="M22.2692 14.4498C22.0619 14.2838 21.8638 14.1064 21.6761 13.9184C20.2174 14.314 18.6031 15.2204 16.8333 16.6374C17.5558 17.6983 18.5059 18.5844 19.6145 19.2311C20.5312 19.755 21.5587 20.0549 22.6133 20.1066H22.894C24.7579 20.0888 26.5407 19.529 28.2425 18.4273C27.9167 17.8859 27.7343 17.2702 27.7125 16.6386C25.6291 16.3605 23.8146 15.631 22.2692 14.4498Z" fill="#FF467F"/>
<path d="M33.4403 13.3348C34.4249 11.8172 34.9816 10.251 35.1104 8.63622V8.5742C35.1319 8.37713 35.1424 8.17903 35.1421 7.9808C35.1291 6.82648 34.8171 5.69527 34.2365 4.69763C33.6554 3.65837 32.7932 2.73138 31.6497 1.91667H31.6424C30.4966 2.72733 29.6323 3.65472 29.0496 4.69885C28.469 5.69648 28.157 6.8277 28.1441 7.98201C28.1437 8.18025 28.1542 8.37835 28.1757 8.57542V8.63743C28.2996 10.1947 28.8231 11.707 29.7462 13.1743C30.3225 12.8759 30.967 12.7338 31.6154 12.7622C32.2638 12.7905 32.8934 12.9884 33.4415 13.336L33.4403 13.3348Z" fill="#FF467F"/>
<path d="M34.7664 24.3881V24.3565C34.5719 22.8211 34.0326 21.3153 33.1485 19.8391C32.6221 20.1097 32.0386 20.2506 31.4467 20.2501H31.3738C30.9184 22.4056 29.9978 24.2122 28.612 25.6698C28.6077 25.6691 28.6034 25.6695 28.5993 25.6709C28.5951 25.6723 28.5914 25.6746 28.5883 25.6777C28.5853 25.6807 28.583 25.6845 28.5816 25.6886C28.5802 25.6927 28.5798 25.6971 28.5804 25.7014C28.581 25.7057 28.5806 25.71 28.5793 25.7142C28.5779 25.7183 28.5756 25.722 28.5725 25.7251C28.5695 25.7281 28.5657 25.7304 28.5616 25.7318C28.5575 25.7332 28.5531 25.7336 28.5488 25.733C28.8616 27.3373 29.83 29.1207 31.454 31.0833C32.4975 30.3377 33.3709 29.3791 34.0164 28.2707C34.4742 27.4626 34.7613 26.5691 34.86 25.6454C34.8211 25.5906 34.7995 25.5254 34.798 25.4582C34.8403 25.1019 34.8297 24.7413 34.7664 24.3881Z" fill="#FF467F"/>
<circle cx="31.4167" cy="16.5" r="2.91667" fill="#FBD743"/>
</g>
<defs>
<clipPath id="clip0_1021_2649">
<rect width="60" height="32" fill="white"/>
</clipPath>
</defs>
</svg>
