<svg width="60" height="32" viewBox="0 0 60 32" fill="none" xmlns="http://www.w3.org/2000/svg">
<path d="M44.3008 8.03504C45.7837 7.82308 47.1394 8.17961 48.064 9.04884C48.9092 9.84407 49.3354 10.97 49.2339 12.1386C49.0406 14.3475 47.9635 16.1173 44.9641 19.033L40.0553 19.1936C40.0553 19.1936 43.4748 16.1031 44.7607 14.5932C45.5939 13.6148 45.947 12.5587 45.6047 11.8548C45.3879 11.4084 44.9013 11.1867 44.3008 11.2199V8.03504Z" fill="white"/>
<path d="M34.242 9.78633V12.6578L38.5055 12.1914V9.18999L34.242 9.78633Z" fill="white"/>
<path d="M30.7702 22.7554V10.272L33.6958 9.86282V22.7554H30.7702Z" fill="white"/>
<path d="M19.2137 11.8917V14.3056L22.4362 13.9528V11.4411L19.2137 11.8917Z" fill="white"/>
<path d="M16.5662 22.7554V12.2621L18.7979 11.9499V22.7554H16.5662Z" fill="white"/>
<path d="M10 13.1802V15.3139L15.7849 14.6807V12.3713L10 13.1802Z" fill="white"/>
<path d="M11.846 15.4437V22.7554H13.964V15.2283L11.846 15.4437Z" fill="white"/>
<path d="M19.2137 18.5601V16.1022L21.3291 15.921V18.4453L19.2137 18.5601Z" fill="white"/>
<path d="M19.2137 20.3317V22.7554H22.4362V20.235L19.2137 20.3317Z" fill="white"/>
<path d="M34.242 17.742V14.8174L37.0365 14.5792V17.5902L34.242 17.742Z" fill="white"/>
<path d="M34.242 19.8797V22.7554H38.5055V19.7516L34.242 19.8797Z" fill="white"/>
<path d="M23.2889 22.7554V11.3217L25.8311 10.9661V22.7554H23.2889Z" fill="white"/>
<path d="M26.3055 20.1189V22.7553H29.9956V20.008L26.3055 20.1189Z" fill="white"/>
<path d="M49.4068 22.7553V19.4229L39.4506 19.7214L39.4513 22.7553H49.4068Z" fill="white"/>
<path d="M43.7285 8.10653C40.836 8.71946 39.4157 10.8368 39.5796 14.2918L42.6636 14.0195C42.5231 12.0676 43.1231 11.6046 43.73 11.35L43.7285 8.10653Z" fill="white"/>
</svg>
