<svg width="60" height="32" viewBox="0 0 60 32" fill="none" xmlns="http://www.w3.org/2000/svg"><path fill-rule="evenodd" clip-rule="evenodd" d="M8 9.55v-.06l.07-.34h6.05c.78 0 1.47.5 1.65 1.4l1.5 7.95 3.7-9.35h3.73l-5.76 13.74h-3.76l-2.84-10.97c-.17-.67-.32-.92-.84-1.2-.85-.47-2.26-.9-3.5-1.17zm22.75 3.89c.02-2.68 2.5-4.55 6-4.55 1.38 0 2.48.3 3.34.61l-.63 2.92c-1.6-.73-3-.68-3.5-.62-1.03.14-1.5.66-1.51 1.15-.04 1.63 5 1.83 4.98 5.45-.01 2.86-2.46 4.7-6.2 4.7a10.77 10.77 0 01-3.95-.72l.65-3.02c.82.39 1.86.9 3.65.87 1.02-.01 2.12-.42 2.13-1.34 0-.6-.46-1.04-1.85-1.71-1.34-.66-3.13-1.76-3.11-3.74zm15.34-4.3h3.04L52 22.9h-3.29l-.43-2.05h-4.56l-.74 2.05h-3.74l5.34-12.74c.26-.6.83-1 1.51-1zm.52 3.72l-1.87 5.16h2.95l-1.07-5.16zM26.24 9.15h3.55l-2.94 13.74h-3.56l2.95-13.74z" fill="#fff"></path><mask id="visa_mask0" maskUnits="userSpaceOnUse" x="8" y="8" width="44" height="16" style="mask-type: alpha;"><path fill-rule="evenodd" clip-rule="evenodd" d="M8 9.55v-.06l.07-.34h6.05c.78 0 1.47.5 1.65 1.4l1.5 7.95 3.7-9.35h3.73l-5.76 13.74h-3.76l-2.84-10.97c-.17-.67-.32-.92-.84-1.2-.85-.47-2.26-.9-3.5-1.17zm22.75 3.89c.02-2.68 2.5-4.55 6-4.55 1.38 0 2.48.3 3.34.61l-.63 2.92c-1.6-.73-3-.68-3.5-.62-1.03.14-1.5.66-1.51 1.15-.04 1.63 5 1.83 4.98 5.45-.01 2.86-2.46 4.7-6.2 4.7a10.77 10.77 0 01-3.95-.72l.65-3.02c.82.39 1.86.9 3.65.87 1.02-.01 2.12-.42 2.13-1.34 0-.6-.46-1.04-1.85-1.71-1.34-.66-3.13-1.76-3.11-3.74zm15.34-4.3h3.04L52 22.9h-3.29l-.43-2.05h-4.56l-.74 2.05h-3.74l5.34-12.74c.26-.6.83-1 1.51-1zm.52 3.72l-1.87 5.16h2.95l-1.07-5.16zM26.24 9.15h3.55l-2.94 13.74h-3.56l2.95-13.74z" fill="#fff"></path></mask></svg>