<svg width="240" height="103" viewBox="0 0 240 103" fill="none" xmlns="http://www.w3.org/2000/svg">
<path fill-rule="evenodd" clip-rule="evenodd" d="M86.9287 13.3186L92.669 21.0242C92.2481 21.2269 91.8706 21.5676 91.5452 21.891C90.4475 22.9819 89.7403 24.4178 89.315 25.8882C88.6642 28.1478 88.6208 30.6531 88.6902 32.9902C88.7597 35.4222 89.6578 38.3573 92.669 38.3573C94.4856 38.012 95.3049 37.3212 96.0494 36.138C96.991 34.6417 97.5696 31.9032 97.4395 30.1438C97.3156 28.4691 96.8717 27.5645 96.1594 26.1126L96.0494 25.8882L101.783 19.8772L103.833 27.4784C103.833 27.4784 101.954 28.7126 100.527 31.4292C98.687 34.9392 98.482 39.8338 101.559 40.1568C104.106 40.4242 106.734 37.1486 107.343 35.5944C107.427 35.3815 107.513 35.169 107.599 34.9571C108.287 33.2637 108.958 31.6117 108.014 30.1438L115.857 26.0521L103.833 47.5348H86.9308C86.9308 47.5348 87.0949 47.5348 86.9266 47.535C83.1706 47.5416 79.4146 47.5394 75.6586 47.5372C73.7806 47.5361 71.9026 47.535 70.0246 47.535L58 26.0524L65.8438 30.1441C64.899 31.612 65.5701 33.2639 66.2581 34.9574L66.2582 34.9576C66.3442 35.1694 66.4305 35.3819 66.514 35.5947C67.1233 37.1489 69.7512 40.4245 72.2981 40.1571C75.3754 39.8341 75.1705 34.9395 73.3308 31.4295C71.9033 28.7129 70.0246 27.4787 70.0246 27.4787L72.0741 19.8775L77.808 25.8885L77.698 26.1129C76.9857 27.5648 76.5419 28.4694 76.418 30.1441C76.2878 31.9035 76.8665 34.642 77.808 36.1383C78.5526 37.3215 79.3718 38.0123 81.1885 38.3576C84.1996 38.3576 85.0978 35.4225 85.1672 32.9905C85.2366 30.6534 85.1932 28.1481 84.5424 25.8885C84.1172 24.4181 83.41 22.9822 82.3122 21.8913C81.9868 21.5679 81.6093 21.2272 81.1885 21.0245L86.9287 13.3186ZM69.9509 49.1385H103.902V52.0362H69.9509V49.1385Z" fill="url(#paint0_linear_3182_17654)"/>
<path fill-rule="evenodd" clip-rule="evenodd" d="M86.9287 13.3186L92.669 21.0242C92.2481 21.2269 91.8706 21.5676 91.5452 21.891C90.4475 22.9819 89.7403 24.4178 89.315 25.8882C88.6642 28.1478 88.6208 30.6531 88.6902 32.9902C88.7597 35.4222 89.6578 38.3573 92.669 38.3573C94.4856 38.012 95.3049 37.3212 96.0494 36.138C96.991 34.6417 97.5696 31.9032 97.4395 30.1438C97.3156 28.4691 96.8717 27.5645 96.1594 26.1126L96.0494 25.8882L101.783 19.8772L103.833 27.4784C103.833 27.4784 101.954 28.7126 100.527 31.4292C98.687 34.9392 98.482 39.8338 101.559 40.1568C104.106 40.4242 106.734 37.1486 107.343 35.5944C107.427 35.3815 107.513 35.169 107.599 34.9571C108.287 33.2637 108.958 31.6117 108.014 30.1438L115.857 26.0521L103.833 47.5348H86.9308C86.9308 47.5348 87.0949 47.5348 86.9266 47.535C83.1706 47.5416 79.4146 47.5394 75.6586 47.5372C73.7806 47.5361 71.9026 47.535 70.0246 47.535L58 26.0524L65.8438 30.1441C64.899 31.612 65.5701 33.2639 66.2581 34.9574L66.2582 34.9576C66.3442 35.1694 66.4305 35.3819 66.514 35.5947C67.1233 37.1489 69.7512 40.4245 72.2981 40.1571C75.3754 39.8341 75.1705 34.9395 73.3308 31.4295C71.9033 28.7129 70.0246 27.4787 70.0246 27.4787L72.0741 19.8775L77.808 25.8885L77.698 26.1129C76.9857 27.5648 76.5419 28.4694 76.418 30.1441C76.2878 31.9035 76.8665 34.642 77.808 36.1383C78.5526 37.3215 79.3718 38.0123 81.1885 38.3576C84.1996 38.3576 85.0978 35.4225 85.1672 32.9905C85.2366 30.6534 85.1932 28.1481 84.5424 25.8885C84.1172 24.4181 83.41 22.9822 82.3122 21.8913C81.9868 21.5679 81.6093 21.2272 81.1885 21.0245L86.9287 13.3186ZM69.9509 49.1385H103.902V52.0362H69.9509V49.1385Z" fill="url(#paint1_linear_3182_17654)"/>
<path fill-rule="evenodd" clip-rule="evenodd" d="M86.9287 13.3186L92.669 21.0242C92.2481 21.2269 91.8706 21.5676 91.5452 21.891C90.4475 22.9819 89.7403 24.4178 89.315 25.8882C88.6642 28.1478 88.6208 30.6531 88.6902 32.9902C88.7597 35.4222 89.6578 38.3573 92.669 38.3573C94.4856 38.012 95.3049 37.3212 96.0494 36.138C96.991 34.6417 97.5696 31.9032 97.4395 30.1438C97.3156 28.4691 96.8717 27.5645 96.1594 26.1126L96.0494 25.8882L101.783 19.8772L103.833 27.4784C103.833 27.4784 101.954 28.7126 100.527 31.4292C98.687 34.9392 98.482 39.8338 101.559 40.1568C104.106 40.4242 106.734 37.1486 107.343 35.5944C107.427 35.3815 107.513 35.169 107.599 34.9571C108.287 33.2637 108.958 31.6117 108.014 30.1438L115.857 26.0521L103.833 47.5348H86.9308C86.9308 47.5348 87.0949 47.5348 86.9266 47.535C83.1706 47.5416 79.4146 47.5394 75.6586 47.5372C73.7806 47.5361 71.9026 47.535 70.0246 47.535L58 26.0524L65.8438 30.1441C64.899 31.612 65.5701 33.2639 66.2581 34.9574L66.2582 34.9576C66.3442 35.1694 66.4305 35.3819 66.514 35.5947C67.1233 37.1489 69.7512 40.4245 72.2981 40.1571C75.3754 39.8341 75.1705 34.9395 73.3308 31.4295C71.9033 28.7129 70.0246 27.4787 70.0246 27.4787L72.0741 19.8775L77.808 25.8885L77.698 26.1129C76.9857 27.5648 76.5419 28.4694 76.418 30.1441C76.2878 31.9035 76.8665 34.642 77.808 36.1383C78.5526 37.3215 79.3718 38.0123 81.1885 38.3576C84.1996 38.3576 85.0978 35.4225 85.1672 32.9905C85.2366 30.6534 85.1932 28.1481 84.5424 25.8885C84.1172 24.4181 83.41 22.9822 82.3122 21.8913C81.9868 21.5679 81.6093 21.2272 81.1885 21.0245L86.9287 13.3186ZM69.9509 49.1385H103.902V52.0362H69.9509V49.1385Z" fill="url(#paint2_linear_3182_17654)"/>
<path d="M111.287 29.5599L115.35 36.1221V36.8907H109.596L106.037 30.4171H103.19V36.8907H97.7632V16.1989C100.847 16.1989 103.843 16.1693 106.897 16.1989C111.909 16.1989 114.371 19.8938 114.371 23.5297C114.341 25.8945 113.333 28.1706 111.287 29.5599ZM103.101 26.0127H106.868C108.38 26.0127 109.122 24.7121 109.122 23.4114C109.122 22.1108 108.41 20.8989 106.868 20.8989H103.101V26.0127Z" fill="url(#paint3_linear_3182_17654)"/>
<path d="M138.406 26.5743C138.406 32.9001 134.016 37.3045 127.729 37.3045C122.243 37.3045 117.112 33.7573 117.112 26.5743C117.112 19.4209 122.421 15.8146 127.818 15.8146C133.127 15.8146 138.406 19.4209 138.406 26.5743ZM122.539 26.5743C122.539 30.2693 125.09 32.1907 127.759 32.1907C130.339 32.1907 132.978 30.2693 132.978 26.5743C132.978 22.8794 130.398 20.958 127.818 20.958C125.119 20.958 122.539 22.7907 122.539 26.5743Z" fill="url(#paint4_linear_3182_17654)"/>
<path d="M148.121 23.0863H148.358L152.125 16.2284H157.878V17.0265L150.939 28.7322V36.9202H145.511V28.7322L138.542 17.0265V16.2284H144.355L148.121 23.0863Z" fill="url(#paint5_linear_3182_17654)"/>
<path d="M170.333 34.3485H162.563L161.377 36.9202H155.712V36.1812L165.232 16.0215H167.723L177.154 36.1812V36.9202H171.549L170.333 34.3485ZM166.448 24.8303L164.313 29.8259H168.613L166.448 24.8303Z" fill="url(#paint6_linear_3182_17654)"/>
<path d="M184.485 16.2284V32.0724H191.988V36.9202H179.058V16.2284H184.485Z" fill="url(#paint7_linear_3182_17654)"/>
<path d="M112.503 46.7263C112.503 42.9166 115.373 41.067 118.242 41.067C120.551 41.067 123.084 42.3001 123.516 45.2562H120.695C120.294 44.118 119.445 43.6754 118.242 43.6754C116.543 43.6754 115.437 44.8768 115.437 46.7105C115.437 48.3071 116.527 49.714 118.242 49.714C119.461 49.714 120.422 49.1608 120.727 47.9594H123.548C123.116 51.1052 120.631 52.354 118.242 52.354C115.373 52.354 112.503 50.457 112.503 46.7263Z" fill="url(#paint8_linear_3182_17654)"/>
<path d="M131.612 50.868H127.412L126.771 52.2433H123.709V51.8481L128.855 41.067H130.201L135.299 51.8481V52.2433H132.269L131.612 50.868ZM129.512 45.7778L128.358 48.4494H130.682L129.512 45.7778Z" fill="url(#paint9_linear_3182_17654)"/>
<path d="M135.657 48.8446H138.447C138.447 49.6034 139.328 49.9828 140.226 49.9828C141.06 49.9828 141.941 49.6034 141.941 48.9395C141.941 47.8803 140.691 47.8329 139.873 47.7855C137.821 47.659 135.769 46.8528 135.769 44.5448C135.769 42.142 137.837 40.9248 140.13 40.9248C142.294 40.9248 144.49 42.142 144.442 44.5448H141.701C141.685 43.786 140.963 43.4699 140.178 43.4699C139.521 43.4699 138.655 43.6438 138.655 44.4816C138.655 45.2246 139.296 45.3985 140.37 45.5091C142.759 45.7146 144.843 46.2679 144.843 48.9553C144.843 51.279 142.55 52.4963 140.258 52.4963C137.885 52.4963 135.609 51.3265 135.657 48.8446Z" fill="url(#paint10_linear_3182_17654)"/>
<path d="M150.556 49.9037H151.983V52.2433H146.196V49.9037H147.623V43.5173H146.324V41.1777H151.855V43.5173H150.556V49.9037Z" fill="url(#paint11_linear_3182_17654)"/>
<path d="M162.788 52.275L156.889 46.5366V52.2433H153.955V41.1303H154.869L160.72 46.5841V41.1777H163.654V52.275H162.788Z" fill="url(#paint12_linear_3182_17654)"/>
<path d="M176.973 46.7105C176.973 50.0934 174.601 52.4488 171.202 52.4488C168.237 52.4488 165.463 50.5519 165.463 46.7105C165.463 42.885 168.333 40.9564 171.25 40.9564C174.12 40.9564 176.973 42.885 176.973 46.7105ZM168.397 46.7105C168.397 48.6865 169.775 49.714 171.218 49.714C172.613 49.714 174.04 48.6865 174.04 46.7105C174.04 44.7345 172.645 43.707 171.25 43.707C169.791 43.707 168.397 44.6871 168.397 46.7105Z" fill="url(#paint13_linear_3182_17654)"/>
<defs>
<linearGradient id="paint0_linear_3182_17654" x1="86.9287" y1="49.0497" x2="86.9287" y2="52.0362" gradientUnits="userSpaceOnUse">
<stop stop-color="#D63637"/>
<stop offset="1" stop-color="#810825"/>
</linearGradient>
<linearGradient id="paint1_linear_3182_17654" x1="86.9287" y1="49.0497" x2="86.9287" y2="52.0362" gradientUnits="userSpaceOnUse">
<stop stop-color="#E02D2F"/>
<stop offset="1" stop-color="#810825"/>
</linearGradient>
<linearGradient id="paint2_linear_3182_17654" x1="88.6215" y1="44.2926" x2="114.053" y2="41.2018" gradientUnits="userSpaceOnUse">
<stop stop-color="#1A0E0E" stop-opacity="0"/>
<stop offset="0.361666" stop-color="#0D0707" stop-opacity="0.5"/>
<stop offset="1" stop-color="#220E0E"/>
</linearGradient>
<linearGradient id="paint3_linear_3182_17654" x1="143.586" y1="14.7504" x2="143.586" y2="44.3101" gradientUnits="userSpaceOnUse">
<stop offset="0.0366663" stop-color="white"/>
<stop offset="0.426666" stop-color="white"/>
<stop offset="0.641666" stop-color="#E3E3E3"/>
<stop offset="0.826666" stop-color="#A5A5A5"/>
</linearGradient>
<linearGradient id="paint4_linear_3182_17654" x1="143.586" y1="14.7504" x2="143.586" y2="44.3101" gradientUnits="userSpaceOnUse">
<stop offset="0.0366663" stop-color="white"/>
<stop offset="0.426666" stop-color="white"/>
<stop offset="0.641666" stop-color="#E3E3E3"/>
<stop offset="0.826666" stop-color="#A5A5A5"/>
</linearGradient>
<linearGradient id="paint5_linear_3182_17654" x1="143.586" y1="14.7504" x2="143.586" y2="44.3101" gradientUnits="userSpaceOnUse">
<stop offset="0.0366663" stop-color="white"/>
<stop offset="0.426666" stop-color="white"/>
<stop offset="0.641666" stop-color="#E3E3E3"/>
<stop offset="0.826666" stop-color="#A5A5A5"/>
</linearGradient>
<linearGradient id="paint6_linear_3182_17654" x1="143.586" y1="14.7504" x2="143.586" y2="44.3101" gradientUnits="userSpaceOnUse">
<stop offset="0.0366663" stop-color="white"/>
<stop offset="0.426666" stop-color="white"/>
<stop offset="0.641666" stop-color="#E3E3E3"/>
<stop offset="0.826666" stop-color="#A5A5A5"/>
</linearGradient>
<linearGradient id="paint7_linear_3182_17654" x1="143.586" y1="14.7504" x2="143.586" y2="44.3101" gradientUnits="userSpaceOnUse">
<stop offset="0.0366663" stop-color="white"/>
<stop offset="0.426666" stop-color="white"/>
<stop offset="0.641666" stop-color="#E3E3E3"/>
<stop offset="0.826666" stop-color="#A5A5A5"/>
</linearGradient>
<linearGradient id="paint8_linear_3182_17654" x1="144.798" y1="52.9613" x2="144.798" y2="56.1953" gradientUnits="userSpaceOnUse">
<stop stop-color="#D63637"/>
<stop offset="1" stop-color="#810825"/>
</linearGradient>
<linearGradient id="paint9_linear_3182_17654" x1="144.798" y1="52.9613" x2="144.798" y2="56.1953" gradientUnits="userSpaceOnUse">
<stop stop-color="#D63637"/>
<stop offset="1" stop-color="#810825"/>
</linearGradient>
<linearGradient id="paint10_linear_3182_17654" x1="144.798" y1="52.9613" x2="144.798" y2="56.1953" gradientUnits="userSpaceOnUse">
<stop stop-color="#D63637"/>
<stop offset="1" stop-color="#810825"/>
</linearGradient>
<linearGradient id="paint11_linear_3182_17654" x1="144.798" y1="52.9613" x2="144.798" y2="56.1953" gradientUnits="userSpaceOnUse">
<stop stop-color="#D63637"/>
<stop offset="1" stop-color="#810825"/>
</linearGradient>
<linearGradient id="paint12_linear_3182_17654" x1="144.798" y1="52.9613" x2="144.798" y2="56.1953" gradientUnits="userSpaceOnUse">
<stop stop-color="#D63637"/>
<stop offset="1" stop-color="#810825"/>
</linearGradient>
<linearGradient id="paint13_linear_3182_17654" x1="144.798" y1="52.9613" x2="144.798" y2="56.1953" gradientUnits="userSpaceOnUse">
<stop stop-color="#D63637"/>
<stop offset="1" stop-color="#810825"/>
</linearGradient>
</defs>
</svg>
