<?xml version="1.0" encoding="utf-8"?>
<!-- Generator: Adobe Illustrator 27.4.1, SVG Export Plug-In . SVG Version: 6.00 Build 0)  -->
<svg version="1.1" id="Layer_1" xmlns="http://www.w3.org/2000/svg" xmlns:xlink="http://www.w3.org/1999/xlink" x="0px" y="0px"
	 viewBox="0 0 608 153" style="enable-background:new 0 0 608 153;" xml:space="preserve">
<style type="text/css">
	.st0{fill:#FFFFFF;}
	.st1{fill:#15232D;}
	.st2{fill:url(#SVGID_1_);}
	.st3{fill:url(#SVGID_00000054264154516323973750000008759166736028511625_);}
	.st4{fill:url(#SVGID_00000163775711850382225640000011076153688958232994_);}
	.st5{fill:url(#SVGID_00000033353081814616958710000013549123964635174316_);}
	.st6{fill:url(#SVGID_00000025403750648396692000000000459374961169432451_);}
	.st7{fill:url(#SVGID_00000083776942413869163130000010465810780944969607_);}
	.st8{fill:url(#SVGID_00000052788642144618496770000002928281464841769656_);}
	.st9{fill:url(#SVGID_00000145746796320124223430000003757224128328053422_);}
	.st10{fill:url(#SVGID_00000005986652822923494340000010896188581692096959_);}
</style>
<path class="st0" d="M426.18,132.49h22.34v-7.31h-14.58v-14.62h12.71v-7.5h-12.71V89.28h14.58v-7.31h-22.34V132.49z M481.34,104.65
	c0.93-2.16,1.31-4.87,1.31-8.06c0-5.16-1.12-8.9-3.46-11.25c-2.34-2.25-5.52-3.47-9.63-3.47h-11.5v50.52h7.85v-20.81h3.65l6.54,20.9
	h7.95l-7.48-22.59C478.81,108.59,480.4,106.9,481.34,104.65z M473.49,102.31c-0.93,1.22-2.43,1.78-4.49,1.78h-3.18V89.28h3.09
	c2.15,0,3.74,0.66,4.67,1.97c0.93,1.31,1.4,3.09,1.4,5.44C474.98,99.21,474.51,101.09,473.49,102.31z M273.52,81.97h-11.12v50.52
	h7.85v-19.4h3.18c2.62,0,4.77-0.38,6.45-1.13c1.68-0.75,3.09-1.87,4.21-3.19c1.03-1.41,1.78-3,2.24-4.97
	c0.47-1.97,0.65-4.12,0.65-6.47c0-5.34-1.03-9.28-3.18-11.72C281.56,83.09,278.19,81.97,273.52,81.97z M278,103.52
	c-0.93,1.41-2.62,2.06-5.05,2.06h-2.8V89.28h2.9c2.43,0,4.02,0.75,4.95,2.16c0.93,1.41,1.31,3.37,1.31,5.91
	C279.41,100.06,278.94,102.12,278,103.52z M513.5,109.05c-0.66-1.22-1.68-2.25-2.99-3.28c-1.31-1.03-3.09-1.97-5.33-2.81
	c-1.59-0.66-2.8-1.22-3.74-1.78c-0.94-0.56-1.59-1.13-2.06-1.78c-0.47-0.56-0.75-1.22-0.84-1.87c-0.09-0.66-0.19-1.41-0.19-2.25
	c0-0.75,0-1.5,0.19-2.16c0.09-0.75,0.28-1.41,0.65-2.06c0.37-0.66,0.75-1.13,1.31-1.5c0.56-0.38,1.31-0.56,2.24-0.56
	c1.78,0,3.09,0.56,3.65,1.78c0.65,1.13,0.93,2.62,0.93,4.5l7.85-1.78c0-1.31-0.19-2.62-0.56-4.03c-0.37-1.41-1.03-2.72-1.96-3.84
	c-0.94-1.12-2.15-2.16-3.74-2.91c-1.59-0.75-3.55-1.12-5.89-1.12c-2.15,0-4.02,0.38-5.61,1.03c-1.59,0.66-2.9,1.59-3.92,2.91
	c-1.03,1.22-1.78,2.72-2.24,4.41c-0.47,1.69-0.75,3.56-0.75,5.62c0,1.59,0.09,3.09,0.37,4.41c0.28,1.31,0.75,2.62,1.49,3.75
	c0.75,1.22,1.87,2.34,3.36,3.37c1.5,1.03,3.46,2.16,5.8,3.09c1.21,0.56,2.15,1.03,2.9,1.5c0.75,0.47,1.31,0.94,1.78,1.5
	c0.37,0.56,0.65,1.31,0.84,2.16c0.19,0.84,0.19,1.87,0.19,3.09c0,0.94,0,1.87-0.09,2.81c-0.09,0.84-0.28,1.69-0.56,2.34
	c-0.28,0.66-0.75,1.22-1.4,1.59c-0.65,0.38-1.49,0.66-2.52,0.66c-1.78,0-3.09-0.56-3.64-1.78c-0.66-1.22-0.94-2.72-1.12-4.59
	l-7.85,1.5c0,1.69,0.19,3.28,0.65,4.78c0.47,1.5,1.21,2.81,2.24,3.94c1.03,1.12,2.34,1.97,3.93,2.62c1.59,0.66,3.46,0.94,5.61,0.94
	c2.34,0,4.39-0.38,5.98-1.03c1.59-0.66,2.9-1.69,3.93-3c0.93-1.31,1.68-2.81,2.06-4.69c0.37-1.78,0.65-3.84,0.65-6.09
	c0-1.87-0.09-3.56-0.28-5.06C514.62,111.58,514.15,110.27,513.5,109.05z M299.04,81.97c-1.68,8.44-3.37,16.87-5.05,25.31
	c-1.68,8.34-3.37,16.78-5.05,25.31h7.95c0.28-1.78,0.56-3.47,0.93-5.25c0.28-1.78,0.65-3.56,0.93-5.25h9.26l1.96,10.5h7.95
	l-10.19-50.52h-8.69V81.97z M299.88,114.58c0.65-3.56,1.22-7.12,1.78-10.59c0.56-3.47,1.03-6.94,1.5-10.4h0.37l3.27,21H299.88z
	 M365.79,89.28v43.21h7.85V89.28h8.13v-7.31h-24.03v7.31H365.79z M348.96,104.65c0.93-2.16,1.31-4.87,1.31-8.06
	c0-5.16-1.12-8.9-3.46-11.25c-2.34-2.25-5.52-3.47-9.63-3.47h-11.5v50.52h7.85v-20.81h3.74l6.54,20.9h7.95l-7.48-22.59
	C346.53,108.59,348.12,106.9,348.96,104.65z M341.2,102.31c-0.93,1.22-2.43,1.78-4.49,1.78h-3.18V89.28h3.09
	c2.15,0,3.74,0.66,4.67,1.97c0.93,1.31,1.4,3.09,1.4,5.44C342.7,99.21,342.14,101.09,341.2,102.31z M408.98,111.3
	c-0.09,0-0.19,0-0.19,0s-0.09,0-0.19,0l-2.52-6.94c-0.56-1.22-1.03-2.53-1.5-3.75c-0.47-1.22-0.93-2.44-1.4-3.66l-6.08-15h-7.01
	v50.52h7.85v-29.43h0.28c0.94,2.44,1.87,4.78,2.8,7.22c0.93,2.34,1.87,4.78,2.8,7.22l6.08,15h6.82V81.97h-7.67v29.34H408.98z
	 M334.47,60.41h-15.71V46.16h13.65v-7.31h-13.65v-13.5h15.71v-7.22h-24.12v49.49h24.12V60.41z M465.17,56.84l3.83-8.9l3.46-8.81
	h0.28v28.49h8.41V18.13h-8.13l-5.89,13.78l-4.39,11.06h-0.37l-4.3-10.78l-5.89-14.06h-8.23v49.49h8.41V38.94h0.37l3.37,8.72
	l3.93,9.19H465.17z M367.38,60.41h-15.05V18.13h-8.41v49.49h23.47V60.41z M514.71,60.41h-15.7V46.16h13.65v-7.31h-13.65v-13.5h15.7
	v-7.22h-24.12v49.49h24.12V60.41z M434.97,54.97V30.79c0-2.06-0.19-3.84-0.65-5.44c-0.47-1.59-1.12-3-2.15-4.12
	c-1.03-1.12-2.34-1.97-4.02-2.62c-1.68-0.56-3.74-0.84-6.26-0.84c-2.34,0-4.3,0.28-5.98,0.94c-1.68,0.66-3.09,1.5-4.11,2.72
	c-1.03,1.12-1.78,2.53-2.34,4.12c-0.47,1.59-0.75,3.37-0.75,5.34v24.93c0,3.94,1.03,7.03,3.09,9.09c2.06,2.16,5.42,3.19,9.91,3.19
	c4.58,0,7.95-1.12,10-3.28C433.85,62.56,434.97,59.28,434.97,54.97z M426.56,55.35c0,1.5-0.37,2.81-1.12,3.84
	c-0.75,1.03-1.96,1.59-3.65,1.59c-1.68,0-2.9-0.47-3.65-1.5c-0.75-1.03-1.03-2.16-1.03-3.47V30.97c0-0.66,0.09-1.31,0.19-2.06
	c0.09-0.75,0.37-1.41,0.75-1.97c0.37-0.56,0.84-1.12,1.4-1.5c0.65-0.37,1.4-0.56,2.43-0.56c1.78,0,3.09,0.56,3.74,1.59
	c0.65,1.12,0.93,2.34,0.93,3.66V55.35z M274.73,67.62c0.75-3.56,1.5-7.12,2.15-10.69c0.75-3.56,1.5-7.12,2.15-10.69l1.68-8.44H281
	c0.28,1.41,0.56,2.72,0.75,4.12c0.28,1.41,0.56,2.81,0.75,4.12l4.3,21.46h8.69l7.85-49.49h-9.26l-2.15,20.43l-1.22,11.25h-0.28
	c-0.37-1.87-0.75-3.75-1.03-5.62c-0.37-1.87-0.65-3.75-0.93-5.62l-3.93-20.53h-7.2l-4.02,20.43c-0.28,1.87-0.65,3.66-0.93,5.53
	c-0.28,1.78-0.65,3.66-1.03,5.53h-0.28c-0.09-0.47-0.19-1.31-0.28-2.53c-0.09-1.22-0.28-2.62-0.47-3.94
	c-0.19-1.41-0.28-2.72-0.47-3.94c-0.19-1.22-0.28-2.06-0.28-2.53c-0.37-3.09-0.75-6.19-1.12-9.28c-0.37-3-0.75-6.09-1.22-9.28h-9.16
	l7.85,49.49h8.79V67.62z M400.29,55.91c-1.4-0.19-2.8-0.38-4.21-0.56c-1.4-0.19-2.8-0.38-4.21-0.56c-0.09,4.12-1.59,6.09-4.67,6.09
	c-0.93,0-1.68-0.19-2.24-0.47c-0.56-0.38-1.03-0.75-1.4-1.22c-0.37-0.47-0.56-1.03-0.65-1.59c-0.09-0.56-0.19-1.13-0.19-1.59V30.79
	c0-0.66,0.09-1.31,0.19-1.97c0.09-0.66,0.37-1.31,0.65-1.97c0.37-0.56,0.84-1.12,1.4-1.5c0.65-0.37,1.4-0.56,2.43-0.56
	c1.68,0,2.8,0.56,3.55,1.69c0.75,1.12,1.12,2.62,1.12,4.41l8.23-1.87c0-1.69-0.28-3.19-0.75-4.59c-0.47-1.41-1.31-2.62-2.34-3.56
	c-1.03-1.03-2.43-1.78-4.02-2.34c-1.59-0.56-3.55-0.84-5.8-0.84c-2.43,0-4.49,0.37-6.17,1.03c-1.68,0.75-3.08,1.69-4.11,2.91
	c-1.03,1.22-1.78,2.62-2.24,4.31c-0.47,1.59-0.65,3.37-0.65,5.25v24.65c0,3.94,1.03,7.03,3.18,9.09c2.15,2.06,5.42,3.09,9.91,3.09
	c4.21,0,7.39-1.13,9.54-3.28C399.07,62.56,400.19,59.66,400.29,55.91z"/>
<g>
	<path class="st1" d="M176.32,8.7c-5.48-5.47-14.35-5.47-19.83,0L98.61,66.58c-5.48,5.48-5.48,14.35,0,19.83l58.01,58.01
		c5.48,5.47,14.35,5.47,19.83,0l57.88-57.88c5.48-5.48,5.48-14.35,0-19.83L176.32,8.7z"/>
</g>
<g>
	<radialGradient id="SVGID_1_" cx="156.4459" cy="104.3592" r="9.453" gradientUnits="userSpaceOnUse">
		<stop  offset="0.0673" style="stop-color:#34C759"/>
		<stop  offset="0.9403" style="stop-color:#30D158"/>
	</radialGradient>
	<path class="st2" d="M155.61,112.33l8.81-8.81c1.97-1.97,1.97-5.17,0-7.14c-1.97-1.97-5.17-1.97-7.14,0l-8.81,8.81
		c-1.97,1.97-1.97,5.17,0,7.14C150.44,114.3,153.64,114.3,155.61,112.33z"/>
	
		<radialGradient id="SVGID_00000062179007364405554130000009918761332688418213_" cx="144.5909" cy="92.5047" r="9.4527" gradientUnits="userSpaceOnUse">
		<stop  offset="0.0673" style="stop-color:#34C759"/>
		<stop  offset="0.9403" style="stop-color:#30D158"/>
	</radialGradient>
	<path style="fill:url(#SVGID_00000062179007364405554130000009918761332688418213_);" d="M143.75,100.48l8.81-8.81
		c1.97-1.97,1.97-5.17,0-7.14c-1.97-1.97-5.17-1.97-7.14,0l-8.81,8.81c-1.97,1.97-1.97,5.17,0,7.14
		C138.59,102.45,141.78,102.45,143.75,100.48z"/>
	
		<radialGradient id="SVGID_00000152253026748008204510000011399453082690136978_" cx="161.588" cy="64.7241" r="47.2758" gradientUnits="userSpaceOnUse">
		<stop  offset="0.0673" style="stop-color:#34C759"/>
		<stop  offset="0.9403" style="stop-color:#30D158"/>
	</radialGradient>
	<path style="fill:url(#SVGID_00000152253026748008204510000011399453082690136978_);" d="M179.52,60.24l21.44,21.44l0.01,0
		l2.37,2.37c0.01,0.01,0.02,0.03,0.04,0.04c1.91,1.87,4.96,1.86,6.85-0.03c1.87-1.87,1.9-4.87,0.1-6.78l-30.14-30.14l-9.33,9.33
		l-7.18,7.18c-4.63,4.63-12.15,4.63-16.78,0c-1.23-1.23-2.21-2.21-3.43-3.43l-4.96-4.96l24.9-24.9l-9.95-9.95l-41.94,41.94
		l11.48,11.48l5.99-5.99c4.57-4.57,11.99-4.57,16.56,0c2.29,2.29,3.44,5.3,3.43,8.31c3-0.01,6.01,1.14,8.31,3.43
		c2.35,2.35,3.49,5.46,3.42,8.54c3.08-0.07,6.19,1.07,8.54,3.42c2.32,2.32,3.46,5.37,3.43,8.41c3.04-0.04,6.09,1.11,8.41,3.43
		c1.61,1.61,2.65,3.58,3.13,5.65c0.84-0.2,1.65-0.63,2.31-1.29c1.9-1.9,1.9-4.99,0-6.89l-2.37-2.37l0,0l-21.44-21.44
		c-1.37-1.37-1.37-3.58,0-4.95c1.37-1.37,3.58-1.37,4.95,0l21.44,21.44l2.37,2.37l0,0c1.9,1.9,4.99,1.9,6.89,0
		c1.9-1.9,1.9-4.99,0-6.89l-2.37-2.37L174.57,65.2c-1.37-1.37-1.37-3.59,0-4.95C175.93,58.88,178.15,58.88,179.52,60.24z"/>
	
		<radialGradient id="SVGID_00000050639518418329558910000001991066492556692385_" cx="168.1652" cy="116.079" r="9.453" gradientUnits="userSpaceOnUse">
		<stop  offset="0.0673" style="stop-color:#34C759"/>
		<stop  offset="0.9403" style="stop-color:#30D158"/>
	</radialGradient>
	<path style="fill:url(#SVGID_00000050639518418329558910000001991066492556692385_);" d="M167.33,124.05l8.81-8.81
		c1.97-1.97,1.97-5.17,0-7.14c-1.97-1.97-5.17-1.97-7.14,0l-8.81,8.81c-1.97,1.97-1.97,5.17,0,7.14
		C162.16,126.02,165.36,126.02,167.33,124.05z"/>
	
		<radialGradient id="SVGID_00000157283968120864431960000017323571447741817998_" cx="132.7542" cy="80.6677" r="9.4529" gradientUnits="userSpaceOnUse">
		<stop  offset="0.0673" style="stop-color:#34C759"/>
		<stop  offset="0.9403" style="stop-color:#30D158"/>
	</radialGradient>
	<path style="fill:url(#SVGID_00000157283968120864431960000017323571447741817998_);" d="M140.73,72.69
		c-1.97-1.97-5.17-1.97-7.14,0l-8.81,8.81c-1.97,1.97-1.97,5.17,0,7.14c1.97,1.97,5.17,1.97,7.14,0l8.81-8.81
		C142.7,77.86,142.7,74.66,140.73,72.69z"/>
	
		<radialGradient id="SVGID_00000103250621303005382510000016197810352014504332_" cx="166.4784" cy="104.5897" r="53.7566" gradientUnits="userSpaceOnUse">
		<stop  offset="0.0673" style="stop-color:#34C759"/>
		<stop  offset="0.9403" style="stop-color:#30D158"/>
	</radialGradient>
	<path style="fill:url(#SVGID_00000103250621303005382510000016197810352014504332_);" d="M225.87,66.7l-8.51,8.51
		c2.28,4.46,1.56,10.07-2.18,13.8c-2.31,2.31-5.34,3.47-8.36,3.48c-0.01,3.03-1.17,6.05-3.48,8.36c-2.31,2.31-5.34,3.47-8.37,3.48
		c-0.01,3.03-1.17,6.06-3.48,8.37c-2.18,2.18-5,3.33-7.86,3.46c-0.57,1.37-1.41,2.66-2.53,3.78l-9.07,9.07
		c-4.57,4.57-11.99,4.57-16.56,0c-2.32-2.32-3.46-5.37-3.43-8.41c-3.04,0.04-6.09-1.11-8.41-3.43c-2.35-2.35-3.49-5.46-3.42-8.54
		c-3.08,0.07-6.19-1.07-8.54-3.42c-2.29-2.29-3.44-5.3-3.43-8.31c-3.01,0.01-6.01-1.14-8.31-3.43c-3.93-3.93-4.48-9.94-1.66-14.46
		l-11.7-11.7l-3.66,3.66c-3.11,3.11-3.11,8.17,0,11.28l57.89,57.89c3.12,3.12,8.17,3.12,11.28,0l57.97-57.97
		c3.12-3.11,3.12-8.17,0-11.28L225.87,66.7z"/>
	
		<radialGradient id="SVGID_00000103234298428880076320000016320810143080933266_" cx="167.442" cy="18.0285" r="8.2374" gradientUnits="userSpaceOnUse">
		<stop  offset="0.0673" style="stop-color:#34C759"/>
		<stop  offset="0.9403" style="stop-color:#30D158"/>
	</radialGradient>
	<path style="fill:url(#SVGID_00000103234298428880076320000016320810143080933266_);" d="M168.37,25.4l8.1-8.1l-4.3-4.31
		c-3.12-3.11-8.17-3.11-11.28,0l-2.46,2.46L168.37,25.4z"/>
	
		<radialGradient id="SVGID_00000123437852383436021190000013860823673741101445_" cx="168.3074" cy="41.0883" r="19.4125" gradientUnits="userSpaceOnUse">
		<stop  offset="0.0673" style="stop-color:#34C759"/>
		<stop  offset="0.9403" style="stop-color:#30D158"/>
	</radialGradient>
	<path style="fill:url(#SVGID_00000123437852383436021190000013860823673741101445_);" d="M159.12,58.29l12.25-12.25l4.89-4.89
		l3.2-3.2l0.73-0.73l8.1-8.1l-6.86-6.86l-33.1,33.1l2.93,2.93C153.43,60.46,156.95,60.46,159.12,58.29z"/>
	
		<radialGradient id="SVGID_00000183249738957633941440000015325190684089816478_" cx="200.35" cy="49.2841" r="20.5561" gradientUnits="userSpaceOnUse">
		<stop  offset="0.0673" style="stop-color:#34C759"/>
		<stop  offset="0.9403" style="stop-color:#30D158"/>
	</radialGradient>
	<polygon style="fill:url(#SVGID_00000183249738957633941440000015325190684089816478_);" points="220.91,61.74 187.89,28.73 
		179.79,36.83 212.81,69.84 	"/>
</g>
</svg>
