<svg id="ej8N5rMhkcW1" xmlns="http://www.w3.org/2000/svg" xmlns:xlink="http://www.w3.org/1999/xlink" viewBox="0 0 612 420" shape-rendering="geometricPrecision" text-rendering="geometricPrecision" width="612" height="420">
<style><![CDATA[
#ej8N5rMhkcW8_to {animation: ej8N5rMhkcW8_to__to 1490ms linear infinite normal forwards}@keyframes ej8N5rMhkcW8_to__to { 0% {transform: translate(-126.001959px,291.250588px)} 51.006711% {transform: translate(738.949006px,291.250588px)} 100% {transform: translate(738.949006px,291.250588px)}}
]]></style>
<defs><linearGradient id="ej8N5rMhkcW4-fill" x1="305.526" y1="325.745" x2="306.472" y2="459.708" spreadMethod="pad" gradientUnits="userSpaceOnUse" gradientTransform="translate(0 0)"><stop id="ej8N5rMhkcW4-fill-0" offset="0%" stop-color="#e02d2f"/><stop id="ej8N5rMhkcW4-fill-1" offset="100%" stop-color="#810825"/></linearGradient><linearGradient id="ej8N5rMhkcW5-fill" x1="323.405" y1="192.297" x2="747.263" y2="193.726" spreadMethod="pad" gradientUnits="userSpaceOnUse" gradientTransform="translate(0 0)"><stop id="ej8N5rMhkcW5-fill-0" offset="0%" stop-color="rgba(26,14,14,0)"/><stop id="ej8N5rMhkcW5-fill-1" offset="66.3827%" stop-color="rgba(13,7,7,0.35)"/><stop id="ej8N5rMhkcW5-fill-2" offset="100%" stop-color="rgba(34,14,14,0.64)"/></linearGradient><filter id="ej8N5rMhkcW9-filter" x="-150%" width="400%" y="-150%" height="400%"><feGaussianBlur id="ej8N5rMhkcW9-filter-blur-0" stdDeviation="64,40" result="result"/></filter><filter id="ej8N5rMhkcW10-filter" x="-150%" width="400%" y="-150%" height="400%"><feGaussianBlur id="ej8N5rMhkcW10-filter-blur-0" stdDeviation="48,32" result="result"/></filter><linearGradient id="ej8N5rMhkcW14-fill" x1="323.405" y1="192.297" x2="747.263" y2="193.726" spreadMethod="pad" gradientUnits="userSpaceOnUse" gradientTransform="translate(0 0)"><stop id="ej8N5rMhkcW14-fill-0" offset="0%" stop-color="rgba(26,14,14,0)"/><stop id="ej8N5rMhkcW14-fill-1" offset="66.3827%" stop-color="rgba(13,7,7,0.35)"/><stop id="ej8N5rMhkcW14-fill-2" offset="100%" stop-color="rgba(34,14,14,0.64)"/></linearGradient></defs><g transform="translate(.000001 0.000001)"><g transform="translate(.000001 0.000001)"><path d="M305.526,0l60.625,81.5045c-4.445,2.1436-8.431,5.7468-11.868,9.1675-11.594,11.539-19.063,26.727-23.554,42.28-6.873,23.9-7.332,50.399-6.599,75.119.734,25.724,10.219,56.77,42.021,56.77c19.187-3.653,27.839-10.959,35.702-23.474c9.944-15.827,16.056-44.793,14.681-63.402-1.309-17.714-5.996-27.283-13.519-42.639-.38-.776-.767-1.567-1.162-2.374l60.558-63.5797l21.646,80.3997c0,0-19.842,13.055-34.918,41.789-19.429,37.126-21.594,88.897,10.906,92.314c26.899,2.828,54.654-31.819,61.089-48.258.881-2.25,1.792-4.496,2.7-6.735l.002-.006c7.266-17.912,14.354-35.385,4.375-50.911l82.842-43.28L484.057,361.913h-178.508c0,0,1.733,0-.045.003-39.668.07-79.337.047-119.006.023-19.834-.011-39.668-.023-59.502-.023L0,134.689l82.8416,43.279c-9.9785,15.526-2.891,32.999,4.3748,50.911l.0002.001c.909,2.241,1.8208,4.489,2.7022,6.74c6.4352,16.439,34.1902,51.086,61.0892,48.258c32.5-3.417,30.335-55.188,10.906-92.314-15.076-28.734-34.918-41.789-34.918-41.789l21.646-80.3996l60.557,63.5796c-.389.797-.771,1.578-1.147,2.344l-.014.03c-7.523,15.357-12.211,24.925-13.519,42.639-1.375,18.609,4.736,47.575,14.68,63.402c7.864,12.515,16.516,19.821,35.702,23.474c31.803,0,41.288-31.046,42.021-56.769.734-24.721.275-51.22-6.598-75.12-4.491-15.553-11.961-30.741-23.554-42.2798-3.437-3.4208-7.424-7.0239-11.869-9.1676L305.526,0ZM126.216,378.876h358.574v30.65h-358.574v-30.65Z" transform="translate(.947 0)" clip-rule="evenodd" fill="url(#ej8N5rMhkcW4-fill)" fill-rule="evenodd"/><path d="M305.526,0l60.625,81.5045c-4.445,2.1436-8.431,5.7468-11.868,9.1675-11.594,11.539-19.063,26.727-23.554,42.28-6.873,23.9-7.332,50.399-6.599,75.119.734,25.724,10.219,56.77,42.021,56.77c19.187-3.653,27.839-10.959,35.702-23.474c9.944-15.827,16.056-44.793,14.681-63.402-1.309-17.714-5.996-27.283-13.519-42.639-.38-.776-.767-1.567-1.162-2.374l60.558-63.5797l21.646,80.3997c0,0-19.842,13.055-34.918,41.789-19.429,37.126-21.594,88.897,10.906,92.314c26.899,2.828,54.654-31.819,61.089-48.258.881-2.25,1.792-4.496,2.7-6.735l.002-.006c7.266-17.912,14.354-35.385,4.375-50.911l82.842-43.28L484.057,361.913h-178.508c0,0,1.733,0-.045.003-39.668.07-79.337.047-119.006.023-19.834-.011-39.668-.023-59.502-.023L0,134.689l82.8416,43.279c-9.9785,15.526-2.891,32.999,4.3748,50.911l.0002.001c.909,2.241,1.8208,4.489,2.7022,6.74c6.4352,16.439,34.1902,51.086,61.0892,48.258c32.5-3.417,30.335-55.188,10.906-92.314-15.076-28.734-34.918-41.789-34.918-41.789l21.646-80.3996l60.557,63.5796c-.389.797-.771,1.578-1.147,2.344l-.014.03c-7.523,15.357-12.211,24.925-13.519,42.639-1.375,18.609,4.736,47.575,14.68,63.402c7.864,12.515,16.516,19.821,35.702,23.474c31.803,0,41.288-31.046,42.021-56.769.734-24.721.275-51.22-6.598-75.12-4.491-15.553-11.961-30.741-23.554-42.2798-3.437-3.4208-7.424-7.0239-11.869-9.1676L305.526,0ZM126.216,378.876h358.574v30.65h-358.574v-30.65Z" transform="translate(.947 0)" clip-rule="evenodd" fill="url(#ej8N5rMhkcW5-fill)" fill-rule="evenodd"/></g><g mask="url(#ej8N5rMhkcW12)"><g><g id="ej8N5rMhkcW8_to" transform="translate(-126.001959,291.250588)"><g style="mix-blend-mode:luminosity" transform="translate(-100.407804,-291.250587)"><rect style="mix-blend-mode:difference" width="122.81796" height="373.986219" rx="0" ry="0" transform="matrix(.942558 0.552442-1.156587 1.973331 258.800168-108.673515)" opacity="0.89" filter="url(#ej8N5rMhkcW9-filter)" fill="#fff" stroke-width="0"/><rect style="mix-blend-mode:soft-light" width="122.81796" height="373.986219" rx="0" ry="0" transform="matrix(.338816 0.198583-1.156587 1.973331 295.875388-86.943389)" opacity="0.45" filter="url(#ej8N5rMhkcW10-filter)" fill="#fff" stroke-width="0"/><rect style="mix-blend-mode:soft-light" width="122.81796" height="373.986219" rx="0" ry="0" transform="matrix(.338816 0.198583-1.156587 1.973331 295.875388-86.943389)" opacity="0.45" fill="#fff" stroke-width="0"/></g></g></g><mask id="ej8N5rMhkcW12" mask-type="luminance" x="-150%" y="-150%" height="400%" width="400%"><path d="M305.526,0l60.625,81.5045c-4.445,2.1436-8.431,5.7468-11.868,9.1675-11.594,11.539-19.063,26.727-23.554,42.28-6.873,23.9-7.332,50.399-6.599,75.119.734,25.724,10.219,56.77,42.021,56.77c19.187-3.653,27.839-10.959,35.702-23.474c9.944-15.827,16.056-44.793,14.681-63.402-1.309-17.714-5.996-27.283-13.519-42.639-.38-.776-.767-1.567-1.162-2.374l60.558-63.5797l21.646,80.3997c0,0-19.842,13.055-34.918,41.789-19.429,37.126-21.594,88.897,10.906,92.314c26.899,2.828,54.654-31.819,61.089-48.258.881-2.25,1.792-4.496,2.7-6.735l.002-.006c7.266-17.912,14.354-35.385,4.375-50.911l82.842-43.28L484.057,361.913h-178.508c0,0,1.733,0-.045.003-39.668.07-79.337.047-119.006.023-19.834-.011-39.668-.023-59.502-.023L0,134.689l82.8416,43.279c-9.9785,15.526-2.891,32.999,4.3748,50.911l.0002.001c.909,2.241,1.8208,4.489,2.7022,6.74c6.4352,16.439,34.1902,51.086,61.0892,48.258c32.5-3.417,30.335-55.188,10.906-92.314-15.076-28.734-34.918-41.789-34.918-41.789l21.646-80.3996l60.557,63.5796c-.389.797-.771,1.578-1.147,2.344l-.014.03c-7.523,15.357-12.211,24.925-13.519,42.639-1.375,18.609,4.736,47.575,14.68,63.402c7.864,12.515,16.516,19.821,35.702,23.474c31.803,0,41.288-31.046,42.021-56.769.734-24.721.275-51.22-6.598-75.12-4.491-15.553-11.961-30.741-23.554-42.2798-3.437-3.4208-7.424-7.0239-11.869-9.1676L305.526,0ZM126.216,378.876h358.574v30.65h-358.574v-30.65Z" transform="translate(.947 0)" clip-rule="evenodd" fill="#fff" fill-rule="evenodd"/></mask></g><path d="M305.526,0l60.625,81.5045c-4.445,2.1436-8.431,5.7468-11.868,9.1675-11.594,11.539-19.063,26.727-23.554,42.28-6.873,23.9-7.332,50.399-6.599,75.119.734,25.724,10.219,56.77,42.021,56.77c19.187-3.653,27.839-10.959,35.702-23.474c9.944-15.827,16.056-44.793,14.681-63.402-1.309-17.714-5.996-27.283-13.519-42.639-.38-.776-.767-1.567-1.162-2.374l60.558-63.5797l21.646,80.3997c0,0-19.842,13.055-34.918,41.789-19.429,37.126-21.594,88.897,10.906,92.314c26.899,2.828,54.654-31.819,61.089-48.258.881-2.25,1.792-4.496,2.7-6.735l.002-.006c7.266-17.912,14.354-35.385,4.375-50.911l82.842-43.28L484.057,361.913h-178.508c0,0,1.733,0-.045.003-39.668.07-79.337.047-119.006.023-19.834-.011-39.668-.023-59.502-.023L0,134.689l82.8416,43.279c-9.9785,15.526-2.891,32.999,4.3748,50.911l.0002.001c.909,2.241,1.8208,4.489,2.7022,6.74c6.4352,16.439,34.1902,51.086,61.0892,48.258c32.5-3.417,30.335-55.188,10.906-92.314-15.076-28.734-34.918-41.789-34.918-41.789l21.646-80.3996l60.557,63.5796c-.389.797-.771,1.578-1.147,2.344l-.014.03c-7.523,15.357-12.211,24.925-13.519,42.639-1.375,18.609,4.736,47.575,14.68,63.402c7.864,12.515,16.516,19.821,35.702,23.474c31.803,0,41.288-31.046,42.021-56.769.734-24.721.275-51.22-6.598-75.12-4.491-15.553-11.961-30.741-23.554-42.2798-3.437-3.4208-7.424-7.0239-11.869-9.1676L305.526,0ZM126.216,378.876h358.574v30.65h-358.574v-30.65Z" transform="translate(.947 0)" clip-rule="evenodd" fill="url(#ej8N5rMhkcW14-fill)" fill-rule="evenodd"/></g></svg>
