<svg width="128" height="48" viewBox="0 0 128 48" fill="none" xmlns="http://www.w3.org/2000/svg">
<g filter="url(#filter0_d_3263_10627)">
<path fill-rule="evenodd" clip-rule="evenodd" d="M31.9731 7.06294L36.7395 13.4611C36.39 13.6294 36.0766 13.9123 35.8064 14.1808C34.8949 15.0866 34.3077 16.2789 33.9546 17.4998C33.4142 19.376 33.3782 21.4562 33.4358 23.3968C33.4935 25.4161 34.2392 27.8533 36.7395 27.8533C38.2479 27.5665 38.9281 26.993 39.5463 26.0105C40.3281 24.7681 40.8086 22.4942 40.7005 21.0334C40.5976 19.6428 40.2291 18.8917 39.6377 17.6861L39.5463 17.4998L44.3073 12.5087L46.0091 18.8202C46.0091 18.8202 44.4492 19.845 43.2639 22.1007C41.7364 25.0151 41.5662 29.0792 44.1213 29.3474C46.2361 29.5694 48.4182 26.8496 48.9241 25.5592C48.9934 25.3824 49.0651 25.2059 49.1366 25.03C49.7078 23.6238 50.265 22.2522 49.4805 21.0334L55.9935 17.6359L46.0091 35.4735H31.9749C31.9749 35.4735 32.1112 35.4735 31.9714 35.4738C28.8527 35.4792 25.734 35.4774 22.6153 35.4756C21.0559 35.4747 19.4965 35.4738 17.9372 35.4738L7.95288 17.6361L14.4658 21.0336C13.6813 22.2524 14.2385 23.6241 14.8098 25.0302L14.8098 25.0304C14.8813 25.2062 14.9529 25.3827 15.0222 25.5594C15.5282 26.8498 17.7102 29.5697 19.825 29.3477C22.3802 29.0795 22.21 25.0154 20.6824 22.1009C19.4972 19.8453 17.9372 18.8205 17.9372 18.8205L19.639 12.509L24.4 17.5001L24.3087 17.6864C23.7172 18.8919 23.3487 19.6431 23.2458 21.0336C23.1377 22.4944 23.6182 24.7683 24.4 26.0107C25.0182 26.9932 25.6985 27.5667 27.2069 27.8535C29.7071 27.8535 30.4529 25.4164 30.5105 23.397C30.5682 21.4564 30.5321 19.3762 29.9917 17.5001C29.6387 16.2792 29.0514 15.0869 28.14 14.181C27.8698 13.9125 27.5563 13.6297 27.2069 13.4614L31.9731 7.06294ZM17.876 36.8052H46.0669V39.2112H17.876V36.8052Z" fill="url(#paint0_linear_3263_10627)"/>
<path fill-rule="evenodd" clip-rule="evenodd" d="M31.9731 7.06294L36.7395 13.4611C36.39 13.6294 36.0766 13.9123 35.8064 14.1808C34.8949 15.0866 34.3077 16.2789 33.9546 17.4998C33.4142 19.376 33.3782 21.4562 33.4358 23.3968C33.4935 25.4161 34.2392 27.8533 36.7395 27.8533C38.2479 27.5665 38.9281 26.993 39.5463 26.0105C40.3281 24.7681 40.8086 22.4942 40.7005 21.0334C40.5976 19.6428 40.2291 18.8917 39.6377 17.6861L39.5463 17.4998L44.3073 12.5087L46.0091 18.8202C46.0091 18.8202 44.4492 19.845 43.2639 22.1007C41.7364 25.0151 41.5662 29.0792 44.1213 29.3474C46.2361 29.5694 48.4182 26.8496 48.9241 25.5592C48.9934 25.3824 49.0651 25.2059 49.1366 25.03C49.7078 23.6238 50.265 22.2522 49.4805 21.0334L55.9935 17.6359L46.0091 35.4735H31.9749C31.9749 35.4735 32.1112 35.4735 31.9714 35.4738C28.8527 35.4792 25.734 35.4774 22.6153 35.4756C21.0559 35.4747 19.4965 35.4738 17.9372 35.4738L7.95288 17.6361L14.4658 21.0336C13.6813 22.2524 14.2385 23.6241 14.8098 25.0302L14.8098 25.0304C14.8813 25.2062 14.9529 25.3827 15.0222 25.5594C15.5282 26.8498 17.7102 29.5697 19.825 29.3477C22.3802 29.0795 22.21 25.0154 20.6824 22.1009C19.4972 19.8453 17.9372 18.8205 17.9372 18.8205L19.639 12.509L24.4 17.5001L24.3087 17.6864C23.7172 18.8919 23.3487 19.6431 23.2458 21.0336C23.1377 22.4944 23.6182 24.7683 24.4 26.0107C25.0182 26.9932 25.6985 27.5667 27.2069 27.8535C29.7071 27.8535 30.4529 25.4164 30.5105 23.397C30.5682 21.4564 30.5321 19.3762 29.9917 17.5001C29.6387 16.2792 29.0514 15.0869 28.14 14.181C27.8698 13.9125 27.5563 13.6297 27.2069 13.4614L31.9731 7.06294ZM17.876 36.8052H46.0669V39.2112H17.876V36.8052Z" fill="url(#paint1_linear_3263_10627)"/>
<path fill-rule="evenodd" clip-rule="evenodd" d="M31.9731 7.06294L36.7395 13.4611C36.39 13.6294 36.0766 13.9123 35.8064 14.1808C34.8949 15.0866 34.3077 16.2789 33.9546 17.4998C33.4142 19.376 33.3782 21.4562 33.4358 23.3968C33.4935 25.4161 34.2392 27.8533 36.7395 27.8533C38.2479 27.5665 38.9281 26.993 39.5463 26.0105C40.3281 24.7681 40.8086 22.4942 40.7005 21.0334C40.5976 19.6428 40.2291 18.8917 39.6377 17.6861L39.5463 17.4998L44.3073 12.5087L46.0091 18.8202C46.0091 18.8202 44.4492 19.845 43.2639 22.1007C41.7364 25.0151 41.5662 29.0792 44.1213 29.3474C46.2361 29.5694 48.4182 26.8496 48.9241 25.5592C48.9934 25.3824 49.0651 25.2059 49.1366 25.03C49.7078 23.6238 50.265 22.2522 49.4805 21.0334L55.9935 17.6359L46.0091 35.4735H31.9749C31.9749 35.4735 32.1112 35.4735 31.9714 35.4738C28.8527 35.4792 25.734 35.4774 22.6153 35.4756C21.0559 35.4747 19.4965 35.4738 17.9372 35.4738L7.95288 17.6361L14.4658 21.0336C13.6813 22.2524 14.2385 23.6241 14.8098 25.0302L14.8098 25.0304C14.8813 25.2062 14.9529 25.3827 15.0222 25.5594C15.5282 26.8498 17.7102 29.5697 19.825 29.3477C22.3802 29.0795 22.21 25.0154 20.6824 22.1009C19.4972 19.8453 17.9372 18.8205 17.9372 18.8205L19.639 12.509L24.4 17.5001L24.3087 17.6864C23.7172 18.8919 23.3487 19.6431 23.2458 21.0336C23.1377 22.4944 23.6182 24.7683 24.4 26.0107C25.0182 26.9932 25.6985 27.5667 27.2069 27.8535C29.7071 27.8535 30.4529 25.4164 30.5105 23.397C30.5682 21.4564 30.5321 19.3762 29.9917 17.5001C29.6387 16.2792 29.0514 15.0869 28.14 14.181C27.8698 13.9125 27.5563 13.6297 27.2069 13.4614L31.9731 7.06294ZM17.876 36.8052H46.0669V39.2112H17.876V36.8052Z" fill="url(#paint2_linear_3263_10627)"/>
</g>
<g filter="url(#filter1_d_3263_10627)">
<path d="M52.1981 20.5485L55.5717 25.9973V26.6355H50.7945L47.8395 21.2603H45.4756V26.6355H40.9692V9.45453C43.5302 9.45453 46.0173 9.42998 48.5537 9.45453C52.7153 9.45453 54.7591 12.5226 54.7591 15.5415C54.7345 17.505 53.8972 19.3949 52.1981 20.5485ZM45.4017 17.6032H48.529C49.7849 17.6032 50.4005 16.5233 50.4005 15.4433C50.4005 14.3634 49.8095 13.3571 48.529 13.3571H45.4017V17.6032Z" fill="url(#paint3_linear_3263_10627)"/>
<path d="M74.7158 18.0695C74.7158 23.322 71.0713 26.9791 65.8508 26.9791C61.2953 26.9791 57.0352 24.0338 57.0352 18.0695C57.0352 12.1298 61.443 9.13545 65.9247 9.13545C70.3325 9.13545 74.7158 12.1298 74.7158 18.0695ZM61.5415 18.0695C61.5415 21.1376 63.6592 22.7329 65.8755 22.7329C68.0178 22.7329 70.2094 21.1376 70.2094 18.0695C70.2094 15.0015 68.0671 13.4061 65.9247 13.4061C63.6839 13.4061 61.5415 14.9279 61.5415 18.0695Z" fill="url(#paint4_linear_3263_10627)"/>
<path d="M82.7829 15.1733H82.9799L86.1072 9.47907H90.8844V10.1418L85.1222 19.8613V26.66H80.6159V19.8613L74.8291 10.1418V9.47907H79.6555L82.7829 15.1733Z" fill="url(#paint5_linear_3263_10627)"/>
<path d="M101.226 24.5247H94.7742L93.7892 26.66H89.0858V26.0464L96.9904 9.30726H99.0589L106.89 26.0464V26.66H102.235L101.226 24.5247ZM98 16.6214L96.227 20.7694H99.7976L98 16.6214Z" fill="url(#paint6_linear_3263_10627)"/>
<path d="M112.977 9.47907V22.6348H119.207V26.66H108.47V9.47907H112.977Z" fill="url(#paint7_linear_3263_10627)"/>
</g>
<path d="M53.2087 34.8022C53.2087 31.6389 55.5913 30.1032 57.9739 30.1032C59.8906 30.1032 61.9937 31.127 62.3531 33.5815H60.0104C59.6777 32.6365 58.9722 32.269 57.9739 32.269C56.563 32.269 55.6446 33.2665 55.6446 34.7891C55.6446 36.1148 56.5497 37.283 57.9739 37.283C58.9855 37.283 59.7842 36.8236 60.0371 35.8261H62.3797C62.0203 38.4381 59.9572 39.475 57.9739 39.475C55.5913 39.475 53.2087 37.8999 53.2087 34.8022Z" fill="url(#paint8_linear_3263_10627)"/>
<path d="M69.0749 38.2412H65.5876L65.0551 39.3832H62.5128V39.055L66.7855 30.1032H67.9036L72.1364 39.055V39.3832H69.6207L69.0749 38.2412ZM67.3312 34.0147L66.3729 36.233H68.3029L67.3312 34.0147Z" fill="url(#paint9_linear_3263_10627)"/>
<path d="M72.434 36.5611H74.75C74.75 37.1911 75.4821 37.5062 76.2275 37.5062C76.9196 37.5062 77.6517 37.1911 77.6517 36.6399C77.6517 35.7604 76.6135 35.7211 75.9347 35.6817C74.2309 35.5767 72.5271 34.9073 72.5271 32.9909C72.5271 30.9958 74.2442 29.9851 76.1476 29.9851C77.9445 29.9851 79.7681 30.9958 79.7282 32.9909H77.4521C77.4387 32.3608 76.8398 32.0983 76.1876 32.0983C75.6418 32.0983 74.923 32.2427 74.923 32.9384C74.923 33.5553 75.4555 33.6997 76.3473 33.7916C78.3306 33.9622 80.0609 34.4216 80.0609 36.653C80.0609 38.5825 78.1575 39.5932 76.2541 39.5932C74.2841 39.5932 72.394 38.6219 72.434 36.5611Z" fill="url(#paint10_linear_3263_10627)"/>
<path d="M84.805 37.4405H85.9896V39.3832H81.1845V37.4405H82.3692V32.1377H81.291V30.1951H85.8832V32.1377H84.805V37.4405Z" fill="url(#paint11_linear_3263_10627)"/>
<path d="M94.9614 39.4094L90.0631 34.6447V39.3832H87.6273V30.1557H88.386L93.2443 34.6841V30.1951H95.6801V39.4094H94.9614Z" fill="url(#paint12_linear_3263_10627)"/>
<path d="M106.74 34.7891C106.74 37.598 104.77 39.5538 101.948 39.5538C99.4854 39.5538 97.1827 37.9787 97.1827 34.7891C97.1827 31.6127 99.5653 30.0113 101.988 30.0113C104.37 30.0113 106.74 31.6127 106.74 34.7891ZM99.6185 34.7891C99.6185 36.4298 100.763 37.283 101.961 37.283C103.119 37.283 104.304 36.4298 104.304 34.7891C104.304 33.1484 103.146 32.2952 101.988 32.2952C100.777 32.2952 99.6185 33.109 99.6185 34.7891Z" fill="url(#paint13_linear_3263_10627)"/>
<defs>
<filter id="filter0_d_3263_10627" x="7.95288" y="7.06294" width="48.5157" height="32.6235" filterUnits="userSpaceOnUse" color-interpolation-filters="sRGB">
<feFlood flood-opacity="0" result="BackgroundImageFix"/>
<feColorMatrix in="SourceAlpha" type="matrix" values="0 0 0 0 0 0 0 0 0 0 0 0 0 0 0 0 0 0 127 0" result="hardAlpha"/>
<feOffset dx="0.237601" dy="0.237601"/>
<feGaussianBlur stdDeviation="0.1188"/>
<feComposite in2="hardAlpha" operator="out"/>
<feColorMatrix type="matrix" values="0 0 0 0 0 0 0 0 0 0 0 0 0 0 0 0 0 0 0.25 0"/>
<feBlend mode="normal" in2="BackgroundImageFix" result="effect1_dropShadow_3263_10627"/>
<feBlend mode="normal" in="SourceGraphic" in2="effect1_dropShadow_3263_10627" result="shape"/>
</filter>
<filter id="filter1_d_3263_10627" x="40.9692" y="9.13545" width="78.7128" height="18.3188" filterUnits="userSpaceOnUse" color-interpolation-filters="sRGB">
<feFlood flood-opacity="0" result="BackgroundImageFix"/>
<feColorMatrix in="SourceAlpha" type="matrix" values="0 0 0 0 0 0 0 0 0 0 0 0 0 0 0 0 0 0 127 0" result="hardAlpha"/>
<feOffset dx="0.237601" dy="0.237601"/>
<feGaussianBlur stdDeviation="0.1188"/>
<feComposite in2="hardAlpha" operator="out"/>
<feColorMatrix type="matrix" values="0 0 0 0 0.0571758 0 0 0 0 0.0684304 0 0 0 0 0.0902776 0 0 0 0.48 0"/>
<feBlend mode="normal" in2="BackgroundImageFix" result="effect1_dropShadow_3263_10627"/>
<feBlend mode="normal" in="SourceGraphic" in2="effect1_dropShadow_3263_10627" result="shape"/>
</filter>
<linearGradient id="paint0_linear_3263_10627" x1="31.9732" y1="36.7314" x2="31.9732" y2="39.2112" gradientUnits="userSpaceOnUse">
<stop stop-color="#D63637"/>
<stop offset="1" stop-color="#810825"/>
</linearGradient>
<linearGradient id="paint1_linear_3263_10627" x1="31.9732" y1="36.7314" x2="31.9732" y2="39.2112" gradientUnits="userSpaceOnUse">
<stop stop-color="#E02D2F"/>
<stop offset="1" stop-color="#810825"/>
</linearGradient>
<linearGradient id="paint2_linear_3263_10627" x1="33.3787" y1="32.7815" x2="54.4953" y2="30.2151" gradientUnits="userSpaceOnUse">
<stop stop-color="#1A0E0E" stop-opacity="0"/>
<stop offset="0.361666" stop-color="#0D0707" stop-opacity="0.5"/>
<stop offset="1" stop-color="#220E0E"/>
</linearGradient>
<linearGradient id="paint3_linear_3263_10627" x1="79.0168" y1="8.25186" x2="79.0168" y2="32.7961" gradientUnits="userSpaceOnUse">
<stop offset="0.0366663" stop-color="white"/>
<stop offset="0.426666" stop-color="white"/>
<stop offset="0.641666" stop-color="#E3E3E3"/>
<stop offset="0.826666" stop-color="#A5A5A5"/>
</linearGradient>
<linearGradient id="paint4_linear_3263_10627" x1="79.0168" y1="8.25186" x2="79.0168" y2="32.7961" gradientUnits="userSpaceOnUse">
<stop offset="0.0366663" stop-color="white"/>
<stop offset="0.426666" stop-color="white"/>
<stop offset="0.641666" stop-color="#E3E3E3"/>
<stop offset="0.826666" stop-color="#A5A5A5"/>
</linearGradient>
<linearGradient id="paint5_linear_3263_10627" x1="79.0168" y1="8.25186" x2="79.0168" y2="32.7961" gradientUnits="userSpaceOnUse">
<stop offset="0.0366663" stop-color="white"/>
<stop offset="0.426666" stop-color="white"/>
<stop offset="0.641666" stop-color="#E3E3E3"/>
<stop offset="0.826666" stop-color="#A5A5A5"/>
</linearGradient>
<linearGradient id="paint6_linear_3263_10627" x1="79.0168" y1="8.25186" x2="79.0168" y2="32.7961" gradientUnits="userSpaceOnUse">
<stop offset="0.0366663" stop-color="white"/>
<stop offset="0.426666" stop-color="white"/>
<stop offset="0.641666" stop-color="#E3E3E3"/>
<stop offset="0.826666" stop-color="#A5A5A5"/>
</linearGradient>
<linearGradient id="paint7_linear_3263_10627" x1="79.0168" y1="8.25186" x2="79.0168" y2="32.7961" gradientUnits="userSpaceOnUse">
<stop offset="0.0366663" stop-color="white"/>
<stop offset="0.426666" stop-color="white"/>
<stop offset="0.641666" stop-color="#E3E3E3"/>
<stop offset="0.826666" stop-color="#A5A5A5"/>
</linearGradient>
<linearGradient id="paint8_linear_3263_10627" x1="80.0238" y1="39.9793" x2="80.0238" y2="42.6646" gradientUnits="userSpaceOnUse">
<stop stop-color="#D63637"/>
<stop offset="1" stop-color="#810825"/>
</linearGradient>
<linearGradient id="paint9_linear_3263_10627" x1="80.0238" y1="39.9793" x2="80.0238" y2="42.6646" gradientUnits="userSpaceOnUse">
<stop stop-color="#D63637"/>
<stop offset="1" stop-color="#810825"/>
</linearGradient>
<linearGradient id="paint10_linear_3263_10627" x1="80.0238" y1="39.9793" x2="80.0238" y2="42.6646" gradientUnits="userSpaceOnUse">
<stop stop-color="#D63637"/>
<stop offset="1" stop-color="#810825"/>
</linearGradient>
<linearGradient id="paint11_linear_3263_10627" x1="80.0238" y1="39.9793" x2="80.0238" y2="42.6646" gradientUnits="userSpaceOnUse">
<stop stop-color="#D63637"/>
<stop offset="1" stop-color="#810825"/>
</linearGradient>
<linearGradient id="paint12_linear_3263_10627" x1="80.0238" y1="39.9793" x2="80.0238" y2="42.6646" gradientUnits="userSpaceOnUse">
<stop stop-color="#D63637"/>
<stop offset="1" stop-color="#810825"/>
</linearGradient>
<linearGradient id="paint13_linear_3263_10627" x1="80.0238" y1="39.9793" x2="80.0238" y2="42.6646" gradientUnits="userSpaceOnUse">
<stop stop-color="#D63637"/>
<stop offset="1" stop-color="#810825"/>
</linearGradient>
</defs>
</svg>
