<svg width="33" height="32" viewBox="0 0 33 32" fill="none" xmlns="http://www.w3.org/2000/svg">
<path d="M17.2122 10.4766C18.3921 10.4759 19.5342 10.8929 20.4362 11.6537L22.9625 9.24786C21.9927 8.35364 20.8278 7.69776 19.5603 7.33228C18.2928 6.9668 16.9576 6.90178 15.6606 7.14237C14.3636 7.38297 13.1405 7.92256 12.0884 8.71832C11.0363 9.51409 10.1842 10.5441 9.59961 11.7267L12.4477 13.9219C12.7799 12.9203 13.4187 12.0486 14.2739 11.4303C15.129 10.8119 16.1569 10.4783 17.2122 10.4766Z" fill="#D94F3D"/>
<path d="M12.1905 15.4983C12.1912 14.9624 12.278 14.4301 12.4477 13.9218L9.59962 11.7266C9.01704 12.8985 8.71387 14.1895 8.71387 15.4983C8.71387 16.8071 9.01704 18.098 9.59962 19.27L12.4477 17.0747C12.278 16.5664 12.1912 16.0342 12.1905 15.4983Z" fill="#F2C042"/>
<path d="M25.363 13.9521H17.251V17.4287H21.8478C21.5744 18.4118 20.9478 19.2593 20.0883 19.8091L22.9144 21.9877C24.7203 20.3669 25.7814 17.7312 25.363 13.9521Z" fill="#5085ED"/>
<path d="M20.0879 19.8105C19.2145 20.3104 18.2189 20.5563 17.2132 20.5205C16.1579 20.5188 15.1299 20.1852 14.2748 19.5669C13.4197 18.9485 12.7808 18.0768 12.4487 17.0752L9.60059 19.2705C10.3041 20.6886 11.3893 21.8823 12.7341 22.7173C14.079 23.5523 15.6302 23.9955 17.2132 23.9971C19.2962 24.0537 21.3266 23.3383 22.914 21.9884L20.0879 19.8105Z" fill="#57A75C"/>
</svg>
