<svg width="33" height="32" viewBox="0 0 33 32" fill="none" xmlns="http://www.w3.org/2000/svg">
<path d="M20.1901 15.7112C20.0858 13.684 18.5814 12.4651 16.7643 12.4651H16.6959C14.5991 12.4651 13.4361 14.1141 13.4361 15.987C13.4361 18.0845 14.8432 19.4092 16.6877 19.4092C18.7445 19.4092 20.0971 17.9026 20.1949 16.1207L20.1901 15.7112ZM16.7063 10.6517C18.1073 10.6517 19.4244 11.2709 20.3917 12.2404V12.2442C20.3917 11.7785 20.7049 11.4277 21.1401 11.4277L21.2499 11.427C21.9305 11.427 22.07 12.071 22.07 12.2748L22.0734 19.5133C22.0255 19.9867 22.5625 20.2312 22.8603 19.9276C24.0225 18.7331 25.4129 13.7874 22.1377 10.9215C19.0852 8.24986 14.9896 8.69028 12.8114 10.1915C10.4959 11.7886 9.01415 15.3228 10.4534 18.6423C12.0224 22.2639 16.5121 23.3433 19.1803 22.2666C20.5315 21.7211 21.1557 23.5478 19.7523 24.1444C17.6319 25.0481 11.7304 24.957 8.97343 20.1813C7.11081 16.9565 7.21008 11.2824 12.1501 8.34286C15.9293 6.09428 20.9117 6.71708 23.916 9.85493C27.0565 13.1349 26.8734 19.2769 23.81 21.6662C22.4223 22.7506 20.3609 21.6946 20.3741 20.1136L20.3597 19.5966C19.3933 20.5557 18.1073 21.1152 16.7063 21.1152C13.9378 21.1152 11.502 18.6792 11.502 15.9116C11.502 13.1156 13.9378 10.6517 16.7063 10.6517Z" fill="#FFA930"/>
<path style="mix-blend-mode:soft-light" d="M20.1901 15.7112C20.0858 13.684 18.5814 12.4651 16.7643 12.4651H16.6959C14.5991 12.4651 13.4361 14.1141 13.4361 15.987C13.4361 18.0845 14.8432 19.4092 16.6877 19.4092C18.7445 19.4092 20.0971 17.9026 20.1949 16.1207L20.1901 15.7112ZM16.7063 10.6517C18.1073 10.6517 19.4244 11.2709 20.3917 12.2404V12.2442C20.3917 11.7785 20.7049 11.4277 21.1401 11.4277L21.2499 11.427C21.9305 11.427 22.07 12.071 22.07 12.2748L22.0734 19.5133C22.0255 19.9867 22.5625 20.2312 22.8603 19.9276C24.0225 18.7331 25.4129 13.7874 22.1377 10.9215C19.0852 8.24986 14.9896 8.69028 12.8114 10.1915C10.4959 11.7886 9.01415 15.3228 10.4534 18.6423C12.0224 22.2639 16.5121 23.3433 19.1803 22.2666C20.5315 21.7211 21.1557 23.5478 19.7523 24.1444C17.6319 25.0481 11.7304 24.957 8.97343 20.1813C7.11081 16.9565 7.21008 11.2824 12.1501 8.34286C15.9293 6.09428 20.9117 6.71708 23.916 9.85493C27.0565 13.1349 26.8734 19.2769 23.81 21.6662C22.4223 22.7506 20.3609 21.6946 20.3741 20.1136L20.3597 19.5966C19.3933 20.5557 18.1073 21.1152 16.7063 21.1152C13.9378 21.1152 11.502 18.6792 11.502 15.9116C11.502 13.1156 13.9378 10.6517 16.7063 10.6517Z" fill="url(#paint0_linear_1276_113588)" fill-opacity="0.5"/>
<defs>
<linearGradient id="paint0_linear_1276_113588" x1="17.0241" y1="7" x2="17.0241" y2="24.5897" gradientUnits="userSpaceOnUse">
<stop stop-opacity="0"/>
<stop offset="1"/>
</linearGradient>
</defs>
</svg>
