<svg width="33" height="32" viewBox="0 0 33 32" fill="none" xmlns="http://www.w3.org/2000/svg">
<path d="M16.447 13.5398C17.8192 13.5348 18.9121 12.4326 18.9071 11.0574C18.9021 9.68172 17.8069 8.58709 16.4341 8.58591C15.0499 8.58444 13.9444 9.69936 13.9549 11.0874C13.9652 12.4576 15.0705 13.5448 16.447 13.5398ZM16.4541 6.00002C19.2532 6.00766 21.4998 8.29719 21.4854 11.1271C21.4712 13.8918 19.1879 16.1325 16.3935 16.1231C13.6277 16.1137 11.3594 13.8206 11.3758 11.0504C11.3914 8.24985 13.6609 5.99237 16.4541 6.00002ZM22.1234 18.1118C21.5045 18.7472 20.7594 19.207 19.9321 19.5278C19.15 19.8309 18.2929 19.9835 17.4444 20.0853C17.5728 20.2246 17.6331 20.2931 17.7131 20.3731C18.8645 21.5307 20.0214 22.6823 21.169 23.8431C21.56 24.2389 21.6415 24.7293 21.4263 25.1889C21.1913 25.6916 20.6642 26.0221 20.147 25.9865C19.8194 25.9639 19.5639 25.8013 19.3373 25.5728C18.4681 24.6984 17.5825 23.8396 16.7317 22.9487C16.4832 22.6894 16.3644 22.7388 16.1454 22.964C15.2713 23.8643 14.3827 24.7502 13.4892 25.6313C13.0879 26.0271 12.6104 26.0988 12.1447 25.8724C11.6498 25.6331 11.3352 25.1277 11.3594 24.6193C11.3764 24.2765 11.5452 24.0137 11.781 23.779C12.9209 22.6415 14.0573 21.5004 15.1939 20.3602C15.2695 20.2846 15.3395 20.2044 15.4491 20.0867C13.8988 19.9247 12.5007 19.5431 11.3038 18.6072C11.155 18.4908 11.0018 18.3785 10.8666 18.248C10.3423 17.7449 10.2897 17.1683 10.704 16.575C11.0589 16.0669 11.654 15.9311 12.2729 16.223C12.3928 16.2792 12.5069 16.3504 12.6163 16.4256C14.8467 17.9583 17.911 18.0004 20.1502 16.4941C20.3719 16.3248 20.6092 16.1854 20.8841 16.1151C21.418 15.9775 21.9167 16.1742 22.2031 16.6417C22.5309 17.176 22.5271 17.697 22.1234 18.1118Z" fill="#ED812B"/>
<path style="mix-blend-mode:soft-light" d="M16.447 13.5398C17.8192 13.5348 18.9121 12.4326 18.9071 11.0574C18.9021 9.68172 17.8069 8.58709 16.4341 8.58591C15.0499 8.58444 13.9444 9.69936 13.9549 11.0874C13.9652 12.4576 15.0705 13.5448 16.447 13.5398ZM16.4541 6.00002C19.2532 6.00766 21.4998 8.29719 21.4854 11.1271C21.4712 13.8918 19.1879 16.1325 16.3935 16.1231C13.6277 16.1137 11.3594 13.8206 11.3758 11.0504C11.3914 8.24985 13.6609 5.99237 16.4541 6.00002ZM22.1234 18.1118C21.5045 18.7472 20.7594 19.207 19.9321 19.5278C19.15 19.8309 18.2929 19.9835 17.4444 20.0853C17.5728 20.2246 17.6331 20.2931 17.7131 20.3731C18.8645 21.5307 20.0214 22.6823 21.169 23.8431C21.56 24.2389 21.6415 24.7293 21.4263 25.1889C21.1913 25.6916 20.6642 26.0221 20.147 25.9865C19.8194 25.9639 19.5639 25.8013 19.3373 25.5728C18.4681 24.6984 17.5825 23.8396 16.7317 22.9487C16.4832 22.6894 16.3644 22.7388 16.1454 22.964C15.2713 23.8643 14.3827 24.7502 13.4892 25.6313C13.0879 26.0271 12.6104 26.0988 12.1447 25.8724C11.6498 25.6331 11.3352 25.1277 11.3594 24.6193C11.3764 24.2765 11.5452 24.0137 11.781 23.779C12.9209 22.6415 14.0573 21.5004 15.1939 20.3602C15.2695 20.2846 15.3395 20.2044 15.4491 20.0867C13.8988 19.9247 12.5007 19.5431 11.3038 18.6072C11.155 18.4908 11.0018 18.3785 10.8666 18.248C10.3423 17.7449 10.2897 17.1683 10.704 16.575C11.0589 16.0669 11.654 15.9311 12.2729 16.223C12.3928 16.2792 12.5069 16.3504 12.6163 16.4256C14.8467 17.9583 17.911 18.0004 20.1502 16.4941C20.3719 16.3248 20.6092 16.1854 20.8841 16.1151C21.418 15.9775 21.9167 16.1742 22.2031 16.6417C22.5309 17.176 22.5271 17.697 22.1234 18.1118Z" fill="url(#paint0_linear_1276_113558)" fill-opacity="0.5"/>
<defs>
<linearGradient id="paint0_linear_1276_113558" x1="16.4336" y1="6" x2="16.4336" y2="26" gradientUnits="userSpaceOnUse">
<stop stop-opacity="0"/>
<stop offset="1"/>
</linearGradient>
</defs>
</svg>
