<svg width="33" height="32" viewBox="0 0 33 32" fill="none" xmlns="http://www.w3.org/2000/svg">
<path d="M7.61352 15.4036L17.7398 10.3577C18.7394 9.83205 22.1294 8.15008 22.1294 8.15008C22.1294 8.15008 23.6939 7.41422 23.5636 9.20131C23.5201 9.93717 23.1724 12.5127 22.8247 15.2984L21.7382 23.5506C21.7382 23.5506 21.6513 24.7595 20.9125 24.9697C20.1736 25.18 18.9567 24.2339 18.7394 24.0236C18.5656 23.8659 15.4799 21.5007 14.3499 20.3443C14.0457 20.029 13.698 19.3982 14.3934 18.6624C15.958 16.9278 17.8268 14.7728 18.9567 13.4062C19.4783 12.7755 19.9998 11.3038 17.8268 13.0909L11.6988 18.0842C11.6988 18.0842 11.0034 18.6098 9.69963 18.1367C8.39581 17.6637 6.87469 17.033 6.87469 17.033C6.87469 17.033 5.83163 16.2445 7.61352 15.4036Z" fill="#37AEE2"/>
<path d="M7.61352 15.4036L17.7398 10.3577C18.7394 9.83205 22.1294 8.15008 22.1294 8.15008C22.1294 8.15008 23.6939 7.41422 23.5636 9.20131C23.5201 9.93717 23.1724 12.5127 22.8247 15.2984L21.7382 23.5506C21.7382 23.5506 21.6513 24.7595 20.9125 24.9697C20.1736 25.18 18.9567 24.2339 18.7394 24.0236C18.5656 23.8659 15.4799 21.5007 14.3499 20.3443C14.0457 20.029 13.698 19.3982 14.3934 18.6624C15.958 16.9278 17.8268 14.7728 18.9567 13.4062C19.4783 12.7755 19.9998 11.3038 17.8268 13.0909L11.6988 18.0842C11.6988 18.0842 11.0034 18.6098 9.69963 18.1367C8.39581 17.6637 6.87469 17.033 6.87469 17.033C6.87469 17.033 5.83163 16.2445 7.61352 15.4036Z" fill="url(#paint0_linear_1276_113603)" fill-opacity="0.5" style="mix-blend-mode:soft-light"/>
<defs>
<linearGradient id="paint0_linear_1276_113603" x1="15.0713" y1="8" x2="15.0713" y2="25" gradientUnits="userSpaceOnUse">
<stop stop-opacity="0"/>
<stop offset="1"/>
</linearGradient>
</defs>
</svg>
