<svg width="32" height="32" viewBox="0 0 32 32" fill="none" xmlns="http://www.w3.org/2000/svg">
<path fill-rule="evenodd" clip-rule="evenodd" d="M24.5411 11.3126C24.6801 10.8442 24.5411 10.5 23.8794 10.5H21.6914C21.135 10.5 20.8786 10.7973 20.7395 11.1252C20.7395 11.1252 19.6268 13.8652 18.0505 15.645C17.5406 16.1602 17.3087 16.3242 17.0306 16.3242C16.8915 16.3242 16.6902 16.1602 16.6902 15.6919V11.3126C16.6902 10.7505 16.5287 10.5 16.0651 10.5H12.6268C12.2791 10.5 12.07 10.7609 12.07 11.0081C12.07 11.5409 12.8581 11.6638 12.9393 13.1626V16.4179C12.9393 17.1316 12.8118 17.261 12.5336 17.261C11.7919 17.261 9.98756 14.5087 8.91744 11.3594C8.70773 10.7473 8.49738 10.5 7.93819 10.5H5.75018C5.12504 10.5 5 10.7973 5 11.1252C5 11.7107 5.74178 14.6146 8.45387 18.4553C10.2619 21.0782 12.8093 22.5 15.1274 22.5C16.5182 22.5 16.6902 22.1842 16.6902 21.6403V19.6579C16.6902 19.0263 16.822 18.9003 17.2624 18.9003C17.5869 18.9003 18.1433 19.0642 19.4414 20.3288C20.9249 21.8276 21.1695 22.5 22.004 22.5H24.192C24.8171 22.5 25.1297 22.1842 24.9494 21.561C24.752 20.9399 24.0437 20.0388 23.1039 18.9705C22.5939 18.3616 21.8289 17.7059 21.5971 17.378C21.2726 16.9565 21.3653 16.7691 21.5971 16.3945C21.5971 16.3945 24.2629 12.6006 24.5411 11.3126Z" fill="#3C93F7"/>
</svg>
