<svg width="33" height="32" viewBox="0 0 33 32" fill="none" xmlns="http://www.w3.org/2000/svg">
<path d="M19.8085 26H17.687V18.5343H16.1938L12.8146 26H10.1426L14.3863 18.3378C14.3863 18.3378 10.811 16.6876 10.811 12.601C10.811 8.51498 13.6601 6 16.0515 6H19.8085V26ZM15.7449 7.6953C15.43 7.74673 13.1481 8.25937 13.1481 12.2282C13.1481 14.04 13.6027 15.1314 14.1249 15.7876C14.6278 16.4192 15.4076 16.7662 16.2149 16.7662H17.6275V7.69016H15.8119C15.7894 7.69016 15.7675 7.69149 15.7449 7.6953Z" fill="#DA3332"/>
<path style="mix-blend-mode:soft-light" d="M19.8085 26H17.687V18.5343H16.1938L12.8146 26H10.1426L14.3863 18.3378C14.3863 18.3378 10.811 16.6876 10.811 12.601C10.811 8.51498 13.6601 6 16.0515 6H19.8085V26ZM15.7449 7.6953C15.43 7.74673 13.1481 8.25937 13.1481 12.2282C13.1481 14.04 13.6027 15.1314 14.1249 15.7876C14.6278 16.4192 15.4076 16.7662 16.2149 16.7662H17.6275V7.69016H15.8119C15.7894 7.69016 15.7675 7.69149 15.7449 7.6953Z" fill="url(#paint0_linear_1276_113573)" fill-opacity="0.5"/>
<defs>
<linearGradient id="paint0_linear_1276_113573" x1="14.9755" y1="6" x2="14.9755" y2="26" gradientUnits="userSpaceOnUse">
<stop stop-opacity="0"/>
<stop offset="1"/>
</linearGradient>
</defs>
</svg>
