<svg width="14" height="11" viewBox="0 0 14 11" fill="none" xmlns="http://www.w3.org/2000/svg">
<path fill-rule="evenodd" clip-rule="evenodd" d="M6 0H8V2H6V0Z" fill="url(#paint0_linear)"/>
<path fill-rule="evenodd" clip-rule="evenodd" d="M9 0H11V2H9V0Z" fill="url(#paint1_linear)"/>
<path fill-rule="evenodd" clip-rule="evenodd" d="M12 0H14V2H12V0Z" fill="url(#paint2_linear)"/>
<path fill-rule="evenodd" clip-rule="evenodd" d="M0 3H2V5H0V3Z" fill="url(#paint3_linear)"/>
<path fill-rule="evenodd" clip-rule="evenodd" d="M3 3H5V5H3V3Z" fill="url(#paint4_linear)"/>
<path fill-rule="evenodd" clip-rule="evenodd" d="M6 3H8V5H6V3Z" fill="url(#paint5_linear)"/>
<path fill-rule="evenodd" clip-rule="evenodd" d="M9 3H11V5H9V3Z" fill="url(#paint6_linear)"/>
<path fill-rule="evenodd" clip-rule="evenodd" d="M12 3H14V5H12V3Z" fill="url(#paint7_linear)"/>
<path fill-rule="evenodd" clip-rule="evenodd" d="M0 6H2V8H0V6Z" fill="url(#paint8_linear)"/>
<path fill-rule="evenodd" clip-rule="evenodd" d="M3 6H5V8H3V6Z" fill="url(#paint9_linear)"/>
<path fill-rule="evenodd" clip-rule="evenodd" d="M6 6H8V8H6V6Z" fill="url(#paint10_linear)"/>
<path fill-rule="evenodd" clip-rule="evenodd" d="M9 6H11V8H9V6Z" fill="url(#paint11_linear)"/>
<path fill-rule="evenodd" clip-rule="evenodd" d="M12 6H14V8H12V6Z" fill="url(#paint12_linear)"/>
<path fill-rule="evenodd" clip-rule="evenodd" d="M0 9H2V11H0V9Z" fill="url(#paint13_linear)"/>
<path fill-rule="evenodd" clip-rule="evenodd" d="M3 9H5V11H3V9Z" fill="url(#paint14_linear)"/>
<path fill-rule="evenodd" clip-rule="evenodd" d="M6 9H8V11H6V9Z" fill="url(#paint15_linear)"/>
<defs>
<linearGradient id="paint0_linear" x1="7" y1="0" x2="7" y2="2" gradientUnits="userSpaceOnUse">
<stop stop-color="white"/>
<stop offset="1" stop-color="#B8B8CC"/>
</linearGradient>
<linearGradient id="paint1_linear" x1="10" y1="0" x2="10" y2="2" gradientUnits="userSpaceOnUse">
<stop stop-color="white"/>
<stop offset="1" stop-color="#B8B8CC"/>
</linearGradient>
<linearGradient id="paint2_linear" x1="13" y1="0" x2="13" y2="2" gradientUnits="userSpaceOnUse">
<stop stop-color="white"/>
<stop offset="1" stop-color="#B8B8CC"/>
</linearGradient>
<linearGradient id="paint3_linear" x1="1" y1="3" x2="1" y2="5" gradientUnits="userSpaceOnUse">
<stop stop-color="white"/>
<stop offset="1" stop-color="#B8B8CC"/>
</linearGradient>
<linearGradient id="paint4_linear" x1="4" y1="3" x2="4" y2="5" gradientUnits="userSpaceOnUse">
<stop stop-color="white"/>
<stop offset="1" stop-color="#B8B8CC"/>
</linearGradient>
<linearGradient id="paint5_linear" x1="7" y1="3" x2="7" y2="5" gradientUnits="userSpaceOnUse">
<stop stop-color="white"/>
<stop offset="1" stop-color="#B8B8CC"/>
</linearGradient>
<linearGradient id="paint6_linear" x1="10" y1="3" x2="10" y2="5" gradientUnits="userSpaceOnUse">
<stop stop-color="white"/>
<stop offset="1" stop-color="#B8B8CC"/>
</linearGradient>
<linearGradient id="paint7_linear" x1="13" y1="3" x2="13" y2="5" gradientUnits="userSpaceOnUse">
<stop stop-color="white"/>
<stop offset="1" stop-color="#B8B8CC"/>
</linearGradient>
<linearGradient id="paint8_linear" x1="1" y1="6" x2="1" y2="8" gradientUnits="userSpaceOnUse">
<stop stop-color="white"/>
<stop offset="1" stop-color="#B8B8CC"/>
</linearGradient>
<linearGradient id="paint9_linear" x1="4" y1="6" x2="4" y2="8" gradientUnits="userSpaceOnUse">
<stop stop-color="white"/>
<stop offset="1" stop-color="#B8B8CC"/>
</linearGradient>
<linearGradient id="paint10_linear" x1="7" y1="6" x2="7" y2="8" gradientUnits="userSpaceOnUse">
<stop stop-color="white"/>
<stop offset="1" stop-color="#B8B8CC"/>
</linearGradient>
<linearGradient id="paint11_linear" x1="10" y1="6" x2="10" y2="8" gradientUnits="userSpaceOnUse">
<stop stop-color="white"/>
<stop offset="1" stop-color="#B8B8CC"/>
</linearGradient>
<linearGradient id="paint12_linear" x1="13" y1="6" x2="13" y2="8" gradientUnits="userSpaceOnUse">
<stop stop-color="white"/>
<stop offset="1" stop-color="#B8B8CC"/>
</linearGradient>
<linearGradient id="paint13_linear" x1="1" y1="9" x2="1" y2="11" gradientUnits="userSpaceOnUse">
<stop stop-color="white"/>
<stop offset="1" stop-color="#B8B8CC"/>
</linearGradient>
<linearGradient id="paint14_linear" x1="4" y1="9" x2="4" y2="11" gradientUnits="userSpaceOnUse">
<stop stop-color="white"/>
<stop offset="1" stop-color="#B8B8CC"/>
</linearGradient>
<linearGradient id="paint15_linear" x1="7" y1="9" x2="7" y2="11" gradientUnits="userSpaceOnUse">
<stop stop-color="white"/>
<stop offset="1" stop-color="#B8B8CC"/>
</linearGradient>
</defs>
</svg>
