<svg  viewBox="0 0 28 27" fill="none" xmlns="http://www.w3.org/2000/svg">
<g filter="url(#filter0_d)">
<path d="M13.5305 22.8219L8.07196 25.6916C6.76171 26.3804 5.14112 25.8767 4.45228 24.5664C4.17798 24.0447 4.08333 23.447 4.18297 22.8661L5.22545 16.7879L0.809423 12.4833C-0.250595 11.4501 -0.272284 9.75314 0.760977 8.69313C1.17243 8.27102 1.71155 7.99633 2.29488 7.91156L8.39769 7.02477L11.1269 1.49469C11.7821 0.167261 13.3893 -0.37775 14.7167 0.277377C15.2453 0.538252 15.6731 0.966102 15.934 1.49469L18.6633 7.02477L24.7661 7.91156C26.231 8.12443 27.246 9.48453 27.0331 10.9494C26.9483 11.5328 26.6736 12.0719 26.2515 12.4833L21.8355 16.7879L22.878 22.8661C23.1282 24.325 22.1483 25.7106 20.6893 25.9609C20.1084 26.0605 19.5107 25.9659 18.989 25.6916L13.5305 22.8219Z" fill="url(#paint0_linear)"/>
<path d="M13.7631 22.3793L13.5305 22.257L13.2978 22.3793L7.83929 25.249C6.77346 25.8093 5.45519 25.3996 4.89485 24.3337C4.67171 23.9093 4.59472 23.4232 4.67577 22.9506L5.71826 16.8724L5.76269 16.6133L5.57446 16.4299L1.15843 12.1253C0.296153 11.2848 0.278509 9.90441 1.11902 9.04213C1.45372 8.69877 1.89227 8.47532 2.36678 8.40637L8.46959 7.51958L8.72972 7.48178L8.84606 7.24606L11.5753 1.71598C12.1082 0.636171 13.4156 0.192829 14.4954 0.725745C14.9254 0.937955 15.2734 1.28599 15.4856 1.71598L18.2149 7.24606L18.3312 7.48178L18.5914 7.51958L24.6942 8.40637C25.8858 8.57952 26.7114 9.6859 26.5383 10.8775C26.4693 11.3521 26.2459 11.7906 25.9025 12.1253L21.4865 16.4299L21.2983 16.6133L21.3427 16.8724L22.3852 22.9506C22.5887 24.1374 21.7916 25.2645 20.6048 25.4681C20.1322 25.5491 19.6461 25.4721 19.2217 25.249L13.7631 22.3793Z" stroke="black" stroke-opacity="0.2"/>
</g>
<defs>
<filter id="filter0_d" x="0" y="0" width="27.0613" height="27" filterUnits="userSpaceOnUse" color-interpolation-filters="sRGB">
<feFlood flood-opacity="0" result="BackgroundImageFix"/>
<feColorMatrix in="SourceAlpha" type="matrix" values="0 0 0 0 0 0 0 0 0 0 0 0 0 0 0 0 0 0 127 0"/>
<feOffset dy="1"/>
<feColorMatrix type="matrix" values="0 0 0 0 1 0 0 0 0 1 0 0 0 0 1 0 0 0 0.05 0"/>
<feBlend mode="normal" in2="BackgroundImageFix" result="effect1_dropShadow"/>
<feBlend mode="normal" in="SourceGraphic" in2="effect1_dropShadow" result="shape"/>
</filter>
<linearGradient id="paint0_linear" x1="13.5306" y1="0" x2="13.5306" y2="26" gradientUnits="userSpaceOnUse">
<stop/>
<stop offset="1" stop-color="#0E161F"/>
</linearGradient>
</defs>
</svg>
