<svg width="24" height="24" viewBox="0 0 24 24" fill="none" xmlns="http://www.w3.org/2000/svg">
<path fill-rule="evenodd" clip-rule="evenodd" d="M13 16.9C14.9591 16.5023 16.5023 14.9591 16.9 13H17C18.6569 13 20 11.6569 20 10V8C20 7.44772 19.5523 7 19 7H17V5C17 4.44772 16.5523 4 16 4H8C7.44772 4 7 4.44772 7 5V7H5C4.44772 7 4 7.44772 4 8V10C4 11.6569 5.34315 13 7 13H7.10002C7.4977 14.9591 9.04087 16.5023 11 16.9V19H9C8.44771 19 8 19.4477 8 20C8 20.5523 8.44771 21 9 21H15C15.5523 21 16 20.5523 16 20C16 19.4477 15.5523 19 15 19H13V16.9ZM9 12V6H15V12C15 13.6569 13.6569 15 12 15C10.3431 15 9 13.6569 9 12ZM7 8H5V10C5 11.1046 5.89543 12 7 12V8ZM19 10C19 11.1046 18.1046 12 17 12V8H19V10Z" fill="white"/>
</svg>
